<svg xmlns="http://www.w3.org/2000/svg" viewBox="0 0 716.889 736.376"><path data-name="Path 1028" d="M138.151 314.72c17.804 17.483 46.474 20.245 63.124 39.119 19.824 22.229 13.996 56.116 8.141 85.467-5.803 28.853-10.439 58.586-2.857 87.082 7.358 28.222 30.027 54.528 59.142 57.84 34.87 3.664 65.34-25.118 99.962-26.26 26.545-.988 50.641 14.136 75.916 22.836 53.984 18.265 117.625 4.556 159.265-34.632 11.442-10.633 22.032-25.133 20.391-40.666-1.773-19.073-19.773-32.297-37.454-38.943s-37.453-10.232-52.071-22.093c-31.623-24.98-27.487-73.903-16.6-112.798 11.11-38.62 26.009-82.131 6.824-117.639-20.193-37.88-69.654-48.87-112.624-47.344-25.549 1.092-52.358 4.568-75.653-6.186-18.97-8.793-32.462-26.58-50.724-37.313-24.87-14.953-58.113-14.922-83.083-.17-45.916 27.155-26.377 66.478-44.239 104.64-12.949 27.35-53.96 50.99-17.46 87.06z" fill="#efefef" opacity=".3"/></svg>