<svg xmlns="http://www.w3.org/2000/svg" viewBox="0 0 1257.948 1292.143"><path data-name="Path 1028" d="M242.417 552.248c31.24 30.677 81.549 35.526 110.767 68.645 34.783 39.002 24.559 98.469 14.285 149.972-10.181 50.63-18.316 102.8-5.011 152.808 12.906 49.522 52.688 95.678 103.777 101.49 61.181 6.43 114.66-44.067 175.408-46.079 46.579-1.732 88.862 24.806 133.212 40.073 94.729 32.05 206.402 7.997 279.47-60.77 20.077-18.658 38.66-44.103 35.78-71.359-3.11-33.468-34.698-56.672-65.728-68.33s-65.72-17.954-91.372-38.767c-55.488-43.833-48.233-129.68-29.13-197.93 19.495-67.771 45.638-144.116 11.975-206.424-35.434-66.471-122.224-85.757-197.623-83.078-44.831 1.916-91.87 8.02-132.748-10.859-33.287-15.429-56.962-46.64-89.01-65.476-43.638-26.24-101.972-26.184-145.788-.3-80.568 47.65-46.285 116.653-77.626 183.618-22.718 47.99-94.686 89.474-30.638 152.766z" fill="#f9eae9" opacity=".3"/></svg>