<svg xmlns="http://www.w3.org/2000/svg" xmlns:xlink="http://www.w3.org/1999/xlink" viewBox="0 0 574.208 554.896"><defs><style>.cls-17,.cls-7{fill:#b0b0ff}.cls-2{fill:#c2c5ff}.cls-3{fill:#d2d2ff}.cls-4{fill:#fff}.cls-5{fill:#d2f0ff}.cls-6{fill:#5046af}.cls-8{fill:#8383dd}.cls-9{fill:#827ddc}.cls-13{fill:#fab9af}.cls-14{fill:#41378c}.cls-15{fill:#6e64c3}.cls-16{fill:#fa968c}.cls-17{opacity:.195}.cls-20{fill:#3c5a73}</style><linearGradient id="linear-gradient" x1=".751" y1=".019" x2=".079" y2=".685" gradientUnits="objectBoundingBox"><stop offset="0" stop-color="#fff"/><stop offset="1" stop-color="#fff" stop-opacity="0"/></linearGradient><linearGradient id="linear-gradient-2" x1=".669" y1=".283" x2=".148" y2=".949" xlink:href="#linear-gradient"/></defs><g id="Group_6335" data-name="Group 6335" transform="translate(0 1.057)"><path id="Path_33664" data-name="Path 33664" d="M418.007 30.831c-28.816-10.542-61.849-4.685-84.339 16.634a33.226 33.226 0 0 1-22.959 9.135 34.063 34.063 0 0 1-13.822-3.046c-28.347-13.119-61.38-10.308-85.745 9.371a181.8 181.8 0 0 0-37.953 42.638c-17.8 27.879-42.872 50.135-73.562 62.786a56.084 56.084 0 0 0-6.56 3.046c-18.742 8.668-30.456 28.582-27.879 49.2a20.743 20.743 0 0 1 0 5.388 19.907 19.907 0 0 1-16.165 16.634 1.409 1.409 0 0 0-.937.234c-16.868 2.108-29.987 16.4-29.987 33.5v.469c0 67.237 67.237 121.589 149.936 121.589a177.452 177.452 0 0 0 81.528-19.445c25.77-13.588 54.352-20.851 83.4-19.679 3.28.234 6.56.234 9.84.234 107.3 0 194.214-76.608 194.214-170.786.236-71.22-48.961-132.133-119.01-157.902z" transform="translate(24.304 35.95)" opacity=".119" fill="#b0b0ff"/><g id="Group_6323" data-name="Group 6323" transform="translate(151.204 87.003)"><path id="Path_33665" data-name="Path 33665" class="cls-2" d="M170.764 86.306a4.764 4.764 0 0 0-4.92-3.046l-3.744.24 2.1-3.05a5.271 5.271 0 0 0 0-6.325 76.652 76.652 0 0 0-20.382-20.382 6.042 6.042 0 0 0-6.56-.234l-3.983 2.343.234-2.108a7.716 7.716 0 0 0-4.451-7.965c-35.376-16.4-75.2-8.668-61.849 5.857a20.994 20.994 0 0 0 4.451 3.514 209.818 209.818 0 0 1 18.982 12.414 8.967 8.967 0 0 0 8.434.937l.937-.469a1.405 1.405 0 0 1 1.874 1.64 8.6 8.6 0 0 0 2.811 8.668c3.28 2.811 6.56 5.857 9.84 8.9a8.626 8.626 0 0 0 9.371 1.64l.7-.234a1.405 1.405 0 0 1 1.874 1.64l-.937 3.514a8.853 8.853 0 0 0 1.406 7.263 58.2 58.2 0 0 1 6.091 9.371 8.284 8.284 0 0 0 5.857 4.217l2.108.469a1.4 1.4 0 0 1 .7 2.343l-.234.234a8.082 8.082 0 0 0-2.577 7.965v.234c6.794 37.718 16.4 136.582 16.4 136.582s40.769-116.197 15.467-176.172z" transform="translate(-64.5 -36.48)"/><path id="Path_33666" data-name="Path 33666" class="cls-3" d="M170.806 86.593a5.385 5.385 0 0 0-5.154-3.28h-1.406a1.129 1.129 0 0 1-.937-1.874l.7-1.171a5.271 5.271 0 0 0 0-6.325A76.654 76.654 0 0 0 143.63 53.56a6.042 6.042 0 0 0-6.56-.234L135.2 54.5a1.083 1.083 0 0 1-1.64-1.171 7.08 7.08 0 0 0-4.217-7.731c-34.2-15.7-72.391-8.9-63.489 4.451A4.891 4.891 0 0 0 69.6 51.92c14.057-1.171 33.97 1.874 52.009 11.245A6.225 6.225 0 0 0 127 63.4l3.983-1.64-.469 2.108a5.676 5.676 0 0 0 2.343 6.325 68.047 68.047 0 0 1 13.354 12.651 4.362 4.362 0 0 0 5.388 1.171l1.401-.468a1.506 1.506 0 0 1 2.108 1.64l-1.171 4.92a5.772 5.772 0 0 0 .469 3.983c21.319 37.484 9.605 104.487-.937 146.422a1.494 1.494 0 0 0 0 1.406v.469a4.2 4.2 0 0 0 8.2.7c10.074-35.843 28.113-111.748 9.137-156.494z" transform="translate(-64.541 -36.532)"/></g><g id="Group_6324" data-name="Group 6324" transform="translate(98.39 160.235)"><path id="Path_33667" data-name="Path 33667" class="cls-4" d="M201.31 148.872c-8.668-23.428-18.742-40.3-29.753-52.478a2.569 2.569 0 0 0-2.811-.7l-4.451 1.874a2.6 2.6 0 0 1-3.28-3.514l1.874-3.983a2.555 2.555 0 0 0-.7-3.046c-13.354-11.245-27.41-16.634-40.764-18.273a2.227 2.227 0 0 0-2.343.937l-1.171 1.64a2.6 2.6 0 0 1-4.686-1.171 2.753 2.753 0 0 0-2.577-2.343 114.351 114.351 0 0 0-28.113 3.28C70.819 73.67 41.535 87.726 42 99.909c.234 10.074 44.981 8.2 83.4 32.1a2.538 2.538 0 0 0 2.577 0l1.874-1.171a2.572 2.572 0 0 1 3.748 3.046l-.469 1.171a2.689 2.689 0 0 0 .937 2.811 98.385 98.385 0 0 1 16.165 15.228c1.171 1.406 2.343 2.811 3.514 4.451a2.787 2.787 0 0 0 2.577.937l3.046-.7a2.668 2.668 0 0 1 2.811 3.983l-1.64 2.577a2.987 2.987 0 0 0 0 2.811c25.067 39.827 35.376 100.738 38.421 123.931a2.543 2.543 0 0 0 4.92.469c7.737-20.389 22.497-74.273-2.571-142.681z" transform="translate(-41.998 -67.79)"/><path id="Path_33668" data-name="Path 33668" class="cls-3" d="M201.31 148.872c-8.668-23.428-18.742-40.3-29.753-52.478a2.569 2.569 0 0 0-2.811-.7l-4.451 1.874a2.6 2.6 0 0 1-3.28-3.514l1.874-3.983a2.555 2.555 0 0 0-.7-3.046c-13.354-11.245-27.41-16.634-40.764-18.273a2.227 2.227 0 0 0-2.343.937l-1.171 1.64a2.6 2.6 0 0 1-4.686-1.171 2.753 2.753 0 0 0-2.577-2.343 114.351 114.351 0 0 0-28.113 3.28C70.819 73.67 41.535 87.726 42 99.909c0 1.64 1.406 3.046 3.983 4.451a21.709 21.709 0 0 0 17.1.469q4.92-1.757 8.434-2.811a162.872 162.872 0 0 1 17.1-2.811 2.25 2.25 0 0 0 2.108-1.64l2.811-8.2a2.482 2.482 0 0 1 4.686-.234l3.748 8.434a2.251 2.251 0 0 0 2.108 1.406 88.443 88.443 0 0 1 13.119 1.874 2.644 2.644 0 0 0 2.577-.7l5.154-5.623a2.613 2.613 0 0 1 4.451 1.874v6.56a2.821 2.821 0 0 0 1.64 2.343 87.982 87.982 0 0 1 28.347 20.382 1.889 1.889 0 0 0 2.108.7l7.028-.937a2.61 2.61 0 0 1 2.343 4.217l-2.811 3.28a2.809 2.809 0 0 0 0 3.28 181.287 181.287 0 0 1 18.039 32.564 2.477 2.477 0 0 0 1.64 1.406l7.263 2.343a2.482 2.482 0 0 1 .234 4.686l-2.811 1.171a2.61 2.61 0 0 0-1.406 3.28c17.336 48.261 14.525 89.259 8.9 115.966v.7a5.721 5.721 0 0 0 .234 1.64s33.513-63.488 1.183-151.107z" transform="translate(-41.998 -67.79)"/></g><g id="Group_6325" data-name="Group 6325" transform="translate(241.892 181.661)"><path id="Path_33669" data-name="Path 33669" class="cls-2" d="M130.073 126.752c10.542-16.868 21.085-28.582 31.627-36.313a2.128 2.128 0 0 1 2.343 0l3.046 2.108a2 2 0 0 0 3.046-2.108l-.7-3.28a2.227 2.227 0 0 1 .937-2.343 61.081 61.081 0 0 1 34.673-7.731 1.762 1.762 0 0 1 1.64 1.171l.7 1.64a2 2 0 0 0 3.748-.234 2.078 2.078 0 0 1 2.343-1.406 98.945 98.945 0 0 1 21.319 7.028c8.668 3.983 29.284 19.445 26.942 29.05-1.874 7.731-36.547-.7-70.282 11.714a1.865 1.865 0 0 1-2.108-.469l-1.406-1.171a2.024 2.024 0 0 0-3.28 1.874v.937a2.46 2.46 0 0 1-1.171 2.108 71.415 71.415 0 0 0-14.994 9.137l-3.514 2.811a1.784 1.784 0 0 1-2.108.234l-2.343-.937a2.085 2.085 0 0 0-2.811 2.577l.937 2.343a1.791 1.791 0 0 1-.469 2.108c-26 26.942-43.575 72.86-49.9 90.664-.7 2.108-3.514 1.64-3.983-.469-1.877-17.095-4.688-61.611 25.768-111.043z" transform="translate(-103.251 -76.936)"/><path id="Path_33670" data-name="Path 33670" class="cls-3" d="M130.068 126.752c10.542-16.868 21.085-28.582 31.627-36.313a2.128 2.128 0 0 1 2.343 0l3.046 2.108a2 2 0 0 0 3.046-2.108l-.7-3.28a2.227 2.227 0 0 1 .937-2.343 61.081 61.081 0 0 1 34.673-7.731 1.762 1.762 0 0 1 1.64 1.171l.7 1.64a2 2 0 0 0 3.748-.234 2.078 2.078 0 0 1 2.343-1.406 98.944 98.944 0 0 1 21.319 7.028c8.668 3.983 29.284 19.445 26.942 29.05-.234 1.406-1.64 2.108-3.748 2.811a16.782 16.782 0 0 1-13.354-2.343 63.377 63.377 0 0 0-6.091-3.514 135 135 0 0 0-12.885-4.92 2.01 2.01 0 0 1-1.406-1.64l-.7-6.794A2.05 2.05 0 0 0 219.8 97l-4.451 6.091a2.131 2.131 0 0 1-1.874.937 74.644 74.644 0 0 0-10.542-.7 2.131 2.131 0 0 1-1.874-.937l-3.28-5.154a2.025 2.025 0 0 0-3.748.7l-.937 5.154a2.315 2.315 0 0 1-1.64 1.64c-8.2 1.64-16.634 5.388-25.3 11.479a1.769 1.769 0 0 1-1.874.234l-5.388-1.874a2.045 2.045 0 0 0-2.577 2.811l1.64 3.046a2.139 2.139 0 0 1-.469 2.577 136.752 136.752 0 0 0-19.211 22.49c-.234.469-.937.7-1.406.937l-6.091.7a2.05 2.05 0 0 0-.937 3.748l1.874 1.406a1.945 1.945 0 0 1 .469 2.811c-21.085 34.907-25.536 67.237-25.536 89.025v.7a9.847 9.847 0 0 1-.469 1.171s-15.235-55.986 23.889-119.24z" transform="translate(-103.247 -76.936)"/></g><path id="Path_33671" data-name="Path 33671" class="cls-5" d="M494.389 206.286H60.043a2.348 2.348 0 0 1-2.343-2.343 2.348 2.348 0 0 1 2.343-2.343h434.346a2.348 2.348 0 0 1 2.343 2.343 2.348 2.348 0 0 1-2.343 2.343z" transform="translate(77.477 272.117)"/><g id="Group_6331" data-name="Group 6331" transform="translate(229.121 257.247)"><path id="Path_33672" data-name="Path 33672" class="cls-6" d="M378.967 305.757H125.951a20.9 20.9 0 0 1-20.851-20.851V130.051a20.9 20.9 0 0 1 20.851-20.85h253.016a20.9 20.9 0 0 1 20.85 20.85v154.855a21.049 21.049 0 0 1-20.85 20.851z" transform="translate(-87.998 -109.2)"/><path id="Rectangle_61" data-name="Rectangle 61" class="cls-2" transform="translate(32.564 15.696)" d="M0 0h263.794v165.398H0z"/><path id="Rectangle_62" data-name="Rectangle 62" class="cls-7" transform="translate(32.564 165.398)" d="M0 0h263.794v15.931H0z"/><path id="Rectangle_63" data-name="Rectangle 63" class="cls-7" transform="translate(32.564 15.696)" d="M0 0h263.794v7.965H0z"/><path id="Path_33673" data-name="Path 33673" class="cls-2" d="M406.574 212.913H117.713A19.9 19.9 0 0 1 97.8 193h328.454a19.7 19.7 0 0 1-19.68 19.913z" transform="translate(-97.8 3.322)"/><path id="Path_33674" data-name="Path 33674" class="cls-7" d="M406.44 205.985H117.579A19.855 19.855 0 0 1 99.071 193.1H97.9a19.9 19.9 0 0 0 19.913 19.913H406.44a19.9 19.9 0 0 0 19.914-19.913h-1.171a20.411 20.411 0 0 1-18.743 12.885z" transform="translate(-97.666 3.457)"/><path id="Rectangle_64" data-name="Rectangle 64" class="cls-7" transform="translate(9.605 192.574)" d="M0 0h309.477v3.983H0z"/><path id="Path_33675" data-name="Path 33675" class="cls-6" d="M201.009 199.66H163.76a6.548 6.548 0 0 1-6.56-6.56h50.6a6.754 6.754 0 0 1-6.791 6.56z" transform="translate(-18.041 3.457)"/><path id="Rectangle_65" data-name="Rectangle 65" class="cls-8" transform="translate(41.935 186.483)" d="M0 0h36.313v6.325H0z"/><path id="Rectangle_66" data-name="Rectangle 66" class="cls-8" transform="translate(251.377 186.483)" d="M0 0h36.313v6.325H0z"/><g id="Group_6330" data-name="Group 6330" transform="translate(72.859 80.591)"><g id="Group_6326" data-name="Group 6326" transform="translate(2.343 40.295)"><path id="Path_33676" data-name="Path 33676" class="cls-9" d="M255.035 178.371H155V160.8h100.035a7.8 7.8 0 0 1 7.731 7.731v2.108a7.8 7.8 0 0 1-7.731 7.732z" transform="translate(-96.197 -160.8)"/><path id="Path_33677" data-name="Path 33677" class="cls-6" d="M189.64 160.8H129.9v3.28h55.055v11.011H129.9v3.28h59.74a4.2 4.2 0 0 0 4.217-4.217v-8.9a4.257 4.257 0 0 0-4.217-4.454z" transform="translate(-129.9 -160.8)"/><path id="Rectangle_67" data-name="Rectangle 67" class="cls-4" transform="translate(2.577 3.28)" d="M0 0h56.46v11.011H0z"/><path id="Rectangle_68" data-name="Rectangle 68" class="cls-2" transform="translate(2.577 3.28)" d="M0 0h56.46v2.577H0z"/></g><g id="Group_6327" data-name="Group 6327" transform="translate(10.308 22.725)"><path id="Path_33678" data-name="Path 33678" class="cls-6" d="M222.457 170.871H158.5V153.3h63.957a7.8 7.8 0 0 1 7.731 7.731v2.108a7.8 7.8 0 0 1-7.731 7.732z" transform="translate(-99.463 -153.3)"/><path id="Path_33679" data-name="Path 33679" class="cls-6" d="M193.04 153.3H133.3v3.28h55.055v11.011H133.3v3.28h59.74a4.2 4.2 0 0 0 4.217-4.217v-8.9a4.123 4.123 0 0 0-4.217-4.454z" transform="translate(-133.3 -153.3)"/><path id="Rectangle_69" data-name="Rectangle 69" class="cls-4" transform="translate(2.577 3.28)" d="M0 0h56.46v11.011H0z"/><path id="Rectangle_70" data-name="Rectangle 70" class="cls-2" transform="translate(2.577 3.28)" d="M0 0h56.46v2.577H0z"/></g><g id="Group_6328" data-name="Group 6328"><path id="Path_33680" data-name="Path 33680" class="cls-9" d="M128.9 143.6v4.217h81.293v14.291H128.9v4.217h83.168V143.6z" transform="translate(-128.9 -143.6)"/><path id="Path_33681" data-name="Path 33681" class="cls-6" d="M164.4 166.325h54.352a6.9 6.9 0 0 0 7.028-7.028v-8.668a6.9 6.9 0 0 0-7.028-7.028H164.4z" transform="translate(-81.232 -143.6)"/><path id="Rectangle_71" data-name="Rectangle 71" class="cls-2" transform="translate(83.168 4.217)" d="M0 0h56.46v14.056H0z"/><path id="Rectangle_72" data-name="Rectangle 72" class="cls-9" transform="translate(83.168 4.217)" d="M0 0h56.46v3.28H0z"/><path id="Rectangle_73" data-name="Rectangle 73" class="cls-4" transform="translate(4.451 4.217)" d="M0 0h83.402v14.056H0z"/><path id="Rectangle_74" data-name="Rectangle 74" class="cls-2" transform="translate(4.451 4.217)" d="M0 0h83.402v3.28H0z"/></g><g id="Group_6329" data-name="Group 6329" transform="translate(26.239 57.866)"><path id="Path_33682" data-name="Path 33682" class="cls-9" d="M140.1 168.3v4.451h81.059v18.039H140.1v4.451h83.168V168.3z" transform="translate(-140.1 -168.3)"/><path id="Path_33683" data-name="Path 33683" class="cls-6" d="M175.6 195.107h54.352a6.9 6.9 0 0 0 7.028-7.028v-12.651a6.9 6.9 0 0 0-7.028-7.028H175.6z" transform="translate(-92.432 -168.166)"/><path id="Rectangle_75" data-name="Rectangle 75" class="cls-2" transform="translate(83.168 4.451)" d="M0 0h56.46v18.039H0z"/><path id="Rectangle_76" data-name="Rectangle 76" class="cls-9" transform="translate(83.168 4.451)" d="M0 0h56.46v3.28H0z"/><path id="Rectangle_77" data-name="Rectangle 77" class="cls-4" transform="translate(4.217 4.451)" d="M0 0h83.402v18.039H0z"/><path id="Rectangle_78" data-name="Rectangle 78" class="cls-2" transform="translate(4.217 4.451)" d="M0 0h83.402v3.28H0z"/></g></g><path id="Path_33684" data-name="Path 33684" d="M199.553 115.9L111.7 203.753V281.3l165.632-165.4z" transform="translate(-79.136 -100.204)" fill="url(#linear-gradient)" opacity=".51"/><path id="Path_33685" data-name="Path 33685" d="M122.2 281.3h48.261l165.4-165.4H287.6z" transform="translate(-65.037 -100.204)" fill="url(#linear-gradient-2)" opacity=".51"/><path id="Path_33686" data-name="Path 33686" d="M238.661 231.885l31.159-30.924V152.7l-79.42 79.185z" transform="translate(26.539 -50.79)" opacity=".51" fill="#fff"/></g><g id="Group_6333" data-name="Group 6333" transform="translate(144.782 141.281)"><path id="Path_33687" data-name="Path 33687" class="cls-13" d="M141.922 184.252l-14.057-99.1L89.913 80 70 183.55z" transform="translate(-50.789 -32.442)"/><path id="Path_33688" data-name="Path 33688" class="cls-13" d="M89.352 191.891v11.245a22.648 22.648 0 0 1-.937 6.794l-.937 3.514a4.5 4.5 0 0 0 4.217 5.623h23.9c.469 0 1.171-.469 1.171-.937.234-3.28-9.137-5.388-16.165-8.2-5.388-2.108-5.154-11.714-4.451-17.571a3.448 3.448 0 0 0-3.748-3.748 3.315 3.315 0 0 0-3.05 3.28z" transform="translate(-27.504 113.369)"/><path id="Path_33689" data-name="Path 33689" class="cls-13" d="M70.488 190.161l-3.748 12.885c-.234.469-.469 1.171-.7 1.64l-2.811 3.983A4.694 4.694 0 0 0 65.8 215.7s5.388 1.874 11.245 3.748 13.119.234 13.119-1.171c0-3.514-3.28-.7-8.434-4.217a41.422 41.422 0 0 1-5.154-3.748c-4.686-3.514-.469-12.651 2.108-17.8a2.988 2.988 0 0 0-2.108-4.451l-1.406-.234a3.489 3.489 0 0 0-4.682 2.334z" transform="translate(-60.883 112.054)"/><path id="Path_33690" data-name="Path 33690" class="cls-6" d="M82.6 126.914l42.17-3.514s4.217 30.69-6.325 86.213c-4.92 26-15.462 75.905-15.462 75.905a11.645 11.645 0 0 1-7.965.7s-.7-22.022-1.171-45.684c-.469-22.725-.7-46.855-2.108-54.82-2.814-16.162-9.139-58.8-9.139-58.8z" transform="translate(-33.871 25.833)"/><path id="Path_33691" data-name="Path 33691" class="cls-14" d="M104.388 187.786c10.542-40.53-3.28-61.146-3.28-61.146L82.6 125s6.091 42.638 9.137 58.8c.937 4.92 1.171 16.165 1.64 29.519.234 7.734 7.731-12.414 11.011-25.533z" transform="translate(-33.871 27.982)"/><path id="Path_33692" data-name="Path 33692" class="cls-6" d="M115.135 131.1c4.451 23.428 14.056 58.335-4.686 91.133s-38.421 67-38.421 67A11.056 11.056 0 0 1 65 286.9s3.28-14.759 7.965-32.33c5.388-19.913 12.417-43.341 10.308-55.523-3.748-22.725-7.965-53.18-6.56-67.94 1.406-14.996 36.079-12.419 38.422-.007z" transform="translate(-57.503 22.346)"/><path id="Path_33693" data-name="Path 33693" class="cls-4" d="M143.649 181.675l-15.462-96.521L90.234 80 69.852 181.91a3.648 3.648 0 0 0 2.811 4.217A235.183 235.183 0 0 0 116 190.344c14.291 0 22.256-2.811 26-4.451a4.161 4.161 0 0 0 1.649-4.218z" transform="translate(-51.11 -32.442)"/><path id="Path_33694" data-name="Path 33694" class="cls-13" d="M75.551 150.008c-.469-2.577-.937-5.154-1.171-6.091a13.441 13.441 0 0 1-.937-1.64c-.469-.937-1.406-2.108-1.406-3.046v-4.217c0-2.108-.937-3.514-3.046-3.514-2.343 0-3.28 1.874-3.046 4.217v3.046c.234 1.874-.469 3.514-.937 5.154-1.171 3.514-.234 7.5.937 10.777.7 2.108 3.28 3.28 6.794 4.685 1.64.7 4.685 1.406 3.514-.7-.937-1.64-6.091-4.217-4.451-9.84 0-.234.234-.937.7-.937.937 0 1.171 2.343 1.64 3.28a3.069 3.069 0 0 0 2.343 2.108c.472-.471-.466-1.642-.934-3.282z" transform="translate(-58.215 36.709)"/><path id="Path_33695" data-name="Path 33695" class="cls-9" d="M104.736 85.688a55.147 55.147 0 0 1-3.748 20.382c-4.686 12.885-11.714 37.015-7.5 58.334 5.857 30.69 13.588 43.107 3.748 50.135-9.84 7.263-29.05-4.685-29.519-8.668s3.748-52.712 8.434-74.031c4.923-21.084 18.277-51.54 18.277-51.54l5.623.7a4.555 4.555 0 0 1 4.685 4.686z" transform="translate(-53.898 -32.039)"/><path id="Path_33696" data-name="Path 33696" class="cls-15" d="M81.566 139.037c3.748-9.137 7.731-20.616 11.011-29.519 2.343-6.56 2.577-12.182 2.577-19.211L90 80s-12.885 30.924-17.8 52.009c-4.925 21.319 4.446 18.976 9.366 7.028z" transform="translate(-49.705 -32.442)"/><path id="Path_33697" data-name="Path 33697" class="cls-9" d="M94.833 82.621S61.8 127.133 61.8 152.2c0 14.994 5.623 45.684 6.794 52.712a1.988 1.988 0 0 0 1.874 1.64h1.874a6.486 6.486 0 0 0 2.108-.234 2.549 2.549 0 0 0 2.108-2.577c-.234-9.371-.7-46.152 1.64-53.649 2.811-8.434 30.456-48.729 30.924-57.632.704-8.667-6.09-16.867-14.289-9.839z" transform="translate(-61.8 -32.486)"/><path id="Path_33698" data-name="Path 33698" class="cls-9" d="M90.3 81.6s6.56 14.291 4.217 34.673-7.731 82.933 11.011 92.3c5.857 3.046 19.445-10.308 19.445-15.228s-4.451-21.319-8.668-36.313-14.525-74.031-14.525-74.031z" transform="translate(-23.532 -30.294)"/><path id="Path_33699" data-name="Path 33699" class="cls-15" d="M116.636 126.573c-.469-1.64-.937-3.514-1.406-5.154-.937-2.811-1.874-7.5-3.28-13.119-6.794 3.28-13.588 6.325-20.148 9.605a66.4 66.4 0 0 0-.7 10.074 465.802 465.802 0 0 0 25.534-1.406z" transform="translate(-22.457 5.558)"/><path id="Path_33700" data-name="Path 33700" class="cls-13" d="M146.575 107.982c-1.171-3.983-7.965-2.343-15.462 0-4.451 1.406-27.644 10.308-34.907 13.119-1.171.469-1.64 0-2.811.234-1.64.469-7.263 2.108-6.56 9.84.234 2.108 1.171 2.343 2.108 4.217.7 1.406 2.343 2.108 3.28 2.577 1.406.469 1.874 2.343 2.577 2.108 1.64-.469 1.64-5.154 1.406-6.794 0-.937-.7-5.154-.7-5.154a1.754 1.754 0 0 1 1.64-1.406c6.325-1.171 33.736-5.857 38.187-7.263 7.493-2.342 12.413-7.496 11.242-11.478z" transform="translate(-28.266 1.893)"/><g id="Group_6332" data-name="Group 6332" transform="translate(38.853)"><path id="Path_33701" data-name="Path 33701" class="cls-6" d="M82.4 64.066s.7 5.623-2.811 9.84 1.64 8.2 2.811 11.011-.234 7.028 3.046 9.137c3.28 1.874 12.651 2.343 14.057-.937 1.408-3.517-6.557-31.16-17.103-29.051z" transform="translate(-78.384 -53.992)"/><path id="Path_33702" data-name="Path 33702" class="cls-6" d="M117.818 77.271c.469 18.742-16.868 22.256-27.176 22.256-10.074 0-10.542-22.49-10.542-30.456 0-8.2 7.965-9.371 18.039-9.371 7.965 0 15.462 6.091 18.742 12.182.937 1.406.703 3.749.937 5.389z" transform="translate(-76.081 -59.7)"/><path id="Path_33703" data-name="Path 33703" class="cls-13" d="M94.714 62.8C86.28 62.8 83 68.891 83 80.136c0 4.217 1.874 8.434 3.28 11.011a7.935 7.935 0 0 1 .7 6.56l-1.64 6.091c-1.171 5.857 1.406 9.137 5.623 10.308a8.538 8.538 0 0 0 6.325-.937c2.108-1.406 2.343-4.217 1.874-6.794L98.7 104.5a4.544 4.544 0 0 1 3.28-5.623c6.56-1.406 7.5-8.2 9.137-18.742 1.636-11.244-7.735-17.335-16.403-17.335z" transform="translate(-72.187 -55.537)"/><path id="Path_33704" data-name="Path 33704" class="cls-6" d="M116.182 61.506l-4.92 1.406a10.493 10.493 0 0 1-5.388 0L96.269 60.1c-5.857 0-15.7 3.28-14.291 11.714l1.171 6.086a5.484 5.484 0 0 0 4.92 4.451 1.781 1.781 0 0 0 1.874 1.406 2.016 2.016 0 0 0 1.874-1.874 5.773 5.773 0 0 1 4.451-5.623 21.9 21.9 0 0 1 10.308 0c6.794 1.874 13.822-2.343 14.525-9.371v-1.401c-.234-2.577-2.576-4.688-4.919-3.982z" transform="translate(-73.741 -59.163)"/><path id="Path_33705" data-name="Path 33705" class="cls-13" d="M89.3 72.885c0 2.577-.937 4.685-3.514 4.685S81.8 74.057 81.8 71.48s1.64-3.28 3.983-3.28c2.577 0 3.517 2.108 3.517 4.685z" transform="translate(-73.798 -48.287)"/><path id="Path_33706" data-name="Path 33706" class="cls-16" d="M96.048 78.6a1.983 1.983 0 0 1-1.874 2.343 1.848 1.848 0 0 1-1.874-1.872v-8.2c0-.234.234-.7.234-.937.234-.234.469-.234.937-.234s.937.234.937.7z" transform="translate(-59.699 -46.273)"/></g><path id="Path_33707" data-name="Path 33707" class="cls-9" d="M98.265 82.838s5.388-3.28 14.759 5.623c9.371 9.137 29.05 42.638 30.924 52.946s-51.072 17.336-51.072 17.336c-1.64-1.64-2.343-3.983-2.577-7.263 0 0 32.8-12.182 33.5-16.634.7-4.217-24.6-29.753-26.473-33.5-3.746-6.325-5.152-13.588.939-18.508z" transform="translate(-23.532 -29.424)"/><path id="Path_33708" data-name="Path 33708" class="cls-13" d="M91.621 113.2s-6.325 5.857-6.56 6.325c-.469 1.171.7 2.108 1.406 1.171 1.171-1.171 4.451-2.811 5.623-.937z" transform="translate(-30.71 12.137)"/></g><circle id="Ellipse_38" data-name="Ellipse 38" class="cls-17" cx="17.336" cy="17.336" r="17.336" transform="rotate(-80.758 227.616 -228.136)"/><circle id="Ellipse_39" data-name="Ellipse 39" class="cls-17" cx="29.753" cy="29.753" r="29.753" transform="translate(0 151.824)"/><path id="Path_33709" data-name="Path 33709" d="M42.853 55.377A10.777 10.777 0 1 1 32.077 44.6a10.9 10.9 0 0 1 10.776 10.777z" transform="translate(28.601 61.306)" opacity=".059" fill="#b0b0ff"/><g id="Group_6334" data-name="Group 6334" transform="translate(135.177 415.613)"><path id="Path_33710" data-name="Path 33710" class="cls-13" d="M222.136 224.146c-2.577.937-5.388 1.874-7.5 3.748a5.321 5.321 0 0 1-3.748 1.406h-3.28a2.707 2.707 0 0 0-2.811 2.811 2.965 2.965 0 0 0 3.28 2.811 24.749 24.749 0 0 0 4.451-1.406 3.25 3.25 0 0 1 2.108 0c3.514 1.171 6.794-1.406 6.794-1.406a12.681 12.681 0 0 0 3.748-1.406c.7-.469 1.64-.469 1.874-.937 0-.469-.937-1.171-1.874-.937-1.64.234-3.983.937-4.451.234-.7-.937 1.406-1.64 3.748-2.343s5.388 1.64 7.028-.7c.239-.938-6.79-2.812-9.367-1.875z" transform="translate(139.819 -113.565)"/><path id="Path_33711" data-name="Path 33711" class="cls-5" d="M248.733 213.634a2.39 2.39 0 0 0-2.811 1.406l-12.417 37.015a3.372 3.372 0 0 0 .937 3.514l2.811 2.343 14.994-43.341z" transform="translate(178.116 -127.417)"/><path id="Path_33712" data-name="Path 33712" class="cls-9" d="M240.21 253.362a18.466 18.466 0 0 0-3.514-18.273 22.327 22.327 0 0 1-5.857-14.994 21.892 21.892 0 0 0-14.525-19.913c-4.451-1.64-17.571-5.857-17.571-5.857s6.56-4.451.469-4.92c-4.92-.234-14.525 4.451-15.7 15.462a23.164 23.164 0 0 1-3.983 10.308 19.2 19.2 0 0 0-2.811 7.5 17.778 17.778 0 0 0 9.371 18.508c.234.234.7.234.937.469a18.451 18.451 0 0 1 9.374 22.018c-1.171 3.983-1.406 7.965.469 11.245a18.126 18.126 0 0 0 21.085 7.028 18.528 18.528 0 0 0 11.479-12.885 14.555 14.555 0 0 1 4.686-7.965 14.446 14.446 0 0 0 6.091-7.731z" transform="translate(101.831 -159.882)"/><path id="Path_33713" data-name="Path 33713" class="cls-14" d="M181.814 225.721a25.883 25.883 0 0 1 1.171-13.354c1.171-2.811 2.811-5.388 5.388-5.857 5.154-.937 18.742 33.267 21.319 40.53a2.594 2.594 0 0 0 2.108 1.64l28.347 3.046a9.2 9.2 0 0 1 .7 6.56l-32.33 5.154a7.734 7.734 0 0 1-7.028-2.343c-5.853-6.091-17.098-19.913-19.675-35.376z" transform="translate(108.453 -136.927)"/><path id="Path_33714" data-name="Path 33714" class="cls-5" d="M494.389 238.486H60.043a2.348 2.348 0 0 1-2.343-2.343 2.348 2.348 0 0 1 2.343-2.343h434.346a2.348 2.348 0 0 1 2.343 2.343 2.348 2.348 0 0 1-2.343 2.343z" transform="translate(-57.7 -100.259)"/><path id="Path_33715" data-name="Path 33715" class="cls-13" d="M110.106 237.03a3.561 3.561 0 0 0-3.28-3.514c-3.748-.234-9.605-1.171-13.822-3.748-6.56-3.748-8.2-2.577-13.119 2.343s-11.948 5.154-16.165 5.857c-4.217.469-5.857 3.983.7 3.983 6.091.234 26.942-3.28 41.7-1.171 2.108.469 3.983-1.406 3.983-3.748z" transform="translate(-54.582 -108.644)"/><path id="Path_33716" data-name="Path 33716" class="cls-13" d="M121.294 214.52a3.192 3.192 0 0 0 0-3.514c-1.874-3.046-5.154-9.137-5.623-14.525-.7-7.5-2.577-8.2-9.371-9.371s-10.074-5.388-12.885-8.434-6.56-2.577-2.811 2.811c3.28 4.92 17.571 19.679 24.833 33.033a3.618 3.618 0 0 0 5.857 0z" transform="translate(-15.636 -176.798)"/><path id="Path_33717" data-name="Path 33717" class="cls-9" d="M210.591 206.926c-5.154 14.291-18.273 13.354-26.239 10.308-7.965-2.811-3.28-14.525-.937-20.616 2.108-6.091 10.308-8.9 18.273-6.091 7.966 3.046 11.246 10.308 8.903 16.399z" transform="translate(106.383 -159.833)"/><path id="Path_33718" data-name="Path 33718" class="cls-9" d="M99.3 193.563a7.458 7.458 0 0 1 7.263-3.748s33.267 49.9 40.764 56.46c7.263 6.56 74.265 2.811 74.265 2.811l1.171 36.547s-71.22 1.406-89.493-17.571-33.97-74.499-33.97-74.499z" transform="translate(-1.842 -159.355)"/><path id="Path_33719" data-name="Path 33719" class="cls-15" d="M207.8 215.1s-15.462.937-32.33.937c-1.171.469-26.239 12.885-39.827 13.354-20.148.7-26.239-9.84-26.239-9.84 3.28 5.623 6.56 10.777 10.074 14.525 18.273 18.976 89.493 17.571 89.493 17.571z" transform="translate(11.72 -125.369)"/><path id="Path_33720" data-name="Path 33720" class="cls-9" d="M278.035 256.015l-5.388-34.438s-11.245-13.588-40.3-4.92c-29.05 8.434-47.558 18.976-61.614 20.382S79.6 251.1 79.6 251.1a10.425 10.425 0 0 0 0 9.137l154.622.937c.004-.239 29.054-.239 43.813-5.159z" transform="translate(-29.704 -127.16)"/><path id="Path_33721" data-name="Path 33721" class="cls-6" d="M232.435 207.676l-.469-.234a24.229 24.229 0 0 0-26.473 2.343 2.824 2.824 0 0 0-1.171 1.171l-11.011 10.074a13.712 13.712 0 0 1-6.325 3.28 14.173 14.173 0 0 0-4.92 1.874h-.234c-4.686 2.577-7.028-2.577-9.137 0s-15.931-1.64-15.931-1.64-13.354 0-6.56 18.508c6.794 18.742 19.679 29.987 28.582 29.987 4.92 0 13.354-3.983 20.148-7.5l2.108-1.406a31.506 31.506 0 0 1 7.263-3.983l2.108-.7a15.515 15.515 0 0 1 10.777.234c4.685 1.64 11.714 2.343 14.291-6.794l2.811-34.907c.234-3.283-3.046-9.37-5.857-10.307z" transform="translate(63.923 -139.498)"/><path id="Path_33722" data-name="Path 33722" class="cls-14" d="M213.7 207.542c-2.577.937-6.325 5.388-9.137 9.371a48.859 48.859 0 0 0-6.091 11.479c-5.154 12.885-14.056 24.6-26.239 31.393a33.314 33.314 0 0 1-16.633 4.685c4.685 3.983 9.371 6.325 13.354 6.325 4.92 0 13.354-3.983 20.148-7.5l2.108-1.406a31.5 31.5 0 0 1 7.263-3.983l2.108-.7a15.515 15.515 0 0 1 10.777.234c4.685 1.64 11.714 2.343 14.291-6.794l2.811-34.907c0-2.108-1.406-5.623-3.28-7.965-3.98-1.874-6.794-2.107-11.48-.232z" transform="translate(73.755 -137.255)"/><path id="Path_33723" data-name="Path 33723" class="cls-13" d="M202.788 192.29c-7.5-2.811-12.417 1.406-16.165 11.245a21.715 21.715 0 0 0-.7 10.777 9.424 9.424 0 0 1-1.406 6.091l-3.748 4.92c-3.046 4.686-1.64 8.434 1.64 11.011a7.5 7.5 0 0 0 5.857 1.171c2.343-.469 3.514-3.046 3.983-5.388l.234-1.64a4.075 4.075 0 0 1 4.685-3.748c1.874.234 3.514 1.171 4.92.937 1.64-.469 7.965-8.2 10.074-18.273 1.871-10.778-2.112-14.293-9.374-17.103z" transform="translate(105.284 -157.145)"/><path id="Path_33724" data-name="Path 33724" class="cls-16" d="M192.319 207.968a1.875 1.875 0 0 1-2.577 1.406 1.711 1.711 0 0 1-.937-2.343l3.046-7.263c0-.234.234-.469.7-.469h.937c.469.234.7.469.469.937z" transform="translate(118.095 -146.584)"/><path id="Path_33725" data-name="Path 33725" class="cls-9" d="M215.981 195.1a7.943 7.943 0 0 0-4.92-1.406c-3.983.234-7.965.234-11.948-1.171l-.469-.234a18.75 18.75 0 0 0-12.885.234 5.672 5.672 0 0 0-3.046 7.731l2.577 5.388c.469.7 1.406.7 1.64 0l.937-2.343a2.545 2.545 0 0 1 2.811-1.64l1.171.234a8.6 8.6 0 0 0 4.217-.234 8.569 8.569 0 0 1 5.857.7 8.34 8.34 0 0 1 3.28 3.046 8.047 8.047 0 0 0 3.748 3.046 7.538 7.538 0 0 0 10.074-6.325 6.818 6.818 0 0 0-3.044-7.026z" transform="translate(109.427 -157.378)"/><path id="Path_33726" data-name="Path 33726" class="cls-13" d="M186.927 200.989c-.937 2.343-2.108 5.154-3.983 4.451-2.108-.7-2.343-5.623-1.64-7.965s2.343-2.343 4.451-1.64c1.875.702 2.109 2.811 1.172 5.154z" transform="translate(107.791 -151.787)"/><path id="Path_33727" data-name="Path 33727" d="M276.009 212.82a3.105 3.105 0 0 0-3.514 2.343l-14.525 41.7a1.557 1.557 0 0 1-1.171.937h-36.782a4.2 4.2 0 0 0-4.217 4.217h45.215a3.044 3.044 0 0 0 2.811-1.874l14.994-42.872a3.97 3.97 0 0 0-2.811-4.451z" transform="translate(154.589 -128.478)" fill="#46738c"/><path id="Path_33728" data-name="Path 33728" class="cls-20" d="M235.423 233.2a.621.621 0 0 1-.7.7H230.5a.7.7 0 1 1 0-1.406h4.217a.748.748 0 0 1 .706.706z" transform="translate(173.387 -102.005)"/><path id="Path_33729" data-name="Path 33729" class="cls-20" d="M229.674 233.337a.937.937 0 1 1-.937-.937 1.008 1.008 0 0 1 .937.937z" transform="translate(170.702 -102.139)"/><path id="Path_33730" data-name="Path 33730" class="cls-20" d="M228.174 233.337a.937.937 0 1 1-.937-.937 1.008 1.008 0 0 1 .937.937z" transform="translate(168.688 -102.139)"/><path id="Path_33731" data-name="Path 33731" class="cls-20" d="M252.573 232.571H217.9a1.107 1.107 0 0 1 1.171-1.171H251.4a1.107 1.107 0 0 1 1.173 1.171z" transform="translate(157.409 -103.482)"/><path id="Path_33732" data-name="Path 33732" class="cls-13" d="M227.757 230.384a23.635 23.635 0 0 0-3.514 1.64 9.811 9.811 0 0 1-5.857 1.171 55.1 55.1 0 0 0-6.56-.234 3 3 0 0 0-2.811 2.577 2.767 2.767 0 0 0 2.811 3.046c2.343 0 4.451-.234 5.857-.234h1.874a11.407 11.407 0 0 1 2.811.234c1.64.234 3.983-1.406 4.92-3.28.7-1.64.937-1.171 2.577-1.874 1.874-.7 7.028.234 7.028-.937 0-.938-6.793-3.28-9.136-2.109z" transform="translate(145.443 -105.277)"/><path id="Path_33733" data-name="Path 33733" class="cls-6" d="M176.1 209.472c1.874-3.28 7.965-7.263 15.228 1.64 9.84 11.948 27.176 45.449 32.33 45.918s38.655 8.2 38.655 8.2a7.843 7.843 0 0 1 0 6.091h-46.39c-8.2.234-48.495-46.387-39.823-61.849z" transform="translate(99.646 -138.014)"/></g></g></svg>