<svg xmlns="http://www.w3.org/2000/svg" viewBox="0 0 306.565 306.071"><defs><style>.cls-1{fill:#0db6d6}.cls-2{fill:#fff}.cls-3{fill:#3b3e54}.cls-4{fill:#ff9f9c}</style></defs><g id="Group_572" data-name="Group 572" transform="translate(-160.713 -218.386)"><g id="Group_571" data-name="Group 571" transform="translate(153.594 218.386)"><path id="Path_1182" data-name="Path 1182" class="cls-1" d="M91.748 117.057a5.833 5.833 0 0 0-3.59-3.077 15.09 15.09 0 0 0-10.6.171c-1.881.513-3.59 1.368-5.471 1.539a6.4 6.4 0 0 1-5.3-1.2c-1.368-1.2-1.881-3.761-.513-5.129a6.075 6.075 0 0 1 3.42-1.361 32.7 32.7 0 0 0 12.822-5.984 9.562 9.562 0 0 0 3.419-3.932 11.8 11.8 0 0 0 .684-4.274 18.493 18.493 0 0 0-.855-6.155 7.808 7.808 0 0 0-4.274-4.445c-2.906-1.026-5.984.513-8.035 2.735s-3.077 5.129-4.445 7.864a10.194 10.194 0 0 1-2.735 3.761 5.081 5.081 0 0 1-7.351-2.052c-.855-1.881-.342-4.274.342-6.326 1.026-3.248 2.564-6.326 3.419-9.574a15.683 15.683 0 0 0 .171-10.087 13 13 0 0 0-8.89-7.693 15.557 15.557 0 0 0-11.626 2.223c-3.933 2.561-6.84 7.861-4.959 12.139 1.026 2.394 3.248 3.761 5.471 5.3s4.274 3.077 5.3 5.471.171 5.642-2.394 6.326c-2.052.513-4.1-.855-5.642-2.394a12.618 12.618 0 0 0-5.129-3.59c-1.368-.513-5.129-.513-7.181 1.71-2.394 2.906-3.419 7.01-1.2 10.087s5.984 4.616 9.745 5.129c2.564.342 5.129.342 7.522.855a9.133 9.133 0 0 1 6.155 4.1c1.2 2.223.513 5.471-1.71 6.5a5.445 5.445 0 0 1-4.616-.342c-1.539-.684-2.735-1.71-4.274-2.394a11.388 11.388 0 0 0-8.206-.513 7.748 7.748 0 0 0-3.248 1.881 7.692 7.692 0 0 0-.684 9.061 12.621 12.621 0 0 0 7.864 5.3c2.564.513 5.129.513 7.693.855a15.434 15.434 0 0 1 7.353 2.218 6.8 6.8 0 0 1 2.735 3.761c.342 1.026-.342 2.052-.171 3.077.684 2.906 3.932 2.394 5.129 0a15.01 15.01 0 0 0 1.2-3.932c.684-2.735 2.052-5.642 4.616-6.668a12.49 12.49 0 0 1 5.642-.342c4.1.513 8.206 1.026 12.138.513 4.1-.684 8.035-2.564 10.087-6.155.343-1.538.856-3.414.172-4.957z" transform="translate(18.011 43.65)"/><circle id="Ellipse_32" data-name="Ellipse 32" class="cls-2" cx="13.677" cy="13.677" r="13.677" transform="rotate(-19.475 358.27 -243.034)"/><circle id="Ellipse_33" data-name="Ellipse 33" class="cls-2" cx="13.677" cy="13.677" r="13.677" transform="rotate(-41.583 135.077 -90.308)"/><g id="Group_561" data-name="Group 561" transform="translate(7.119 41.141)"><path id="Path_1183" data-name="Path 1183" class="cls-2" d="M20.082 29.891V30.9a5.075 5.075 0 0 1-.379 1.9 15.428 15.428 0 0 1-.885 2.15 10.468 10.468 0 0 1-1.391 1.9A11.681 11.681 0 0 1 14.644 39a9.354 9.354 0 0 1-4.553 1.138A9.013 9.013 0 0 1 5.538 39a9.145 9.145 0 0 1-2.782-2.15 10.468 10.468 0 0 1-1.391-1.9 10.941 10.941 0 0 1-.886-2.15L.1 30.9v-2.15l.379-1.9a8.257 8.257 0 0 1 1.012-2.15 5.6 5.6 0 0 1 1.518-1.9 9.931 9.931 0 0 1 2.909-2.024 9.163 9.163 0 0 1 4.174-.885 11.181 11.181 0 0 1 4.174.885 10.2 10.2 0 0 1 3.035 2.15 7.7 7.7 0 0 1 1.518 1.9 11.211 11.211 0 0 1 1.012 2.15 5.075 5.075 0 0 1 .379 1.9 2.465 2.465 0 0 0-.128 1.015z" transform="translate(.026 -19.9)"/><path id="Path_1184" data-name="Path 1184" class="cls-3" d="M16.591 22.75H2.3a10.2 10.2 0 0 1 3.035-2.15h8.347a8.316 8.316 0 0 1 2.909 2.15z" transform="translate(.609 -19.715)"/><path id="Path_1185" data-name="Path 1185" class="cls-3" d="M19.624 25.85H.4a8.257 8.257 0 0 1 1.012-2.15h17.326c.253.759.633 1.391.886 2.15z" transform="translate(.106 -18.894)"/><path id="Path_1186" data-name="Path 1186" class="cls-3" d="M20.109 28.038v1.012H0V26.9h19.982a3.5 3.5 0 0 1 .127 1.138z" transform="translate(0 -18.047)"/><path id="Path_1187" data-name="Path 1187" class="cls-3" d="M19.65 30.1a15.428 15.428 0 0 1-.885 2.15H1.185A10.941 10.941 0 0 1 .3 30.1z" transform="translate(.079 -17.2)"/><path id="Path_1188" data-name="Path 1188" class="cls-3" d="M16.9 33.3a11.681 11.681 0 0 1-2.782 2.15H4.882A9.145 9.145 0 0 1 2.1 33.3z" transform="translate(.556 -16.353)"/></g><g id="Group_562" data-name="Group 562" transform="translate(275.979 268.072)"><path id="Path_1189" data-name="Path 1189" class="cls-2" d="M197.1 167.893c.236.472.472 1.18.708 1.652a19.659 19.659 0 0 1 .944 3.54 25.652 25.652 0 0 1 .236 4.248 27.443 27.443 0 0 1-.944 4.248 16.482 16.482 0 0 1-3.068 5.664 15.651 15.651 0 0 1-6.845 5.428 16.1 16.1 0 0 1-8.733 1.652 15.578 15.578 0 0 1-6.373-1.416 11.97 11.97 0 0 1-3.776-2.124 17.49 17.49 0 0 1-3.068-2.832l-2.124-2.832a13.546 13.546 0 0 0-.944-1.652 16.249 16.249 0 0 0-.708-1.888 9.471 9.471 0 0 1-.708-3.54 12.832 12.832 0 0 1 0-4.248 30.349 30.349 0 0 1 .944-4.484 18.126 18.126 0 0 1 3.3-5.9 16.643 16.643 0 0 1 6.372-4.956 18.512 18.512 0 0 1 7.789-1.652 20.476 20.476 0 0 1 6.609 1.18 13.12 13.12 0 0 1 4.012 2.124 12.422 12.422 0 0 1 3.3 2.832 22.142 22.142 0 0 1 2.124 2.832 9.25 9.25 0 0 0 .953 2.124z" transform="translate(-161.289 -156.8)"/><path id="Path_1190" data-name="Path 1190" class="cls-3" d="M186.21 158.18l-24.31 11.329a18.126 18.126 0 0 1 3.3-5.9L179.365 157a16.752 16.752 0 0 1 6.845 1.18z" transform="translate(-160.779 -156.528)"/><path id="Path_1191" data-name="Path 1191" class="cls-3" d="M194.173 161L161.6 176.338a12.832 12.832 0 0 1 0-4.248l29.268-13.69a31.733 31.733 0 0 1 3.305 2.6z" transform="translate(-161.425 -154.624)"/><path id="Path_1192" data-name="Path 1192" class="cls-3" d="M196.731 162.588c.236.472.472 1.18.708 1.652l-33.987 15.813a13.543 13.543 0 0 0-.944-1.652 16.261 16.261 0 0 0-.708-1.888l33.751-15.813a21.8 21.8 0 0 1 1.18 1.888z" transform="translate(-160.915 -151.495)"/><path id="Path_1193" data-name="Path 1193" class="cls-3" d="M196.071 163.7a25.649 25.649 0 0 1 .236 4.248l-29.739 13.925a17.489 17.489 0 0 1-3.068-2.832z" transform="translate(-158.603 -147.415)"/><path id="Path_1194" data-name="Path 1194" class="cls-3" d="M191.418 167.4a16.483 16.483 0 0 1-3.068 5.664l-15.577 7.317a15.577 15.577 0 0 1-6.372-1.416z" transform="translate(-154.658 -142.382)"/></g><g id="Group_563" data-name="Group 563" transform="translate(90.269 68.171)"><path id="Path_1195" data-name="Path 1195" class="cls-2" d="M76.051 43.832a4.533 4.533 0 0 1 .855 1.026 25.011 25.011 0 0 1 1.539 2.223 14.79 14.79 0 0 1 1.2 2.906 9.681 9.681 0 0 1 .513 3.077 14.4 14.4 0 0 1-.684 4.616 12.364 12.364 0 0 1-3.419 5.471 14.106 14.106 0 0 1-5.475 3.419 14.4 14.4 0 0 1-4.616.684 9.681 9.681 0 0 1-3.077-.513 20.858 20.858 0 0 1-2.906-1.2 8.692 8.692 0 0 1-2.223-1.539c-.342-.342-.684-.513-1.026-.855a7.436 7.436 0 0 1-1.026-1.2 9.693 9.693 0 0 1-1.368-2.223 20.856 20.856 0 0 1-1.2-2.906 10.521 10.521 0 0 1-.342-3.248 11.339 11.339 0 0 1 .855-4.787 17.024 17.024 0 0 1 3.077-4.958 13.488 13.488 0 0 1 4.958-3.077 15.7 15.7 0 0 1 4.787-.855 20.947 20.947 0 0 1 3.248.342 8.708 8.708 0 0 1 2.906 1.2 15.608 15.608 0 0 1 2.223 1.368 7.436 7.436 0 0 1 1.201 1.029z" transform="translate(-52.8 -39.856)"/><path id="Path_1196" data-name="Path 1196" class="cls-3" d="M66.477 39.918L52.8 53.6a11.339 11.339 0 0 1 .855-4.787l8.035-8.035a9.519 9.519 0 0 1 4.787-.86z" transform="translate(-52.8 -39.875)"/><path id="Path_1197" data-name="Path 1197" class="cls-3" d="M72.49 41.126L54.2 59.59a20.855 20.855 0 0 1-1.2-2.906L69.584 40.1a14.549 14.549 0 0 1 2.906 1.026z" transform="translate(-52.658 -39.715)"/><path id="Path_1198" data-name="Path 1198" class="cls-3" d="M74.845 42.626a4.533 4.533 0 0 1 .855 1.026L56.552 62.8c-.342-.342-.684-.513-1.026-.855a7.435 7.435 0 0 1-1.026-1.2L73.648 41.6a7.436 7.436 0 0 1 1.197 1.026z" transform="translate(-51.594 -38.65)"/><path id="Path_1199" data-name="Path 1199" class="cls-3" d="M75.464 44a14.789 14.789 0 0 1 1.2 2.906L59.906 63.661A20.856 20.856 0 0 1 57 62.464z" transform="translate(-49.819 -36.947)"/><path id="Path_1200" data-name="Path 1200" class="cls-3" d="M74.519 47.5a14.4 14.4 0 0 1-.684 4.616l-8.719 8.719a14.4 14.4 0 0 1-4.616.684z" transform="translate(-47.336 -34.463)"/></g><g id="Group_564" data-name="Group 564" transform="translate(117.453 147.884)"><path id="Path_1201" data-name="Path 1201" class="cls-2" d="M91.951 90.432a4.532 4.532 0 0 1 .855 1.026 25.012 25.012 0 0 1 1.539 2.223 14.789 14.789 0 0 1 1.2 2.906 9.681 9.681 0 0 1 .513 3.077 14.4 14.4 0 0 1-.684 4.616 12.364 12.364 0 0 1-3.419 5.471 14.107 14.107 0 0 1-5.471 3.419 14.4 14.4 0 0 1-4.616.684 9.681 9.681 0 0 1-3.077-.513 20.855 20.855 0 0 1-2.906-1.2 8.691 8.691 0 0 1-2.223-1.539c-.342-.342-.684-.513-1.026-.855a7.436 7.436 0 0 1-1.026-1.2 9.694 9.694 0 0 1-1.368-2.223 20.855 20.855 0 0 1-1.2-2.906 10.521 10.521 0 0 1-.342-3.248 11.339 11.339 0 0 1 .855-4.787 17.024 17.024 0 0 1 3.077-4.958 13.488 13.488 0 0 1 4.958-3.077 15.7 15.7 0 0 1 4.787-.855 20.949 20.949 0 0 1 3.248.342 8.709 8.709 0 0 1 2.906 1.2 15.607 15.607 0 0 1 2.223 1.368 7.438 7.438 0 0 1 1.197 1.029z" transform="translate(-68.7 -86.5)"/><path id="Path_1202" data-name="Path 1202" class="cls-3" d="M82.477 86.5L68.8 100.177a11.339 11.339 0 0 1 .855-4.787l8.035-8.035a10.874 10.874 0 0 1 4.787-.855z" transform="translate(-68.629 -86.5)"/><path id="Path_1203" data-name="Path 1203" class="cls-3" d="M88.561 87.9L70.1 106.19a20.854 20.854 0 0 1-1.2-2.906L85.484 86.7a22.833 22.833 0 0 1 3.077 1.2z" transform="translate(-68.558 -86.358)"/><path id="Path_1204" data-name="Path 1204" class="cls-3" d="M90.745 89.226a4.532 4.532 0 0 1 .855 1.026L72.452 109.4c-.342-.342-.684-.513-1.026-.855a7.435 7.435 0 0 1-1.026-1.2L89.548 88.2a7.436 7.436 0 0 1 1.197 1.026z" transform="translate(-67.494 -85.294)"/><path id="Path_1205" data-name="Path 1205" class="cls-3" d="M91.364 90.6a14.79 14.79 0 0 1 1.2 2.906l-16.758 16.755a20.858 20.858 0 0 1-2.906-1.2z" transform="translate(-65.72 -83.59)"/><path id="Path_1206" data-name="Path 1206" class="cls-3" d="M90.419 94.2a14.4 14.4 0 0 1-.684 4.616l-8.719 8.719a14.4 14.4 0 0 1-4.616.684z" transform="translate(-63.236 -81.036)"/></g><g id="Group_565" data-name="Group 565" transform="translate(254.149 67.797)"><path id="Path_1207" data-name="Path 1207" class="cls-4" d="M150.612 159.748a2.548 2.548 0 0 1-1.881-3.077l29.235-115.059a2.548 2.548 0 0 1 3.077-1.881 2.548 2.548 0 0 1 1.881 3.077l-29.235 115.06a2.427 2.427 0 0 1-3.077 1.88z" transform="translate(-148.656 -39.656)"/><path id="Path_1208" data-name="Path 1208" class="cls-4" d="M162.381 48.026a6.178 6.178 0 1 1 4.445 7.522 6.248 6.248 0 0 1-4.445-7.522z" transform="translate(-139.054 -37.009)"/><path id="Path_1209" data-name="Path 1209" class="cls-4" d="M158.307 56.84a9.7 9.7 0 1 1 7.01 11.8 9.908 9.908 0 0 1-7.01-11.8z" transform="translate(-141.99 -32.658)"/><path id="Path_1210" data-name="Path 1210" class="cls-4" d="M155.807 66.54a9.7 9.7 0 1 1 7.01 11.8 9.769 9.769 0 0 1-7.01-11.8z" transform="translate(-143.764 -25.775)"/></g><path id="Path_1211" data-name="Path 1211" d="M166.038 76.592L159.028 0H118.51l-7.01 76.592h9.574v30.6a2.571 2.571 0 0 0-1.71 2.394 2.564 2.564 0 0 0 5.129 0 2.571 2.571 0 0 0-1.71-2.394v-30.6h11.968v85.824h7.693V76.592z" transform="translate(79.125)" fill="#ffb863"/><path id="Rectangle_20" data-name="Rectangle 20" class="cls-4" transform="translate(59.496 196.267)" d="M0 0h186.351v84.115H0z"/><path id="Path_1212" data-name="Path 1212" class="cls-1" d="M155.764 18.8l-5.813 2.223a3.508 3.508 0 0 0-1.026 5.984 3.627 3.627 0 0 0 5.813-2.223z" transform="translate(104.786 13.341)"/><path id="Path_1213" data-name="Path 1213" class="cls-1" d="M154.277 34.9l-3.077 5.3a3.526 3.526 0 0 0 3.077 5.3 3.526 3.526 0 0 0 3.077-5.3z" transform="translate(106.957 24.767)"/><path id="Path_1214" data-name="Path 1214" class="cls-1" d="M162.945 18.732v-6.155a3.526 3.526 0 0 0-5.3-3.077 3.535 3.535 0 0 0 0 6.155z" transform="translate(110.598 6.4)"/><path id="Path_1215" data-name="Path 1215" class="cls-1" d="M151.845 68.532v-6.155a3.526 3.526 0 0 0-5.3-3.077 3.535 3.535 0 0 0 0 6.155z" transform="translate(102.721 41.74)"/><path id="Path_1216" data-name="Path 1216" class="cls-1" d="M167.6 24.309l5.984-1.2a3.575 3.575 0 0 0 2.052-5.813 3.524 3.524 0 0 0-5.984 1.2z" transform="translate(118.936 11.422)"/><g id="Group_567" data-name="Group 567" transform="translate(154.723 107.708)"><g id="Group_566" data-name="Group 566" transform="translate(0 1.026)"><path id="Path_1217" data-name="Path 1217" class="cls-1" d="M141.96 136.054H90.5V93.483A21.816 21.816 0 0 1 112.383 71.6h7.693a21.816 21.816 0 0 1 21.884 21.883z" transform="translate(-90.5 -57.923)"/><path id="Rectangle_21" data-name="Rectangle 21" class="cls-1" transform="translate(16.925)" d="M0 0h17.609v50.264H0z"/></g><path id="Path_1218" data-name="Path 1218" class="cls-3" d="M120.358 72.916H99.5v-7.522A2.337 2.337 0 0 1 101.894 63h16.242a2.337 2.337 0 0 1 2.394 2.394v7.522z" transform="translate(-84.113 -63)"/><path id="Rectangle_22" data-name="Rectangle 22" class="cls-2" transform="translate(10.087 39.493)" d="M0 0h33.68v31.116H0z"/><path id="Rectangle_23" data-name="Rectangle 23" class="cls-3" transform="translate(10.087 39.493)" d="M0 0h33.68v3.59H0z"/><path id="Rectangle_24" data-name="Rectangle 24" class="cls-3" transform="translate(10.087 46.331)" d="M0 0h33.68v3.59H0z"/><path id="Rectangle_25" data-name="Rectangle 25" class="cls-3" transform="translate(10.087 53.17)" d="M0 0h33.68v3.59H0z"/><path id="Rectangle_26" data-name="Rectangle 26" class="cls-3" transform="translate(10.087 60.179)" d="M0 0h33.68v3.59H0z"/><path id="Rectangle_27" data-name="Rectangle 27" class="cls-3" transform="translate(10.087 67.018)" d="M0 0h33.68v3.59H0z"/></g><path id="Path_1219" data-name="Path 1219" class="cls-3" d="M97.593 39.3l1.539 6.326 6.326 1.539-6.326 1.368-1.539 6.326-1.368-6.326-6.325-1.369 6.326-1.539z" transform="translate(63.797 27.889)"/><path id="Path_1220" data-name="Path 1220" class="cls-3" d="M91.316 26.9l.855 3.932 3.761.855-3.761.855-.855 3.758-.855-3.761-3.761-.852 3.761-.855z" transform="translate(61.526 19.089)"/><path id="Path_1221" data-name="Path 1221" class="cls-3" d="M168.816 122l.855 3.761 3.761.855-3.761.855-.855 3.761-.855-3.761-3.761-.855 3.761-.855z" transform="translate(116.524 86.577)"/><path id="Path_1222" data-name="Path 1222" class="cls-3" d="M16.793 88.5l1.539 6.326 6.326 1.368-6.326 1.368-1.539 6.326-1.368-6.326L9.1 96.193l6.326-1.368z" transform="translate(6.458 62.804)"/><g id="Group_568" data-name="Group 568" transform="translate(192.677 121.898)"><path id="Rectangle_28" data-name="Rectangle 28" class="cls-2" transform="translate(2.223 13.677)" d="M0 0h66.676v56.931H0z"/><path id="Rectangle_29" data-name="Rectangle 29" transform="translate(2.223 13.677)" fill="#ffcd91" d="M0 0h66.676v15.558H0z"/><path id="Rectangle_30" data-name="Rectangle 30" class="cls-2" transform="translate(0 13.677)" d="M0 0h71.121v11.626H0z"/><path id="Rectangle_31" data-name="Rectangle 31" class="cls-4" transform="translate(29.748 9.745)" d="M0 0h11.797v62.402H0z"/><path id="Path_1223" data-name="Path 1223" class="cls-4" d="M154.464 82.926H136V76.6l18.464-5.3z" transform="translate(-96.165 -71.3)"/><path id="Path_1224" data-name="Path 1224" class="cls-4" d="M120.1 82.926h18.635V76.6L120.1 71.3z" transform="translate(-107.449 -71.3)"/><circle id="Ellipse_34" data-name="Ellipse 34" class="cls-4" cx="6.155" cy="6.155" r="6.155" transform="translate(29.406 .684)"/></g><g id="Group_570" data-name="Group 570" transform="translate(35.39 100.356)"><path id="Rectangle_32" data-name="Rectangle 32" class="cls-3" transform="translate(0 67.36)" d="M0 0h234.563v21.883H0z"/><path id="Path_1225" data-name="Path 1225" d="M23.6 110.9l4.274 93.859a10.735 10.735 0 0 0 10.771 10.258h194.386a10.735 10.735 0 0 0 10.769-10.258l4.274-93.859zm38.125 77.276a3.547 3.547 0 0 1-3.761 3.59 3.728 3.728 0 0 1-3.419-3.761v-57.786a3.624 3.624 0 0 1 3.419-3.761 3.547 3.547 0 0 1 3.761 3.59zm17.267 0a3.547 3.547 0 0 1-3.761 3.59 3.728 3.728 0 0 1-3.419-3.761v-57.786a3.624 3.624 0 0 1 3.419-3.761 3.547 3.547 0 0 1 3.761 3.59zm17.267 0a3.594 3.594 0 1 1-7.181-.171v-57.957a3.851 3.851 0 0 1 2.906-3.761 3.539 3.539 0 0 1 4.274 3.59zm17.438 0a3.547 3.547 0 0 1-3.761 3.59 3.728 3.728 0 0 1-3.419-3.761v-57.786a3.624 3.624 0 0 1 3.419-3.761 3.547 3.547 0 0 1 3.761 3.59zm17.267 0a3.547 3.547 0 0 1-3.761 3.59 3.728 3.728 0 0 1-3.419-3.761v-57.786a3.624 3.624 0 0 1 3.419-3.761 3.547 3.547 0 0 1 3.761 3.59zm17.267 0a3.594 3.594 0 1 1-7.18-.171v-57.957a3.851 3.851 0 0 1 2.906-3.761 3.539 3.539 0 0 1 4.274 3.59zm17.267 0a3.547 3.547 0 0 1-3.761 3.59 3.728 3.728 0 0 1-3.419-3.761v-57.786a3.624 3.624 0 0 1 3.419-3.761 3.547 3.547 0 0 1 3.761 3.59zm17.267 0a3.547 3.547 0 0 1-3.761 3.59 3.728 3.728 0 0 1-3.419-3.761v-57.786a3.624 3.624 0 0 1 3.419-3.761 3.547 3.547 0 0 1 3.761 3.59zm17.267 0a3.594 3.594 0 1 1-7.18-.171v-57.957a3.851 3.851 0 0 1 2.906-3.761 3.539 3.539 0 0 1 4.274 3.59zm17.267 0a3.547 3.547 0 0 1-3.761 3.59 3.728 3.728 0 0 1-3.419-3.761v-57.786a3.624 3.624 0 0 1 3.419-3.761 3.547 3.547 0 0 1 3.761 3.59z" transform="translate(-18.642 -21.657)" fill="#4d516e"/><g id="Group_569" data-name="Group 569" transform="translate(109.246)"><path id="Path_1226" data-name="Path 1226" d="M92.122 157a7.479 7.479 0 0 1-7.522-7.522V58.7h14.874v90.953A7.193 7.193 0 0 1 92.122 157z" transform="translate(-84.6 -58.7)" fill="#6d71b7"/><circle id="Ellipse_35" data-name="Ellipse 35" class="cls-3" cx="2.564" cy="2.564" r="2.564" transform="translate(4.958 88.047)"/></g></g></g></g></svg>