<svg xmlns="http://www.w3.org/2000/svg" viewBox="0 0 1122.221 1124.008"><defs><style>.cls-5{fill:#a699e3}</style></defs><g id="Group_573" data-name="Group 573" opacity=".135"><path id="Path_1195" data-name="Path 1195" d="M1006.687 201.219c14.028 14.028 28.056 28.056 35.07 42.083 21.042 28.056 42.083 56.111 63.125 91.18s35.069 77.152 49.1 119.236 21.042 84.167 21.042 126.25c0 63.125-7.014 126.25-28.055 189.375-28.056 84.167-70.139 161.319-140.278 224.444-63.125 63.125-140.278 112.222-224.444 140.277-63.125 21.042-126.25 28.056-189.375 28.056q-63.124 0-126.25-21.041c-42.083-14.028-77.152-28.056-119.236-49.1-28.056-14.028-63.125-35.07-91.181-63.125-14.028-14.028-28.056-21.042-42.083-35.069s-28.056-28.056-42.083-49.1c-21.042-28.055-42.083-56.111-56.111-91.18-21.041-42.083-35.069-77.153-49.1-119.236S52.8 643.094 52.8 601.01c0-70.139 7.014-133.264 35.07-196.388 28.056-70.139 70.139-140.278 126.25-203.4 56.111-56.111 126.25-98.195 203.4-126.25C480.647 53.928 550.786 39.9 613.91 39.9c42.084 0 91.18 7.014 133.264 14.028s84.167 28.056 119.236 49.1c28.056 14.028 63.125 35.069 91.181 56.111 21.041 14.025 35.068 28.053 49.096 42.08z" transform="translate(-52.8 -38.113)" fill="#e6e0ff"/><path id="Path_1196" data-name="Path 1196" d="M613.911 41.662L52.8 602.772c0-70.139 7.014-133.264 35.07-196.388L417.522 76.731c63.125-28.055 133.264-42.083 196.389-35.069z" transform="translate(-52.8 -39.875)" fill="#3b3e54"/><path id="Path_1197" data-name="Path 1197" d="M852.582 82.183L102.1 839.682C81.056 797.6 67.028 762.53 53 720.446L733.346 40.1c42.083 7.014 84.167 28.056 119.236 42.083z" transform="translate(-38.972 -24.285)" fill="#4449a0"/><path id="Path_1198" data-name="Path 1198" class="cls-5" d="M889.151 83.684c14.027 14.028 28.056 28.056 35.069 42.083L138.666 911.321c-14.028-14.028-28.056-21.042-42.083-35.07S68.528 848.2 54.5 827.154L840.055 41.6c21.045 14.028 35.069 28.056 49.096 42.084z" transform="translate(64.736 79.423)"/><path id="Path_1199" data-name="Path 1199" class="cls-5" d="M814.5 44c21.042 35.07 35.07 77.153 49.1 119.236L176.236 850.6C134.153 836.568 99.083 822.541 57 801.5z" transform="translate(237.583 245.356)"/><path id="Path_1200" data-name="Path 1200" class="cls-5" d="M635.638 47.5c0 63.125-7.014 126.25-28.056 189.375L249.875 594.583c-63.125 21.041-126.25 28.055-189.375 28.055z" transform="translate(479.568 487.342)"/></g></svg>