<svg xmlns="http://www.w3.org/2000/svg" xmlns:xlink="http://www.w3.org/1999/xlink" viewBox="0 0 626.099 477.942"><defs><style>.cls-2{fill:#2d1e56}.cls-4{fill:#e2e2e2}.cls-8{fill:#fff;opacity:.29}.cls-10{opacity:.3}.cls-18{clip-path:url(#clip-path)}.cls-21{fill:#8e87ad;opacity:.4}.cls-22,.cls-26{opacity:.42}.cls-23,.cls-26{fill:#413351}.cls-25{fill:#ebebeb;opacity:.28}</style><linearGradient id="linear-gradient" x1=".5" y1="-3.936" x2="1.114" y2="-2.967" gradientUnits="objectBoundingBox"><stop offset="0" stop-color="#67d690"/><stop offset="1" stop-color="#00a99d"/></linearGradient><linearGradient id="linear-gradient-2" x1="-.002" y1=".501" x2="1.001" y2=".501" gradientUnits="objectBoundingBox"><stop offset="0" stop-color="#9feab2"/><stop offset="1" stop-color="#6ad4ab"/></linearGradient><linearGradient id="linear-gradient-3" x1="-.05" y1=".61" x2="1.343" y2=".343" gradientUnits="objectBoundingBox"><stop offset="0" stop-color="#ccc"/><stop offset="1" stop-color="#fff"/></linearGradient><linearGradient id="linear-gradient-4" x1=".482" y1="-.018" x2=".504" y2=".625" gradientUnits="objectBoundingBox"><stop offset="0" stop-color="#49b7e0"/><stop offset="1" stop-color="#66ecf2"/></linearGradient><linearGradient id="linear-gradient-5" x1=".513" y1="-.27" x2=".502" y2=".805" gradientUnits="objectBoundingBox"><stop offset="0" stop-color="#fff" stop-opacity="0"/><stop offset=".999" stop-color="#fff"/></linearGradient><linearGradient id="linear-gradient-6" x1=".507" y1="-1.949" x2=".49" y2="3.068" xlink:href="#linear-gradient-3"/><linearGradient id="linear-gradient-7" x1=".405" y1="1.023" x2=".602" y2=".388" xlink:href="#linear-gradient-5"/><linearGradient id="linear-gradient-8" x1=".507" y1="-.107" x2=".457" y2=".857" gradientUnits="objectBoundingBox"><stop offset=".1" stop-color="#fde04c"/><stop offset="1" stop-color="#e76574"/></linearGradient><linearGradient id="linear-gradient-9" x1=".513" y1=".168" x2=".497" y2=".876" gradientUnits="objectBoundingBox"><stop offset=".134" stop-color="#e76574"/><stop offset="1" stop-color="#714091"/></linearGradient><linearGradient id="linear-gradient-10" x1=".506" y1=".195" x2=".49" y2=".904" xlink:href="#linear-gradient-9"/><clipPath id="clip-path"><path id="Path_1446" data-name="Path 1446" d="M430.461 175.583c-10.862 10.363-29.688 35.778-28 87.594a33.651 33.651 0 0 0 1.448 9.87l11.827 47.128h41.274s10.62-38.739 12.792-48.608c5.552-25.168-2.414-72.543-23.654-95.49a11.132 11.132 0 0 0-15.687-.494z" transform="translate(-402.356 -172.585)"/></clipPath><linearGradient id="linear-gradient-11" x1=".499" y1=".227" x2=".499" y2=".809" gradientUnits="objectBoundingBox"><stop offset="0" stop-color="#fff"/><stop offset=".993" stop-color="#e6e6e6"/></linearGradient><linearGradient id="linear-gradient-12" x1=".496" y1=".055" x2=".542" y2="1.77" xlink:href="#linear-gradient-9"/><linearGradient id="linear-gradient-13" x1=".029" y1="1.024" x2=".684" y2=".288" xlink:href="#linear-gradient-4"/><linearGradient id="linear-gradient-14" x1=".51" y1=".024" x2=".47" y2=".865" xlink:href="#linear-gradient-9"/><linearGradient id="linear-gradient-15" x1=".513" y1="2.142" x2=".499" y2=".476" gradientUnits="objectBoundingBox"><stop offset="0" stop-color="#fff" stop-opacity="0"/><stop offset="1" stop-color="#fff"/></linearGradient><linearGradient id="linear-gradient-16" x1=".474" y1="1.577" x2=".516" y2="-.137" xlink:href="#linear-gradient-5"/><linearGradient id="linear-gradient-17" x1=".491" y1="1.807" x2=".505" y2="-.366" xlink:href="#linear-gradient-5"/><linearGradient id="linear-gradient-18" x1="1" y1="1.364" x2=".253" y2=".075" xlink:href="#linear-gradient-5"/><linearGradient id="linear-gradient-19" x1="1" y1="1.359" x2=".253" y2=".08" gradientUnits="objectBoundingBox"><stop offset=".142" stop-color="#42287c"/><stop offset="1" stop-color="#714091"/></linearGradient><linearGradient id="linear-gradient-20" x1="1" y1="1.369" x2=".253" y2=".08" xlink:href="#linear-gradient-19"/><linearGradient id="linear-gradient-21" x1=".996" y1="1.368" x2=".258" y2=".079" xlink:href="#linear-gradient-5"/></defs><g id="Group_6323" data-name="Group 6323" transform="translate(-393.106 -96.97)"><g id="grass"><g id="Group_6347" data-name="Group 6347" opacity=".56"><path id="Path_1402" data-name="Path 1402" class="cls-2" d="M358.7 398.784c-7.724 8.389-21.723 9.13-32.585 5.675a31.521 31.521 0 0 1-21-24.921c-1.207-7.9.483-16.532-2.9-23.687-4.1-8.636-14-12.584-18.827-20.726-4.345-7.649-3.138-17.272-4.586-25.908-1.207-6.662-3.862-13.077-5.793-19.493s-3.138-13.571-1.448-19.986 7.241-12.337 14-12.337c5.793 0 10.62 3.948 14.482 8.143 3.621 4.441 6.758 9.376 11.344 13.077 6.758 5.428 15.689 6.662 24.137 8.636s17.378 5.922 20.758 14.064c3.621 8.389.241 19 5.31 26.648 3.138 4.688 8.689 6.909 13.275 10.363 10.862 7.9 16.413 22.947 12.792 36.025-3.379 13.077-15.448 23.441-28.964 24.428" transform="translate(122.34 161.57)"/><g id="Group_679" data-name="Group 679" transform="translate(411.048 439.697)"><path id="Path_1403" data-name="Path 1403" class="cls-2" d="M362.678 383.743a5.371 5.371 0 0 1-1.207-.987 23.013 23.013 0 0 1-3.138-2.714 108.3 108.3 0 0 1-10.379-11.6c-4.1-5.182-8.448-11.6-13.517-18.753-4.827-7.156-10.379-15.051-15.93-23.441-11.344-16.532-21.482-31.583-28.723-42.686-3.62-5.428-6.517-9.87-8.689-13.077-.965-1.48-1.69-2.714-2.172-3.454a12.852 12.852 0 0 1-.724-1.234 5.467 5.467 0 0 0 .965 1.234c.483.74 1.448 1.974 2.414 3.454 2.172 2.961 5.069 7.4 8.931 12.831 7.482 10.857 17.62 25.908 28.964 42.44 5.551 8.389 10.861 16.285 15.93 23.441 4.827 7.156 9.172 13.818 13.275 19a116.022 116.022 0 0 0 10.137 11.844 32.367 32.367 0 0 1 2.9 2.961 4.515 4.515 0 0 1 .963.741z" transform="translate(-278.2 -265.8)"/></g><g id="Group_680" data-name="Group 680" transform="translate(447.736 460.67)"><path id="Path_1404" data-name="Path 1404" class="cls-2" d="M302.331 274.3c.241.247-.965 1.974-2.655 4.935a58.512 58.512 0 0 0-2.414 5.428 57.415 57.415 0 0 0-1.931 6.909 37.9 37.9 0 0 0-.724 7.156 44.691 44.691 0 0 0 .241 5.922c.241 3.454.724 5.428.483 5.428s-.965-1.974-1.448-5.428a42.5 42.5 0 0 1-.483-6.169 40.456 40.456 0 0 1 .724-7.4 30.877 30.877 0 0 1 2.172-7.156 37.236 37.236 0 0 1 2.655-5.428 38.225 38.225 0 0 1 3.38-4.197z" transform="translate(-293.4 -274.3)"/></g><g id="Group_681" data-name="Group 681" transform="translate(474.286 497.411)"><path id="Path_1405" data-name="Path 1405" class="cls-2" d="M312.365 289.214c.241 0-.965 1.974-2.172 4.935a41.158 41.158 0 0 0-2.172 5.428 47.923 47.923 0 0 0-1.69 6.909 37.471 37.471 0 0 0-.724 6.909 39.139 39.139 0 0 0 .241 5.675c.241 3.208.724 5.428.483 5.428s-.966-1.974-1.448-5.182a41.825 41.825 0 0 1-.483-5.922 37.912 37.912 0 0 1 .724-7.156 46.947 46.947 0 0 1 1.931-6.909 58.52 58.52 0 0 1 2.414-5.428c1.448-3.207 2.655-4.934 2.896-4.687z" transform="translate(-304.4 -289.191)"/></g><g id="Group_682" data-name="Group 682" transform="translate(418.289 496.694)"><path id="Path_1406" data-name="Path 1406" class="cls-2" d="M321.026 301.484c0 .247-2.172-.987-5.551-2.961a93.055 93.055 0 0 0-13.517-5.922 53.345 53.345 0 0 0-7.965-1.974 34.894 34.894 0 0 0-6.517-.74c-3.862-.247-6.034 0-6.276-.247 0-.247 2.414-.74 6.276-.74 1.931 0 4.345.247 6.758.493a53.356 53.356 0 0 1 7.965 1.974 83.057 83.057 0 0 1 13.758 6.415c3.379 1.975 5.31 3.702 5.069 3.702z" transform="translate(-281.2 -288.9)"/></g><g id="Group_683" data-name="Group 683" transform="translate(446.529 529.018)"><path id="Path_1407" data-name="Path 1407" class="cls-2" d="M327.9 315.077c-.241.247-1.69-1.234-4.586-3.208-1.448-.987-3.138-1.974-5.069-3.208-1.931-.987-4.345-1.974-6.758-2.961-2.414-.74-4.827-1.48-7-1.974a28.534 28.534 0 0 0-6.034-.74c-3.379-.247-5.551 0-5.551-.247s2.172-.494 5.551-.74a58.951 58.951 0 0 1 6.034.493c2.172.494 4.827.987 7.241 1.727a43.423 43.423 0 0 1 6.758 3.208 30.668 30.668 0 0 1 5.069 3.454 22.877 22.877 0 0 1 4.345 4.196z" transform="translate(-292.9 -302)"/></g></g><g id="Group_6348" data-name="Group 6348"><g id="Group_686" data-name="Group 686" transform="translate(442.44 306.197)"><path id="Path_1411" data-name="Path 1411" d="M373.5 464.126c-15.93 8.636-37.171 2.467-51.894-8.389-14.482-10.857-22.206-30.349-19.309-48.609 2.172-12.584 8.931-24.428 7.482-37.012-1.69-15.051-14.965-26.4-17.861-41.206-2.9-13.818 3.862-27.635 6.034-41.7 1.69-10.61.724-21.467.965-32.323s1.931-21.96 7.724-30.843c6.034-8.883 17.137-14.8 27.275-11.35 8.689 2.714 14.241 11.35 17.62 19.986s5.551 17.765 10.379 25.415c7.482 11.6 20.516 18.259 31.861 25.661 11.586 7.4 22.93 18.012 24.378 31.83 1.207 14.558-9.172 28.869-5.31 42.933 2.414 8.883 9.655 15.051 14.965 22.454 12.551 17.519 13.034 43.18 1.207 61.192-11.344 18.259-34.757 27.389-55.514 21.96" transform="translate(-291.206 -211.695)" fill="url(#linear-gradient)"/></g><g id="Group_689" data-name="Group 689" transform="translate(479.596 340.012)"><g id="Group_688" data-name="Group 688"><g id="Group_687" data-name="Group 687"><path id="Path_1412" data-name="Path 1412" class="cls-4" d="M374.666 447.469a14.572 14.572 0 0 1-1.448-1.974 47.96 47.96 0 0 1-3.379-5.922 135.3 135.3 0 0 1-9.9-22.947c-3.621-9.87-7-21.96-10.862-35.284s-7.965-28.129-12.31-43.427c-8.689-30.843-16.413-58.972-21.723-79.2a3969.486 3969.486 0 0 1-6.276-24.181c-.724-2.961-1.207-5.182-1.69-6.662-.241-1.48-.483-2.221-.483-2.467a10.233 10.233 0 0 1 .965 2.221c.483 1.48 1.207 3.7 2.172 6.415 1.69 5.675 4.1 13.818 7 23.934a19211.17 19211.17 0 0 1 22.447 78.958c4.345 15.545 8.448 30.1 12.068 43.674 3.621 13.324 7 25.415 10.379 35.284a236.565 236.565 0 0 0 9.172 22.947c2.419 5.67 4.109 8.384 3.868 8.631z" transform="translate(-306.6 -225.4)"/></g></g></g><g id="Group_692" data-name="Group 692" transform="translate(508.802 395.997)"><g id="Group_691" data-name="Group 691"><g id="Group_690" data-name="Group 690"><path id="Path_1413" data-name="Path 1413" class="cls-4" d="M347.664 248.115c.241.247-2.414 2.467-6.276 6.169a75.255 75.255 0 0 0-12.551 16.532 83.645 83.645 0 0 0-7.724 19.493c-1.207 5.182-1.69 8.636-2.172 8.636-.241 0-.483-3.454.241-8.883a66.986 66.986 0 0 1 7.241-20.233A60.6 60.6 0 0 1 339.94 253.3c4.586-3.951 7.483-5.431 7.724-5.185z" transform="translate(-318.7 -248.089)"/></g></g></g><g id="Group_695" data-name="Group 695" transform="translate(530.55 464.345)"><g id="Group_694" data-name="Group 694"><g id="Group_693" data-name="Group 693"><path id="Path_1414" data-name="Path 1414" class="cls-4" d="M354.96 275.816c.241.247-2.172 2.467-5.793 6.169a79.406 79.406 0 0 0-11.827 16.285 73.547 73.547 0 0 0-7.241 19c-1.207 5.182-1.69 8.389-2.172 8.389-.241 0-.483-3.454.483-8.636a62.073 62.073 0 0 1 6.758-19.739 63.088 63.088 0 0 1 12.792-16.534c4.103-3.701 7-5.181 7-4.934z" transform="translate(-327.711 -275.789)"/></g></g></g><g id="Group_698" data-name="Group 698" transform="translate(461.736 430.982)"><g id="Group_697" data-name="Group 697"><g id="Group_696" data-name="Group 696"><path id="Path_1415" data-name="Path 1415" class="cls-4" d="M353.266 301.086c-.241.247-2.9-2.714-7-7.156a137.651 137.651 0 0 0-17.62-16.038 116.132 116.132 0 0 0-10.862-7.156 65.454 65.454 0 0 0-9.413-4.688c-5.551-2.467-9.172-3.208-9.172-3.7 0-.247 3.862 0 9.655 1.974a64.7 64.7 0 0 1 9.9 4.441 93.534 93.534 0 0 1 11.1 7.156 107 107 0 0 1 17.378 16.781c4.103 4.931 6.276 8.139 6.034 8.386z" transform="translate(-299.2 -262.268)"/></g></g></g><g id="Group_701" data-name="Group 701" transform="translate(487.803 495.133)"><g id="Group_700" data-name="Group 700"><g id="Group_699" data-name="Group 699"><path id="Path_1416" data-name="Path 1416" class="cls-4" d="M356.584 324.619c-.241.247-2.172-2.714-5.31-7.156a79.7 79.7 0 0 0-14.965-15.051 76.15 76.15 0 0 0-18.1-10.61c-5.069-2.221-8.206-3.208-8.206-3.454s3.379 0 8.689 1.727a66.112 66.112 0 0 1 33.791 26.4c3.135 4.69 4.342 7.898 4.101 8.144z" transform="translate(-310 -288.267)"/></g></g></g></g><g id="Group_6349" data-name="Group 6349"><path id="Path_1418" data-name="Path 1418" d="M505.083 397.405c-11.1-2.221-19.309-13.818-22.206-24.921s.724-23.934 9.172-31.583c5.793-5.182 13.758-8.389 17.861-15.3 4.827-8.143 2.655-19 7-27.389 3.862-7.9 12.551-12.09 18.827-18.012 4.827-4.441 8.689-10.363 12.792-15.545 4.345-5.182 9.413-10.116 15.689-12.09s14.241-.247 17.861 5.428c3.138 4.935 2.655 11.35.966 16.778-1.69 5.675-4.1 10.857-4.586 16.779-.724 8.636 3.138 17.025 5.793 25.415 2.9 8.389 4.345 18.012-.241 25.415-4.827 7.649-15.689 10.61-19.068 19-2.172 5.182-.966 11.35-1.207 17.025-.483 13.571-10.137 26.4-22.93 30.6s-27.757-.74-35.722-11.6" transform="translate(420.802 153.326)" fill="url(#linear-gradient-2)"/><g id="Group_703" data-name="Group 703" transform="translate(935.539 425.386)"><path id="Path_1419" data-name="Path 1419" class="cls-4" d="M495.741 396.2v-1.48a37.632 37.632 0 0 1 .483-4.195c.724-3.7 1.931-8.883 3.862-15.3s5.069-13.571 8.206-21.713c3.379-8.142 7-17.025 10.62-26.4 7.724-18.752 14.482-35.531 19.551-47.621 2.655-6.169 4.586-10.857 6.034-14.311.724-1.727 1.207-2.961 1.69-3.948a5.527 5.527 0 0 1 .724-1.234 3.883 3.883 0 0 1-.483 1.48c-.241.987-.966 2.221-1.448 3.948-1.448 3.454-3.379 8.389-5.793 14.558-4.827 12.337-11.586 29.116-19.309 47.868-3.862 9.376-7.482 18.259-10.861 26.4s-6.276 15.3-8.448 21.467-3.379 11.35-4.345 15.051a16.983 16.983 0 0 0-.724 4.195 4.4 4.4 0 0 1 .241 1.235z" transform="translate(-495.5 -260)"/></g><g id="Group_704" data-name="Group 704" transform="translate(961.124 475.407)"><path id="Path_1420" data-name="Path 1420" class="cls-4" d="M539.65 280.834c0 .247-2.172 0-5.31.493-1.69.247-3.621.493-5.793.987a42.881 42.881 0 0 0-6.758 2.221 40.512 40.512 0 0 0-6.517 3.208 27.809 27.809 0 0 0-4.827 3.454c-2.655 1.974-4.1 3.7-4.345 3.454a37.319 37.319 0 0 1 3.62-4.195 27.936 27.936 0 0 1 4.827-3.7 40.88 40.88 0 0 1 6.517-3.454 45.245 45.245 0 0 1 7-2.221 28.535 28.535 0 0 1 6.034-.74c3.38-.248 5.552.246 5.552.493z" transform="translate(-506.1 -280.273)"/></g><g id="Group_705" data-name="Group 705" transform="translate(945.918 517.319)"><path id="Path_1421" data-name="Path 1421" class="cls-4" d="M532.143 297.608c0 .247-1.931.247-5.31.74-1.69.247-3.379.494-5.551.987a33.913 33.913 0 0 0-6.517 2.221 50.306 50.306 0 0 0-6.276 3.208 48.642 48.642 0 0 0-4.586 3.208c-2.655 1.974-4.1 3.454-4.1 3.208a27.285 27.285 0 0 1 3.62-3.948 45.355 45.355 0 0 1 10.862-6.909 42.87 42.87 0 0 1 6.758-2.221 26.492 26.492 0 0 1 5.793-.74c3.135-.248 5.307-.001 5.307.246z" transform="translate(-499.8 -297.259)"/></g><g id="Group_706" data-name="Group 706" transform="translate(943.478 462.397)"><path id="Path_1422" data-name="Path 1422" class="cls-4" d="M510.642 315.959c-.241 0-.241-2.467-.724-6.415a87.293 87.293 0 0 0-2.414-15.051 59.931 59.931 0 0 0-2.655-7.9 48.993 48.993 0 0 0-2.9-6.169c-1.931-3.454-3.379-5.182-3.138-5.428a23.144 23.144 0 0 1 3.862 4.935 47.368 47.368 0 0 1 3.138 6.169 63.914 63.914 0 0 1 2.655 8.143 86.009 86.009 0 0 1 2.172 15.3c.487 3.949.246 6.416.004 6.416z" transform="translate(-498.789 -275)"/></g><g id="Group_707" data-name="Group 707" transform="translate(932.129 504.343)"><path id="Path_1423" data-name="Path 1423" class="cls-4" d="M502.807 328.765c-.241 0 0-2.221.241-5.675a59.414 59.414 0 0 0-.241-6.169c-.241-2.221-.724-4.688-1.207-7.4-.724-2.467-1.448-4.935-2.172-7.156a37.247 37.247 0 0 0-2.655-5.428c-1.69-2.961-2.9-4.688-2.655-4.935a23.17 23.17 0 0 1 3.62 4.441 54.219 54.219 0 0 1 2.9 5.428 61.84 61.84 0 0 1 2.414 7.156 45.632 45.632 0 0 1 1.207 7.649 52.158 52.158 0 0 1 0 6.169c-.486 3.946-1.211 5.92-1.452 5.92z" transform="translate(-494.087 -292)"/></g></g></g><g id="laptop"><g id="Group_6346" data-name="Group 6346"><path id="Path_1425" data-name="Path 1425" d="M332.2 231.21v233.172h389.084V231.21A21.878 21.878 0 0 0 699.561 209H353.923c-12.068-.244-21.723 9.872-21.723 22.21z" transform="translate(209.187 90.544)" fill="url(#linear-gradient-3)"/></g><g id="Group_6324" data-name="Group 6324"><path id="Rectangle_37" data-name="Rectangle 37" transform="translate(559.006 321.753)" fill="url(#linear-gradient-4)" d="M0 0h344.914v242.055H0z"/></g><g id="Group_6345" data-name="Group 6345"><path id="Path_1428" data-name="Path 1428" class="cls-8" d="M340.2 464.526L559.844 208.9h51.17L394.266 464.526z" transform="translate(220.496 90.4)"/></g><g id="Group_6344" data-name="Group 6344"><path id="Path_1430" data-name="Path 1430" class="cls-8" d="M371.9 464.526L586.475 208.9h18.1l-214.09 255.626z" transform="translate(265.309 90.4)"/></g><g id="Group_6343" data-name="Group 6343"><path id="Path_1432" data-name="Path 1432" d="M321.724 359.886c-.966-29.116 15.447-62.426 40.791-74.516 25.344-12.337 57.2-7.156 77.962 12.09 7.724 7.156 14.965 16.779 25.1 18.012 14.482 1.727 26.068-13.818 40.55-14.8 19.309-1.234 31.86 23.194 51.17 26.648 14.241 2.467 28-7.4 42.239-6.909 10.62.247 20.516 5.922 30.895 5.675 19.792-.74 33.067-21.713 51.17-29.856s40.067-1.974 54.549 11.844 22.206 34.3 24.378 54.53z" transform="translate(194.319 192.819)" fill="url(#linear-gradient-5)"/></g><g id="Group_6342" data-name="Group 6342" class="cls-10"><path id="Path_1434" data-name="Path 1434" d="M754.951 376.929c.965-39.479-15.206-84.633-39.826-101.411s-56-9.87-76.272 16.532c-7.482 9.87-14.482 22.947-24.619 24.428-14 2.467-25.585-18.752-39.584-19.986-18.827-1.48-31.136 31.583-49.963 36.271-13.758 3.208-27.274-10.116-41.274-9.623-10.379.493-20.033 8.142-30.171 7.649-19.309-.987-32.343-29.362-50.2-40.466-17.62-10.857-39.1-2.714-53.342 16.038s-21.723 46.388-23.9 74.27z" transform="translate(200.139 174.789)" fill="#fff"/></g><g id="Group_6341" data-name="Group 6341"><path id="Path_1438" data-name="Path 1438" d="M321.7 311.6h439.771c0 12.337-13.758 22.207-30.412 22.207H352.112c-14 0-26.068-6.909-29.447-16.285a16.044 16.044 0 0 1-.965-5.922z" transform="translate(194.343 241.105)" fill="url(#linear-gradient-6)"/></g><g id="Group_6340" data-name="Group 6340"><path id="Path_1440" data-name="Path 1440" d="M389.3 311.6a5.418 5.418 0 0 0 5.31 5.428l102.581 1.727a5.267 5.267 0 0 0 5.31-5.922V311.6H389.3z" transform="translate(289.907 241.105)" fill="#134261"/></g></g><g id="rocket"><g id="Group_6339" data-name="Group 6339"><path id="Path_1436" data-name="Path 1436" d="M413.593 232.234L407.8 424.2h42.722L443.764 231z" transform="translate(316.06 122.83)" fill="url(#linear-gradient-7)"/></g><g id="Group_6338" data-name="Group 6338"><g id="Group_735" data-name="Group 735" transform="translate(692.962 209.695)"><g id="Group_732" data-name="Group 732"><path id="Path_1442" data-name="Path 1442" d="M410.9 232.4s2.9 35.284 14.482 41.453c0 0 8.689-5.428 13.275-41.453z" transform="translate(-372.52 -84.811)" fill="url(#linear-gradient-8)"/><path id="Path_1443" data-name="Path 1443" d="M413.828 202.5S395.243 244.446 395 255.056s15.448 53.543 18.1 46.635-3.379-27.388 10.379-36.271l-6.276-29.856a85.97 85.97 0 0 1-2.414-15.792c-.237-4.935-.719-11.597-.961-17.272z" transform="translate(-394.999 -128.687)" fill="url(#linear-gradient-9)"/><path id="Path_1444" data-name="Path 1444" d="M436.862 201.6s18.585 41.946 18.827 52.556-15.448 53.543-18.1 46.634S440 274.389 426 265.753l7.482-31.09a85.951 85.951 0 0 0 2.414-15.792c.241-4.934.724-11.349.966-17.271z" transform="translate(-351.173 -130.008)" fill="url(#linear-gradient-10)"/><g id="Group_724" data-name="Group 724" transform="translate(17.757)"><g id="Group_720" data-name="Group 720" class="cls-18"><path id="Path_1445" data-name="Path 1445" d="M430.461 175.583c-10.862 10.363-29.688 35.778-28 87.594a33.651 33.651 0 0 0 1.448 9.87l11.827 47.128h41.274s10.62-38.739 12.792-48.608c5.552-25.168-2.414-72.543-23.654-95.49a11.132 11.132 0 0 0-15.687-.494z" transform="translate(-402.356 -172.585)" fill="url(#linear-gradient-11)"/></g><g id="Group_721" data-name="Group 721" class="cls-18"><path id="Path_1447" data-name="Path 1447" d="M414.372 194.768h37.895l2.414-22.947-31.137-2.221-18.344 5.922z" transform="translate(-398.335 -176.966)" fill="url(#linear-gradient-12)"/></g><g id="Group_722" data-name="Group 722" class="cls-18"><path id="Path_1449" data-name="Path 1449" class="cls-21" d="M427.692 209c-3.862 24.428-9.9 44.661-19.792 57.738h16.654z" transform="translate(-394.518 -119.149)"/></g><g id="Group_723" data-name="Group 723" class="cls-18"><path id="Path_1451" data-name="Path 1451" class="cls-21" d="M443.147 195.1s-3.379 72.543-22.447 92.035h10.379s22.206-59.218 12.068-92.035z" transform="translate(-376.423 -139.546)"/></g></g><g id="Group_725" data-name="Group 725" class="cls-22" transform="translate(18.588 59.502)"><path id="Path_1453" data-name="Path 1453" class="cls-23" d="M469.8 199.167c0 .247-3.862.247-9.9 0s-14.241-.494-23.654-.494c-9.172 0-17.62.247-23.654.247-6.034.247-9.655.247-9.9 0 0-.247 3.621-.74 9.655-1.234s14.482-.987 23.654-.987 17.62.493 23.654.987c6.525.741 10.145 1.235 10.145 1.481z" transform="translate(-402.7 -196.7)"/></g><g id="Group_726" data-name="Group 726" class="cls-22" transform="translate(18.347 63.758)"><path id="Path_1454" data-name="Path 1454" class="cls-23" d="M471.148 202.064c0 .247-3.862 0-10.138-.247s-14.723-.74-24.137-1.234c-9.413-.247-18.1-.493-24.137-.74-6.275 0-10.137-.247-10.137-.493s3.862-.494 10.137-.74 14.723-.247 24.137 0 18.1.987 24.137 1.727c6.276.987 10.138 1.481 10.138 1.727z" transform="translate(-402.6 -198.425)"/></g><g id="Group_727" data-name="Group 727" class="cls-22" transform="translate(30.898 144.285)"><path id="Path_1455" data-name="Path 1455" class="cls-23" d="M451.246 232.391c0 .493-9.655.74-21.723.493s-21.723-.74-21.723-1.234 9.655-.74 21.723-.493c11.827.243 21.723.743 21.723 1.234z" transform="translate(-407.8 -231.061)"/></g><g id="Group_728" data-name="Group 728" class="cls-22" transform="translate(29.208 140.681)"><path id="Path_1456" data-name="Path 1456" class="cls-23" d="M451.512 230.587c0 .493-9.9.74-22.206.74s-22.206-.493-22.206-.987 9.9-.74 22.206-.74c12.309.247 22.206.494 22.206.987z" transform="translate(-407.1 -229.6)"/></g><path id="Path_1457" data-name="Path 1457" class="cls-21" d="M439.967 209.8a14.45 14.45 0 0 1-16.167 13.32 14.611 14.611 0 0 1-13.034-16.532 14.45 14.45 0 0 1 16.172-13.324 14.774 14.774 0 0 1 13.029 16.536z" transform="translate(-372.864 -142.398)"/><g id="Group_729" data-name="Group 729" transform="translate(39.003 48.291)"><path id="Path_1458" data-name="Path 1458" d="M440.465 208.8a14.45 14.45 0 0 1-16.172 13.324 14.774 14.774 0 0 1-13.034-16.532 14.45 14.45 0 0 1 16.172-13.324c7.969.732 13.758 8.138 13.034 16.532z" transform="translate(-411.158 -192.156)" fill="url(#linear-gradient-13)"/><path id="Path_1459" data-name="Path 1459" class="cls-25" d="M412 213.68l20.516-20.48s4.1 2.961 5.069 5.675l-21.723 19.246c0-.247-3.621-2.467-3.862-4.441z" transform="translate(-409.968 -190.625)"/><path id="Path_1460" data-name="Path 1460" class="cls-25" d="M415 215.493L434.068 196l.724 2.961L417.9 216.48z" transform="translate(-405.726 -186.516)"/></g><g id="Group_730" data-name="Group 730" transform="translate(30.415 87.631)"><path id="Path_1461" data-name="Path 1461" class="cls-26" d="M410.014 209.334a1.207 1.207 0 1 1-1.207-1.234 1.153 1.153 0 0 1 1.207 1.234z" transform="translate(-407.6 -208.1)"/><path id="Path_1462" data-name="Path 1462" class="cls-26" d="M410.014 210.634a1.207 1.207 0 1 1-1.207-1.234 1.309 1.309 0 0 1 1.207 1.234z" transform="translate(-407.6 -206.192)"/><path id="Path_1463" data-name="Path 1463" class="cls-26" d="M410.014 212.134a1.207 1.207 0 1 1-1.207-1.234 1.153 1.153 0 0 1 1.207 1.234z" transform="translate(-407.6 -203.991)"/></g><path id="Path_1464" data-name="Path 1464" d="M420.534 208.615s-6.034.987-6.034 30.1c0 35.531 1.931 54.284 4.827 54.037s12.551-85.864 1.207-84.137z" transform="translate(-367.431 -119.751)" fill="url(#linear-gradient-14)"/><g id="Group_731" data-name="Group 731" class="cls-22" transform="translate(39.421 61.949)"><path id="Path_1465" data-name="Path 1465" class="cls-23" d="M434.186 211.283c.241.247-1.207 1.727-4.1 2.714a14.793 14.793 0 0 1-11.827-1.234 14.963 14.963 0 0 1-6.758-10.117c-.483-3.208.241-5.182.241-4.935.241 0 0 1.974.965 4.688a15.441 15.441 0 0 0 6.517 8.883 14.1 14.1 0 0 0 10.62 1.48c2.656-.739 4.1-1.725 4.342-1.479z" transform="translate(-411.331 -197.692)"/></g></g></g></g></g><g id="clouds"><g id="Group_6337" data-name="Group 6337" opacity=".75"><path id="Path_1409" data-name="Path 1409" d="M477.368 200.488c15.93.247 31.619 2.221 47.549 1.234 8.206-.493 17.137-1.974 22.93-9.13 5.552-6.909 7-18.506 3.138-27.142s-12.31-13.324-20.033-11.1c-8.206 2.467-15.448 11.844-23.413 8.636-5.551-2.221-9.655-10.363-15.447-9.87-6.034.493-8.931 9.87-14.241 13.818-4.586 3.208-10.137 2.221-15.447 1.727s-11.344 0-14.482 5.182c-3.621 5.922-1.207 15.3 3.621 19.493.24.243 10.136 6.905 25.825 7.152z" transform="translate(370.314 8.504)" fill="url(#linear-gradient-15)"/></g><g id="Group_6336" data-name="Group 6336" class="cls-10"><path id="Path_1467" data-name="Path 1467" d="M516.293 267.321c16.9.247 33.791 1.974 50.687.987 8.689-.493 18.1-1.727 24.378-7.9 6.034-5.922 7.482-16.038 3.379-23.687-4.1-7.4-13.275-11.6-21.24-9.623-8.689 2.221-16.654 10.363-25.1 7.649-6.034-1.974-10.379-9.129-16.654-8.636-6.517.493-9.413 8.636-15.206 12.09-4.827 2.961-10.862 1.974-16.413 1.48s-12.068 0-15.447 4.441c-3.862 5.182-1.207 13.324 4.1 17.025 0 .005 10.623 5.927 27.516 6.174z" transform="translate(422.143 115.625)" fill="url(#linear-gradient-16)"/></g><g id="Group_6335" data-name="Group 6335" class="cls-10"><path id="Path_1469" data-name="Path 1469" d="M354.274 238.715c23.654.247 47.308 2.961 71.2 1.48 12.31-.74 25.585-2.467 34.274-11.1 8.448-8.389 10.379-22.7 4.827-33.064-5.793-10.61-18.585-16.285-29.929-13.571-12.068 2.961-23.171 14.558-35.24 10.61-8.448-2.714-14.482-12.584-23.171-11.844-9.172.74-13.275 12.337-21.24 17.025-6.758 3.948-15.206 2.714-22.93 1.974s-16.9 0-21.723 6.169c-5.551 7.4-1.69 18.753 5.551 23.934-.238-.249 14.727 7.893 38.381 8.387z" transform="translate(174.562 49.728)" fill="url(#linear-gradient-17)"/></g></g><g id="stars"><g id="Group_6334" data-name="Group 6334"><path id="Path_1473" data-name="Path 1473" d="M314.9 160.757l4.827-10.857 6.517 10.116 10.62 4.935-9.9 6.662-5.064 10.857-6.276-10.117L305 167.172z" transform="translate(170.735 3.821)" fill="url(#linear-gradient-18)" opacity=".3"/></g><g id="Group_6333" data-name="Group 6333"><path id="Path_1475" data-name="Path 1475" d="M396.9 172.7l4.827-11.1 6.517 10.363 10.62 4.935-9.9 6.415-5.069 11.1-6.276-10.363L387 179.119z" transform="translate(286.656 20.99)" fill="url(#linear-gradient-19)"/></g><g id="Group_6332" data-name="Group 6332"><path id="Path_1477" data-name="Path 1477" d="M433.8 138l4.827-11.1 6.517 10.116 10.62 5.182-9.9 6.415-5.064 10.857-6.276-10.117-10.62-4.935z" transform="translate(338.82 -29.93)" fill="url(#linear-gradient-20)"/></g><g id="Group_6331" data-name="Group 6331"><path id="Path_1479" data-name="Path 1479" d="M285.493 225.315l2.9-6.415 3.862 5.922 6.276 2.961-5.793 3.7-2.9 6.415-3.862-5.922-6.275-2.961z" transform="translate(134.969 105.074)" fill="url(#linear-gradient-21)" opacity=".3"/></g></g></g></svg>