<svg xmlns="http://www.w3.org/2000/svg" viewBox="0 0 429.695 341.855"><defs><style>.cls-2{fill:#dfdfdf}.cls-3{fill:silver}.cls-4{fill:#da8937}.cls-5{fill:#4b2c1b}.cls-6{fill:#e58fbd}.cls-7{fill:#cb896d}.cls-9{fill:#e6af97}.cls-10{fill:#da5e40}.cls-11{fill:#b46c50}.cls-13{fill:#fff}.cls-14{fill:#745345}.cls-15{fill:#390a0a}.cls-16{fill:#341212}.cls-17{fill:#db6f6e}.cls-19{fill:#be513e}.cls-20{fill:#683c22}.cls-21{fill:#9ea6bf}.cls-23{fill:#c62a77}.cls-24{fill:#b0266b}.cls-25{fill:#6c3d23}.cls-27{fill:#c6cdd2}.cls-28{fill:#edba43}.cls-31{fill:#88563e}.cls-33{fill:#9fa6cb}.cls-34{fill:#ddd1ea}.cls-38{fill:#919c49}.cls-41{fill:#67380c}.cls-42{fill:#010514}.cls-43{fill:#ecb855}</style></defs><g id="Group_665" data-name="Group 665" transform="translate(-.052 .024)"><path id="Path_1227" data-name="Path 1227" d="M403.7 142.3c-5.8-4.9-12-9-11.7-17.5.2-7.5 4.4-14.1 6.6-21 1.6-5.1 2.3-10.5 3.8-15.7 1.4-5 4.4-9.2 6.4-14a103.6 103.6 0 0 0 4.9-14.2c2.3-8.7 3-18 .4-26.7-5.6-18.6-24-27.1-42-28.8-15.1-1.4-30.6.3-45.5 2.9-7.6 1.3-15.1 3-22.5 4.7-13.3 3.1-26.5 6.9-39.9 9.2-7.2 1.2-14.9 2.3-22.2 1.3a19.236 19.236 0 0 1-4.6-1.1 62.877 62.877 0 0 1-19.3-1.3c-9.8-2.3-18-8-27-12.1A83.354 83.354 0 0 0 166.8.6c-18.8-2.3-38.6 2-55.8 8.9-16.8 6.7-32.9 17.4-42.1 33.4-1.9 3.2-4.1 7.5-4.1 11.3.1 5.5.8 10.8-.6 16.2-2 7.9-8.2 13.1-15 16.9-12.2 6.9-26.3 10.4-34 23.2-15.5 25.7-2.1 55.5 16 75.7a125.215 125.215 0 0 0 34.7 27.1c14.3 7.6 29.7 9.6 45.5 12.1a256.811 256.811 0 0 1 29 5.9c2.4.7 4.8 1.4 7.1 2.3 4.8 6.3 11.5 10.8 17.9 15.3 3.7 2.6 7.6 5 11.4 7.4 5 4.8 11.3 8.5 17.4 11.6 1.4.7 2.8 1.4 4.2 2 .8.4 1.6.7 2.3 1A93.8 93.8 0 0 0 247 278c19.9-1.9 38.9-9.9 56.5-19a501.4 501.4 0 0 0 52.7-31.4 172.774 172.774 0 0 0 42.2-40.5c5.5-7.6 10.5-14.9 12.1-24.3.7-4 .9-8.6-.6-12.4-1.1-3.3-3.6-5.9-6.2-8.1z" fill="#f9eae9"/><g id="Group_664" data-name="Group 664"><g id="Group_661" data-name="Group 661"><g id="Group_604" data-name="Group 604"><g id="Group_578" data-name="Group 578"><g id="Group_576" data-name="Group 576"><g id="Group_574" data-name="Group 574"><path id="Path_1228" data-name="Path 1228" class="cls-2" d="M214.9 238.6l-1.1 11.8-8.2 90.2h-9.2l.6-88.8.1-13.2z"/><path id="Path_1229" data-name="Path 1229" class="cls-3" d="M197.1 238.6h17.8l-1.1 12c-6.5.5-12.1 1.3-16.7 1.7z"/></g><g id="Group_575" data-name="Group 575"><path id="Path_1230" data-name="Path 1230" class="cls-2" d="M234.9 238.6l1.1 11.8 8.2 90.2h9.2l-.6-88.8-.1-13.2z"/><path id="Path_1231" data-name="Path 1231" class="cls-3" d="M252.7 238.6h-17.8l1.1 12c6.5.5 12.1 1.3 16.7 1.7z"/></g></g><g id="Group_577" data-name="Group 577"><path id="Path_1232" data-name="Path 1232" class="cls-4" d="M262.4 234.1a6.487 6.487 0 0 1-6.5 6.5h-62a6.487 6.487 0 0 1-6.5-6.5v-1a6.487 6.487 0 0 1 6.5-6.5h62a6.487 6.487 0 0 1 6.5 6.5z"/></g></g><g id="Group_603" data-name="Group 603"><path id="Path_1233" data-name="Path 1233" class="cls-5" d="M243.2 158.1a39.587 39.587 0 0 1-4.6-8c-1.1-2.7-1.4-5.8-2.3-8.6-1.8-5.7-10.3-6.6-15.3-6.7a35.878 35.878 0 0 0-9.8 1.6 10.722 10.722 0 0 0-4.5 2.3 23.683 23.683 0 0 0-1.4 3.2c-.2-.1-.4-.1-.5.2 0 .1 0 .1-.1.2a.44.44 0 0 0-.1.5c-.5 1.6-.9 3.2-1.4 4.7-.8 2.6-2.8 4.3-4.6 6.3-1.9 2-3.9 5.1-3.9 8 0 2 .8 4.6 3.1 5 3.1.6 5.1-.5 7.5-1.8-.9 2.4-1.7 4.1-1.1 7.1.4 2.2 2.1 3.5 4.1 4.3a7.578 7.578 0 0 0 8.2-2.1c1.2 2.6 5 4.5 7.4 4.9 2.2.3 3.8-1.4 4.8-3.1a5.36 5.36 0 0 0 .8-4.1c2.3 1.3 5.1 2 7.3.2a3.074 3.074 0 0 0 1.2-2.2c2.8.5 6.5-1.4 8-3.5 1.9-2.6-1.3-6.4-2.8-8.4z"/><g id="Group_579" data-name="Group 579"><path id="Path_1234" data-name="Path 1234" class="cls-6" d="M233.4 194.5a70.131 70.131 0 0 0-1.2 9.2c0 .1-1.2 2.6-7.3 2.8-7.3.2-10.4-2.2-10.4-2.2a58.843 58.843 0 0 0-1.8-8.1c-3.1-11.4-8.4-22.8-6.9-27.3a27.788 27.788 0 0 1 3.8-1.2 51.287 51.287 0 0 1 6.5-1 5.9 5.9 0 0 0 1.4-.2c.6-.1 1.1-.1 1.6-.2a4.484 4.484 0 0 1 1.1-.1 45.619 45.619 0 0 1 9 .2c3.3.4 6.5.9 9.3 1.3 2.1 3.8-2.7 14.3-5.1 26.8z"/><path id="Path_1235" data-name="Path 1235" class="cls-7" d="M229.3 166.3c-4.9 9.5-12.4 5.1-17.1.8 1.9-.3 3.7-.5 5.3-.7.6-.1 1.1-.1 1.6-.2a4.484 4.484 0 0 1 1.1-.1 46.63 46.63 0 0 1 9.1.2z"/></g><g id="Group_582" data-name="Group 582"><path id="Path_1236" data-name="Path 1236" class="cls-6" d="M248.9 227.8c-5.7 6.5-40.2 7.4-48.3-.5a5.86 5.86 0 0 1-1.5-6c1.9-8.4 15.9-19.1 15.9-19.1 7.4 4.2 17.6-.8 17.6-.8 3.7.9 11.7 8.9 15.5 16.2 2.1 4 2.8 7.9.8 10.2z"/><path id="Path_1237" data-name="Path 1237" d="M248.1 217.5a20.151 20.151 0 0 0-13.3 1.1c-2.9 1.4-5.3 3.6-8.3 4.5-3.7 1.1-7.6-2.3-10.9-3.5-4.9-1.8-11.7-2.8-15.9 1.1a4.35 4.35 0 0 0-.6.7 6.02 6.02 0 0 0 1.5 6c8.1 7.9 42.6 7 48.3.5 2-2.4 1.3-6.3-.8-10.4z" fill="#bf5c8f"/><g id="Group_580" data-name="Group 580"><path id="Path_1238" data-name="Path 1238" class="cls-9" d="M217.9 290.4a23.535 23.535 0 0 1-6.7 4.6c-1.8.7-3.7 1.8-5.6 1.8-1.7-.1-1.2-2-.8-3l.3-.6c1.6-3.1 4.5-5 4.9-8.9.5-5.2-1.3-11.6-1.2-11.8a2.354 2.354 0 0 0-.2-.8 180.818 180.818 0 0 1-3.4-20.4c-.4-4.4-.5-8.8-.5-13.2a34.559 34.559 0 0 1 1.2-10.6c1.5-4.6 5.2-9.3 10.7-7.3a.367.367 0 0 1 .3.1l.6.3a.55.55 0 0 1 .3.5 3.037 3.037 0 0 1 1.2 2.1c0 2.6-1 5.1-1.4 7.7-1.1 6.3-2.4 12.7-2.5 19.1 0 6.3 1.5 26.1 1.6 28.2a17.5 17.5 0 0 0 1.5 5.8c1.3 2.5 2.2 4.3-.3 6.4z"/><path id="Path_1239" data-name="Path 1239" class="cls-10" d="M217.9 290.4a23.535 23.535 0 0 1-6.7 4.6c-1.8.7-3.7 1.8-5.6 1.8-1.7-.1-1.2-2-.8-3l.3-.6c3.4-.3 8.7-2.1 13.2-9.2 1.2 2.5 2.1 4.3-.4 6.4z"/></g><g id="Group_581" data-name="Group 581"><path id="Path_1240" data-name="Path 1240" class="cls-9" d="M231.3 290.4a23.535 23.535 0 0 0 6.7 4.6c1.8.7 3.7 1.8 5.6 1.8 1.7-.1 1.2-2 .8-3l-.3-.6c-1.6-3.1-4.5-5-4.9-8.9-.5-5.2 1.3-11.6 1.2-11.8a2.354 2.354 0 0 1 .2-.8 180.818 180.818 0 0 0 3.4-20.4c.4-4.4.5-8.8.5-13.2a34.559 34.559 0 0 0-1.2-10.6c-1.5-4.6-5.2-9.3-10.7-7.3a.367.367 0 0 0-.3.1l-.6.3a.55.55 0 0 0-.3.5 3.037 3.037 0 0 0-1.2 2.1c0 2.6 1 5.1 1.4 7.7 1.1 6.3 2.4 12.7 2.5 19.1 0 6.3-1.5 26.1-1.6 28.2a17.5 17.5 0 0 1-1.5 5.8c-1.2 2.5-2.1 4.3.3 6.4z"/><path id="Path_1241" data-name="Path 1241" class="cls-10" d="M231.3 290.4a23.535 23.535 0 0 0 6.7 4.6c1.8.7 3.7 1.8 5.6 1.8 1.7-.1 1.2-2 .8-3l-.3-.6c-3.4-.3-8.7-2.1-13.2-9.2-1.1 2.5-2 4.3.4 6.4z"/></g></g><g id="Group_583" data-name="Group 583"><path id="Path_1242" data-name="Path 1242" class="cls-7" d="M205 203.5a5.617 5.617 0 0 0-2.2-1.9 16.177 16.177 0 0 0-8.3-4c.6-1 1.3-2 1.9-3a37.06 37.06 0 0 0 6.6-13.7c.4-1.8 1.2-6.1-.6-7.6-1.4-1.2-2.7-.2-3.5 1-2.8 2.1-4.9 6.1-6.8 8.8a45.011 45.011 0 0 0-6.6 12.9c-.7 2.1-1.6 5.8-.2 7.8a2.361 2.361 0 0 0 .8.9 16.6 16.6 0 0 0 2.5 1.4c5.1 2.1 11 1.1 15.8-1a1.235 1.235 0 0 0 .6-1.6z"/><path id="Path_1243" data-name="Path 1243" class="cls-7" d="M212.2 203a1.694 1.694 0 0 0-2.3 0 1.482 1.482 0 0 0-1.3 1.1v.2c-.2-.3-.4-.5-.6-.8-.6-.8-1.3-1.5-1.9-2.2-.9-1.1-2.8.1-2.4 1.4.1.2.2.5.3.7a13.034 13.034 0 0 0-2.2-1.9 1.662 1.662 0 0 0-2.3.6 1.715 1.715 0 0 0 0 1.7c.2.2.3.4.5.6a1.381 1.381 0 0 0-.4-.3 2.513 2.513 0 0 0-1.4-.6 1.422 1.422 0 0 0-.6.2h-.3a.451.451 0 0 0-.3.3c-.2 1.5 1.1 3.4 2.7 4.2a4.411 4.411 0 0 0 1.5.8.55.55 0 0 0 .5-.3c.2 0 .3-.3.3-.5v-.3a1.4 1.4 0 0 0 .2-1.4 2.652 2.652 0 0 0-.5-.6c.7.6 1.3 1.5 2.2 1.7a1.471 1.471 0 0 0 1.9-1.4 1.268 1.268 0 0 0-.1-.6 6.279 6.279 0 0 0 1.1 1.2 1.371 1.371 0 0 0 2.3-.7 1.234 1.234 0 0 0 .8.4 1.933 1.933 0 0 0 1.5 0c1.8-.2 2.1-2.3.8-3.5z"/></g><path id="Path_1244" data-name="Path 1244" class="cls-6" d="M209.7 173.7c-.2-1.4-.3-3.5-1.5-4.3-.6-.7-1.6-1.2-2.2-1.9a6.652 6.652 0 0 0-3.2-1.7 7.149 7.149 0 0 0-6.6 1.4c-3.8 3.3-4.7 8.9-1.3 12.9 2.8 3.4 8.8 4.8 12.2 1.1a9.656 9.656 0 0 0 2.6-7.5z"/><g id="Group_599" data-name="Group 599"><g id="Group_585" data-name="Group 585"><g id="Group_584" data-name="Group 584"><path id="Path_1245" data-name="Path 1245" class="cls-7" d="M225.4 166.6c0 2.7-4.5 3.5-4.5 3.5-2.7 0-4.5-.9-4.5-3.5v-8.9c0-2.7 1.6-5.1 4.3-5.1h.2c2.7 0 4.5 2.5 4.5 5.1z"/></g></g><g id="Group_589" data-name="Group 589"><g id="Group_588" data-name="Group 588"><g id="Group_586" data-name="Group 586"><path id="Path_1246" data-name="Path 1246" class="cls-7" d="M203.2 138.7s-6-5.2-7.2.7 6.8 7.9 6.8 7.9z"/><path id="Path_1247" data-name="Path 1247" class="cls-11" d="M202.6 140.8s-3.2-4-4-2.2a7.273 7.273 0 0 0-.3 4s.3-2.5 2.3-1.3c0 0-1.4 4.1 2.1 2.6a2.366 2.366 0 0 0-.1-3.1z"/></g><g id="Group_587" data-name="Group 587"><path id="Path_1248" data-name="Path 1248" class="cls-7" d="M238.2 138.7s6-5.2 7.2.7-7 8.5-7 8.5z"/><path id="Path_1249" data-name="Path 1249" class="cls-11" d="M238.8 140.8s3.2-4 4-2.2a7.273 7.273 0 0 1 .3 4s-.3-2.5-2.3-1.3c0 0 1.4 4.1-2.1 2.6a2.366 2.366 0 0 1 .1-3.1z"/></g></g></g><g id="Group_590" data-name="Group 590"><path id="Path_1250" data-name="Path 1250" class="cls-9" d="M240.2 135.8c-.1.6-.2 1.3-.3 1.9a106.766 106.766 0 0 1-2.4 12.3c-2.1 7.6-12.2 11.4-15.8 11.1-18.6-2.3-19.6-14.2-19.5-15.5a42.917 42.917 0 0 0-.3-6.2c-.1-1.1-.2-2.2-.4-3.3a17.667 17.667 0 0 1-.2-5.6v-.3a28.971 28.971 0 0 1 1.7-5.5c2.4-5.3 7.1-11.3 14-11.4a15.943 15.943 0 0 1 4.8.7 30.774 30.774 0 0 1 6.4 2.7c4.3 2.4 8.6 5.2 10.7 9.5 1.7 3.2 1.7 6.3 1.3 9.6z"/></g><g id="Group_597" data-name="Group 597"><g id="Group_596" data-name="Group 596"><path id="Path_1251" data-name="Path 1251" d="M222.2 145.2a3.582 3.582 0 0 1-.4-1.1c-.2-.5 0-5.9-1.4-5.1-.8.4-.4 2.7-.5 3.5a4.99 4.99 0 0 1-.5 2.1c-.1.2-.6.4-.7.6a4.35 4.35 0 0 0-.6.7c-.3.7-.2 1.3.6 1.2a1.166 1.166 0 0 0 1 1c1.1.2 1.6-1 1.8-1.9-.3 1 2.5 1.1.9-.7a1.237 1.237 0 0 1-.2-.3z" fill="#8d5138"/><g id="Group_592" data-name="Group 592"><path id="Path_1252" data-name="Path 1252" class="cls-13" d="M217.1 138.5a5.6 5.6 0 1 1-5.6-5.6 5.591 5.591 0 0 1 5.6 5.6z"/><g id="Group_591" data-name="Group 591"><path id="Path_1253" data-name="Path 1253" class="cls-14" d="M215 138.2c0 2.6-1.6 4.6-3.5 4.6s-3.5-2.1-3.5-4.6c0-2.6 1.6-4.6 3.5-4.6s3.5 2 3.5 4.6z"/><path id="Path_1254" data-name="Path 1254" class="cls-15" d="M213.9 138.2c0 1.8-1.1 3.3-2.5 3.3s-2.5-1.5-2.5-3.3 1.1-3.3 2.5-3.3 2.5 1.5 2.5 3.3z"/><path id="Path_1255" data-name="Path 1255" class="cls-13" d="M214.1 135.1c0 .5-.6.9-1.3.9s-1.3-.4-1.3-.9.6-.9 1.3-.9 1.3.4 1.3.9z"/></g><path id="Path_1256" data-name="Path 1256" class="cls-16" d="M211.4 132.1c-3.7-.4-6.6 3-6.6 6.4 0 .4.4.4.6.2 1.5-2.1 2-4.1 4.8-4.9 4.1-1.2 6.3 3 6.5 6.3a.251.251 0 0 0 .5 0c.4-3.9-1.7-7.6-5.8-8z"/></g><g id="Group_594" data-name="Group 594"><path id="Path_1257" data-name="Path 1257" class="cls-13" d="M225.2 138.5a5.6 5.6 0 1 0 5.6-5.6 5.591 5.591 0 0 0-5.6 5.6z"/><g id="Group_593" data-name="Group 593"><path id="Path_1258" data-name="Path 1258" class="cls-14" d="M234.3 138.2c0 2.6-1.6 4.6-3.5 4.6s-3.5-2.1-3.5-4.6 1.6-4.6 3.5-4.6 3.5 2 3.5 4.6z"/><path id="Path_1259" data-name="Path 1259" class="cls-15" d="M233.2 138.2c0 1.8-1.1 3.3-2.5 3.3s-2.5-1.5-2.5-3.3 1.1-3.3 2.5-3.3 2.5 1.5 2.5 3.3z"/><path id="Path_1260" data-name="Path 1260" class="cls-13" d="M233.4 135.1c0 .5-.6.9-1.3.9s-1.3-.4-1.3-.9.6-.9 1.3-.9 1.3.4 1.3.9z"/></g><path id="Path_1261" data-name="Path 1261" class="cls-16" d="M230.7 132.1c3.7-.4 6.6 3 6.6 6.4 0 .4-.4.4-.6.2-1.5-2.1-2-4.1-4.8-4.9-4.1-1.2-6.3 3-6.5 6.3a.251.251 0 0 1-.5 0c-.5-3.9 1.7-7.6 5.8-8z"/></g><path id="Path_1262" data-name="Path 1262" class="cls-17" d="M213.8 144.8c0 1.2-1.9 2.2-4.3 2.2s-4.3-1-4.3-2.2 1.9-2.2 4.3-2.2c2.3 0 4.3 1 4.3 2.2z"/><path id="Path_1263" data-name="Path 1263" class="cls-17" d="M235.9 144.8c0 1.2-1.9 2.2-4.3 2.2s-4.3-1-4.3-2.2 1.9-2.2 4.3-2.2 4.3 1 4.3 2.2z"/><g id="Group_595" data-name="Group 595"><path id="Path_1264" data-name="Path 1264" class="cls-16" d="M218.9 129.2c-1.7-2.4-5.6-2.1-8.1-1.6-2.2.5-5.9 2.3-5.9 4.9 0 .2.2.4.4.2 1.9-1.4 3.4-2.7 5.8-3.3 2.7-.6 4.7.5 7.2.7.6.1.8-.5.6-.9z"/><path id="Path_1265" data-name="Path 1265" class="cls-16" d="M223.5 129.2c1.7-2.4 5.6-2.1 8.1-1.6 2.2.5 5.9 2.3 5.9 4.9 0 .2-.2.4-.4.2-1.9-1.4-3.4-2.7-5.8-3.3-2.7-.6-4.7.5-7.2.7-.7.1-.9-.5-.6-.9z"/></g></g></g><g id="Group_598" data-name="Group 598"><path id="Path_1266" data-name="Path 1266" d="M230.3 147a24.014 24.014 0 0 1-2.4 5 7.1 7.1 0 0 1-1 1.4c-2.2 2.7-5.4 4.5-9.6 1.1a18.909 18.909 0 0 1-3.5-3.8c-.7-.9-1.3-1.9-2-3 .3.2 9.9 5.3 18.5-.7z" fill="#622819"/><path id="Path_1267" data-name="Path 1267" class="cls-13" d="M230.3 147a24.014 24.014 0 0 1-2.4 5c-5.1 1.1-11.1-.3-14.2-1.2-.7-.9-1.3-1.9-2-3 .4.1 10 5.2 18.6-.8z"/><path id="Path_1268" data-name="Path 1268" class="cls-19" d="M226.9 153.4c-2.2 2.7-5.4 4.5-9.6 1.1 2.3-1.2 6.7-3.1 9.6-1.1z"/></g><path id="Path_1269" data-name="Path 1269" class="cls-5" d="M241.7 118c-.6-2.9-3-5.2-5.1-7.4a16.451 16.451 0 0 0-7.9-4.2c-.3-.1-.6-.1-.9-.2a27.33 27.33 0 0 0-4-.5h-1.3a26.878 26.878 0 0 0-5.6.4c-.5.1-.9.2-1.4.3-5.7 1.3-11.2 4.3-13.4 9.4-.2.2-.4.3-.5.5a16.2 16.2 0 0 0-3.8 6 7.494 7.494 0 0 0-.5 1.6 15.524 15.524 0 0 0-.4 2.1 19.294 19.294 0 0 0 0 3.4c.1.5.1 1 .2 1.5a71.412 71.412 0 0 0 2.4 8 .573.573 0 0 0 1.1 0v-.1a.582.582 0 0 0 1-.2c1.8-4.2 3.6-7.1 7.5-9.5 2.8-1.7 5.9-3 8.6-4.8a25.3 25.3 0 0 0 5.9-5 19.959 19.959 0 0 0 3.3 5.1c2.1 2.4 4.5 4.5 6.8 6.7 2.4 2.3 3.4 5 5.2 7.6a1.092 1.092 0 0 0 2-.3 47.17 47.17 0 0 0 2.4-11.5v-1a16.73 16.73 0 0 0-1.6-7.9z"/><path id="Path_1270" data-name="Path 1270" class="cls-20" d="M223.7 105.8a35.368 35.368 0 0 1-3.3 6.1 41.68 41.68 0 0 1-9.2 10 79.055 79.055 0 0 1-14.2 8.9 7.719 7.719 0 0 1-.2-1.5 67.478 67.478 0 0 0 11.9-6.8c3.9-2.9 7.7-6.1 10.4-10.2a45.958 45.958 0 0 0 3.9-6.6c.2 0 .5.1.7.1z"/><path id="Path_1271" data-name="Path 1271" class="cls-20" d="M216.8 106.1c-1.2 2-2.4 4-3.8 5.9a33.96 33.96 0 0 1-15.8 11.8 14.243 14.243 0 0 1 .5-1.6 25.46 25.46 0 0 0 5-2.4 35.822 35.822 0 0 0 10-9.4c.9-1.3 1.8-2.7 2.7-4 .5-.1 1-.2 1.4-.3z"/><path id="Path_1272" data-name="Path 1272" class="cls-20" d="M243.4 125.9v1a17.262 17.262 0 0 1-10-6.7 26.882 26.882 0 0 1-5.6-13.9c.3.1.6.1.9.2a22.678 22.678 0 0 0 4.3 11.2c2.4 3.3 6.1 7.1 10.4 8.2z"/></g><g id="Group_602" data-name="Group 602"><path id="Path_1273" data-name="Path 1273" class="cls-7" d="M262.8 182.5c-.3 0-.7.2-.7.5-.2.1-.2.5-.2.7.7 2 .1 4.3-.5 6.3-.3 1-1.4 4.4-3.2 3.4-1-.5-1.7-1.8-2.3-2.7-2-3.2-2.8-7-4.2-10.4-1.1-2.8-3.5-5.8-6.8-5.8-2.6 0-2.4 3.7-1.9 5.5a23.032 23.032 0 0 0 2.3 7.6 82.352 82.352 0 0 0 5.9 11.9c2.5 3.9 6.4 7.8 10.7 3.9 3-2.8 9.1-21.3.9-20.9z"/><path id="Path_1274" data-name="Path 1274" class="cls-6" d="M237.7 168.3c-.8 1.1-2.3 2.6-2 4.1-.1.9.3 2 .2 2.9a7.42 7.42 0 0 0 1 3.5 7.12 7.12 0 0 0 5.7 3.7 9.2 9.2 0 0 0 10.1-8.2c.4-4.4-2.9-9.6-7.8-9.4a9.7 9.7 0 0 0-7.2 3.4z"/><g id="Group_600" data-name="Group 600"><path id="Path_1275" data-name="Path 1275" class="cls-21" d="M263.4 202a.848.848 0 0 0 1.6-.3c.7-5.1-.8-10.5-1.7-15.6a111.067 111.067 0 0 0-4.2-17 .531.531 0 0 0-1 .2 135 135 0 0 0 1.3 15.5c.9 5.7 1.4 12.2 4 17.2z"/><path id="Path_1276" data-name="Path 1276" class="cls-21" d="M259.2 152.8a.317.317 0 0 0-.6.1c-.1 3.7.8 7.4 1.2 11.1 0 .4.2 1.2-.2 1.4-.6.4-.8-.5-.9-.9-.1-.6-.1-1.2-.2-1.8a29.534 29.534 0 0 0-2.3-9.3.317.317 0 0 0-.6.1 44.645 44.645 0 0 0 .9 8.1c.1.5 1.3 4.6.1 4.7-1 .1-1.3-2.8-1.5-3.7-.3-1.8-.7-3.6-1-5.4a13.853 13.853 0 0 0-1-3.3.317.317 0 0 0-.6.1c-.2 4.7.1 11.6 3.2 15.6a2.94 2.94 0 0 0 1.5 1.4 2.911 2.911 0 0 0 3.5-.6 6.757 6.757 0 0 0 1.3-4.9c.2-4.3-1.4-9.2-2.8-12.7z"/></g><path id="Path_1277" data-name="Path 1277" class="cls-7" d="M263.6 178a3.7 3.7 0 0 0-1.5 0 23 23 0 0 0-2.6.3c-.4.1-.8.2-1.1.3 0-.1.1-.1.1-.3v.1s0-.4.1-.5a1.622 1.622 0 0 0-1.1-1.6c-1.9-.5-3.8 3.7-2.6 5a1.6 1.6 0 0 0 2.3 0l.3-.3a2.761 2.761 0 0 0 .8.6c.3.1.6-.5 1-.4-1.4.9-.8 2.5.9 2.5h.1c-.1 0-.2.7-.3.8a2.355 2.355 0 0 0-.8 2.1 2.493 2.493 0 0 0 2.9 1.8c1.4-.1 3-.3 3.9-1.4 1.2-1.5.9-4 .2-5.6a10.1 10.1 0 0 0-1.4-2.5 3.208 3.208 0 0 0-1.2-.9z"/><g id="Group_601" data-name="Group 601"><path id="Path_1278" data-name="Path 1278" class="cls-19" d="M265.1 150.3c-6.1 15-18.3 1.8-18.7 1.3l3.2-.2 13.6-.9z"/><path id="Path_1279" data-name="Path 1279" d="M263.2 150.4c-3.7 8.2-10.4 3.7-13.6.9z" fill="#c27366"/></g></g></g></g><g id="Group_624" data-name="Group 624"><g id="Group_606" data-name="Group 606"><path id="Path_1280" data-name="Path 1280" class="cls-4" d="M337 252.6c17.9.3 67.2-5.7 65.1 8.1l-79.7.9s-3.3-9.3 14.6-9z"/><g id="Group_605" data-name="Group 605"><path id="Path_1281" data-name="Path 1281" class="cls-2" d="M401.1 278.6l.8 61.9h-3.7l-5.2-61.6-1.1-12.8 9 .3z"/><path id="Path_1282" data-name="Path 1282" class="cls-2" d="M331.6 266.4l9-.3-1.2 14.7-5.1 59.7h-3.7l.8-59.5z"/><path id="Path_1283" data-name="Path 1283" class="cls-3" d="M401.1 278.6l-8.1.3-1.1-12.8 9 .3z"/><path id="Path_1284" data-name="Path 1284" class="cls-3" d="M340.6 266.1l-1.2 14.7-8 .2.2-14.6z"/></g><path id="Path_1285" data-name="Path 1285" class="cls-4" d="M425.8 184.2c.9 28.2-22.5 75.6-22.5 75.6l-4.8-4c-9-5.8 10.3-43.9 15.2-59.1 5-15.2 12.1-12.5 12.1-12.5z"/><path id="Path_1286" data-name="Path 1286" class="cls-2" d="M429.3 173.7c.1 0 .3.1.4.1.5 13.5-2.6 50.8-26.5 93.2l-3.1-1.8-2.8-.7s26.4-40.2 27.7-90.7a30.517 30.517 0 0 0 4.3-.1z"/><path id="Rectangle_33" data-name="Rectangle 33" class="cls-2" transform="translate(319.7 259.8)" d="M0 0h83.6v7.2H0z"/></g><g id="Group_623" data-name="Group 623"><g id="Group_607" data-name="Group 607"><path id="Path_1287" data-name="Path 1287" class="cls-23" d="M390.8 229l-8.4-1.9c-.8.3-36.8 7.2-59.6 15a32.151 32.151 0 0 0-7.5 6.7h5.5v11a153.288 153.288 0 0 0 19.2-.2s2.9-.2 7.5-.7c18.9-2 65.8-9.3 43.3-29.9z"/><path id="Path_1288" data-name="Path 1288" class="cls-24" d="M342.2 242.1c-6.8-3.5-14.2-1.1-21.1 1.1a30.586 30.586 0 0 0-6.1 5.8c-1.6 2.1-5.1 9.8 6.9 10.6a136.663 136.663 0 0 0 18.1-.1s3-.2 7.5-.7c2-6 .5-13.7-5.3-16.7z"/></g><g id="Group_608" data-name="Group 608"><path id="Path_1289" data-name="Path 1289" class="cls-7" d="M347.3 324.5c-.9-2-2.6-3.9-3.7-5.9-.1-.1-.1-.2-.2-.3-.3-.6-.6-1.3-.9-2-1.1-23.7 0-59.2-12.4-66.1 0 0-5.2-13.1-13 2.9s19.2 67.7 19.2 67.7c-.8 3.4-1 7-1.8 10.4a6.475 6.475 0 0 1-1.2 2.5c-2 2.2-5.6 1.6-7.8 4.2a1.36 1.36 0 0 0 .6 2.2c3.3 1.1 8.8.2 12.3-.5 4-.8 3.3-3.3 5.1-6.9 1.8-3.7 5.6-4.1 3.8-8.2z"/><path id="Path_1290" data-name="Path 1290" class="cls-23" d="M347.3 324.5c-.9-2-2.6-3.9-3.7-5.9a33.479 33.479 0 0 0-2.8 4.2c-1.8 3-2.5 6.6-5 9.1a10.766 10.766 0 0 1-2.4 1.8c-2 2.2-5.6 1.6-7.8 4.2a1.36 1.36 0 0 0 .6 2.2c3.3 1.1 8.8.2 12.3-.5 4-.8 3.3-3.3 5.1-6.9 1.7-3.7 5.5-4.1 3.7-8.2z"/></g><g id="Group_609" data-name="Group 609"><path id="Path_1291" data-name="Path 1291" class="cls-9" d="M344.9 249.3s-5.6-10-12.2-4.3c-1.3 1.1-1.8 4.3-2.4 5.8-1.7 4.8-3.7 9.4-5.4 14.2-4.7 13.2-11.4 27-16.4 40-3.8 9.8-3.6 14.5-10.5 22.8-2.4 2.9-8.7 5.3-12.8 6.7a9.287 9.287 0 0 1-1.3.4c-.6.2-1.5.3-2.5.5-2.9.4-6.2 1-3 3.5a11.921 11.921 0 0 0 10.1 2.5c3.2-.5 4.8-1.5 8.1-1 2.4.4 5 .9 7.1-.6a6.794 6.794 0 0 0 2.4-3.6c.5-1.6.8-3.4 1.3-4.8 1-2.8 2.3-5.7 3.3-8.5 15.9-25.3 39.1-65.3 34.2-73.6z"/><path id="Path_1292" data-name="Path 1292" class="cls-23" d="M307.5 331.6c-.5 1.5-.8 3.2-1.3 4.8a6.794 6.794 0 0 1-2.4 3.6c-2.1 1.4-4.8 1-7.1.6-3.3-.5-4.9.5-8.1 1a11.921 11.921 0 0 1-10.1-2.5c-3.2-2.6.1-3.1 3-3.5a13.749 13.749 0 0 0 2.5-.5c.4-.1.8-.3 1.3-.4 5.7.8 14.7 1.3 22.2-3.1z"/></g><path id="Path_1293" data-name="Path 1293" class="cls-5" d="M361.4 79.2l-14.7 12.6c-1 .5-8.6 5.2-7.3 32.9.3 7.2-10.6 18.1-6.1 24.5s67.3 11.7 75.3 2.6c8-9 4.8-93.5-47.2-72.6z"/><g id="Group_610" data-name="Group 610"><path id="Path_1294" data-name="Path 1294" class="cls-7" d="M293 205.1c-.1.1-.1.2-.2.2a.481.481 0 0 0 .4.7h.9a.446.446 0 0 0 .5 0l.1-.4c2.3-.4 4.4-2.1 6.8-2.1-.7 1-1.4.5-2 1a3.347 3.347 0 0 0-1.7 1c-.4.3-.1.9.4 1a22.038 22.038 0 0 0 3.6-.4c.4 0 .9-.1 1.3-.1 2.2-.1 4.5-.3 6.8-.3 2.5 0 4.8.4 7.2-.5a1.411 1.411 0 0 0 1.2-.8c.4-1 .4-3.2-1.1-3.2h-.1a16.09 16.09 0 0 1-8.7-.8 24.354 24.354 0 0 0-5.9-1.5c-2.9-.3-6.8.6-8.1 3.4a6.268 6.268 0 0 0-1.7 2c-.2.4 0 .8.3.8zm2.8-1.8a5.574 5.574 0 0 1 4.5-1.2.9.9 0 0 1 .5.1 19.279 19.279 0 0 0-4.3.9 1.445 1.445 0 0 0-.7.2z"/><path id="Path_1295" data-name="Path 1295" class="cls-24" d="M314.8 199.3c11.4-1.6 27.7.3 30.8-2.7s6.3-25.4 11.8-33.9c6.2-9.6 9.7 8.1 9.7 8.1s-5.2 26.2-14.4 33.9c-4.1 3.5-37.3 1.4-37.3 1.4.1-.6-.6-6.3-.6-6.8z"/></g><path id="Path_1296" data-name="Path 1296" class="cls-23" d="M390.4 155.2c-1.1-.6-3.5-.9-6.6-.8a71.8 71.8 0 0 0-16 2.3c-6 1.5-10.8 3.7-11 6.2 0 0 17.2 37.5 20.3 48.5 3.1 11.1 1.1 19.1 1.1 19.1s12.6 2.3 12.6 1.1c0-1.1 4.2-73.7-.4-76.4z"/><path id="Path_1297" data-name="Path 1297" class="cls-23" d="M364.9 170.6c-4.8 0-8.6 4.1-8.6 9.2s3.9 9.2 8.6 9.2 8.6-4.1 8.6-9.2-3.9-9.2-8.6-9.2z"/><path id="Path_1298" data-name="Path 1298" class="cls-7" d="M383.7 154.4a71.8 71.8 0 0 0-16 2.3c-1.6 7.6-10 50.9 16-2.3z"/><path id="Path_1299" data-name="Path 1299" class="cls-7" d="M365.2 136.6l5 24.3s3.3 1.9 7.5-2.1l-2.3-24.1z"/><g id="Group_619" data-name="Group 619"><g id="Group_611" data-name="Group 611"><path id="Path_1300" data-name="Path 1300" class="cls-7" d="M390.3 118.5s9-4.7 8.7 3.1-10.9 7.8-10.9 7.8z"/><path id="Path_1301" data-name="Path 1301" class="cls-11" d="M390.1 122.1s5.2-4.1 5.7-1.5a10.149 10.149 0 0 1-.8 5.1s.4-3.2-2.4-2.3c0 0 .5 5.5-3.4 2.6-.1 0-1.4-2 .9-3.9z"/></g><path id="Path_1302" data-name="Path 1302" class="cls-9" d="M373 144.5c-18.4 5.1-24.4-6-25.9-13a16.972 16.972 0 0 1-.4-3.5 17.732 17.732 0 0 0-.1-2.2c-.3-6.5-1.7-18.3-1.7-18.3 22.2-30.3 48.5-2.6 48.5-2.6s1.6 33.6-20.4 39.6z"/><g id="Group_612" data-name="Group 612"><path id="Path_1303" data-name="Path 1303" class="cls-5" d="M399.6 113.8c-7.6 3.6-19.6 1.1-28.5 1.5-1.6-3.7-3.8-10.4-5.9-22.3 0 0-1.2 14.2.3 22.4q-5.25 0-9.9-.3c-1.1-7.2 2.1-18.6 2.2-18.9-3.6 5.3-4.6 15.9-4.7 18.7a135.832 135.832 0 0 1-14.4-1.9s.8-30.8 30.6-35.2a19.419 19.419 0 0 1 2.4-.2h.5a20.53 20.53 0 0 1 5.7.5 2.92 2.92 0 0 0 .9.2c7.4 2.1 12.3 8.3 15.4 14.9.1.3.3.6.4.9a70.626 70.626 0 0 1 3.4 10.1c.1.4.2.8.3 1.3a77.682 77.682 0 0 1 1.3 8.3z"/><path id="Path_1304" data-name="Path 1304" class="cls-25" d="M398.2 105.5c-4.9 2.1-10.4 2.2-15-1-9-6.2-11.4-16.8-11.5-27h.5c.3 9.4 2.7 20.1 11 25.6a14.921 14.921 0 0 0 14.6 1.2c.1 0 .1-.1.2-.1a5.065 5.065 0 0 0 .2 1.3z"/><path id="Path_1305" data-name="Path 1305" class="cls-25" d="M394.5 94.2a10.6 10.6 0 0 1-9.8-1.5c-4-2.9-6-7.9-6.6-12.6-.1-.6-.2-1.3-.3-2a2.92 2.92 0 0 0 .9.2.9.9 0 0 0 .1.5c.5 4.7 2.2 9.6 6 12.6a9.9 9.9 0 0 0 9.3 1.8 4.18 4.18 0 0 1 .4 1z"/></g><g id="Group_618" data-name="Group 618"><path id="Path_1306" data-name="Path 1306" d="M365 133.1c-4.1-.7-9.3-1.3-12.4.3 7.6 13.5 17.8 0 17.8 0a23.915 23.915 0 0 1-5.4-.3z" fill="#bc4a38"/><path id="Path_1307" data-name="Path 1307" class="cls-13" d="M354.9 134.5c6 7.5 11.6.4 11.6.4a43.328 43.328 0 0 0-11.6-.4z"/><path id="Path_1308" data-name="Path 1308" class="cls-7" d="M361.3 126a2.106 2.106 0 0 0-1.3.5 4.483 4.483 0 0 0 .1-1.2 5.019 5.019 0 0 0-.2-1.2c-.5-1.2-1.6-.7-2.1.3a3.173 3.173 0 0 0-.6 2c-1-.4-2-.5-2.2.6-.2 1 .8 2 1.5 2.6a2.918 2.918 0 0 0 3.3.6c.9-.4 1.2-.9 2-1.3.7-.3 1.4-.8 1.4-1.6 0-1-1.1-1.4-1.9-1.3z"/><path id="Path_1309" data-name="Path 1309" class="cls-17" d="M376.9 129.1c0 1.6-2.2 2.9-5 2.9-2.7 0-5-1.3-5-2.9s2.2-2.9 5-2.9 5 1.3 5 2.9z"/><g id="Group_614" data-name="Group 614"><path id="Path_1310" data-name="Path 1310" class="cls-13" d="M365 120.6a6 6 0 1 0 6-6 6.018 6.018 0 0 0-6 6z"/><g id="Group_613" data-name="Group 613"><path id="Path_1311" data-name="Path 1311" class="cls-25" d="M372.5 120.2c0 2.7-1.7 4.9-3.7 4.9-2.1 0-3.7-2.2-3.7-4.9s1.7-4.9 3.7-4.9c2.1-.1 3.7 2.2 3.7 4.9z"/><path id="Path_1312" data-name="Path 1312" class="cls-15" d="M371.4 120.2c0 1.9-1.2 3.5-2.7 3.5s-2.7-1.6-2.7-3.5 1.2-3.5 2.7-3.5c1.6 0 2.7 1.5 2.7 3.5z"/><path id="Path_1313" data-name="Path 1313" class="cls-13" d="M371.6 116.9c0 .5-.6 1-1.4 1s-1.4-.4-1.4-1c0-.5.6-1 1.4-1s1.4.4 1.4 1z"/></g><path id="Path_1314" data-name="Path 1314" class="cls-16" d="M370.8 113.7c4-.4 7 3.2 7 6.9a.379.379 0 0 1-.7.2c-1.6-2.2-2.1-4.4-5.1-5.3-4.4-1.3-6.7 3.2-7 6.7a.251.251 0 0 1-.5 0c-.3-4.2 1.9-8.1 6.3-8.5z"/></g><g id="Group_616" data-name="Group 616"><path id="Path_1315" data-name="Path 1315" class="cls-13" d="M347.6 120.6c0 3.3 2.1 6 4.7 6s4.7-2.7 4.7-6-2.1-6-4.7-6-4.7 2.7-4.7 6z"/><g id="Group_615" data-name="Group 615"><path id="Path_1316" data-name="Path 1316" class="cls-25" d="M353.5 120.2c0 2.7-1.3 4.9-2.9 4.9s-2.9-2.2-2.9-4.9 1.3-4.9 2.9-4.9c1.5-.1 2.9 2.2 2.9 4.9z"/><path id="Path_1317" data-name="Path 1317" class="cls-15" d="M352.6 120.2c0 1.9-.9 3.5-2.1 3.5s-2.1-1.6-2.1-3.5.9-3.5 2.1-3.5 2.1 1.5 2.1 3.5z"/><path id="Path_1318" data-name="Path 1318" class="cls-13" d="M352.7 116.9a1.1 1.1 0 0 1-1.1 1 1.028 1.028 0 0 1-1.1-1 1.1 1.1 0 0 1 1.1-1 .975.975 0 0 1 1.1 1z"/></g><path id="Path_1319" data-name="Path 1319" class="cls-16" d="M352.1 113.7c3.1-.4 5.5 3.2 5.5 6.9 0 .4-.4.5-.5.2-1.3-2.2-1.7-4.4-4-5.3-3.4-1.3-5.3 3.2-5.5 6.7a.2.2 0 1 1-.4 0c-.3-4.2 1.5-8.1 4.9-8.5z"/></g><path id="Path_1320" data-name="Path 1320" class="cls-17" d="M352.8 128.7c0 1.6-2.2 2.9-5 2.9h-.7a16.972 16.972 0 0 1-.4-3.5 17.732 17.732 0 0 0-.1-2.2 4.869 4.869 0 0 1 1.2-.1c2.8 0 5 1.3 5 2.9z"/><g id="Group_617" data-name="Group 617"><path id="Path_1321" data-name="Path 1321" class="cls-16" d="M355 111c-1-1.8-3.1-1.6-4.6-1.3-1.9.4-3.9.7-5.3 2.5-.2.3 0 .8.3.7 1.4-.4 2.8-.7 4.2-1a8.834 8.834 0 0 1 2.8-.2c.8 0 1.5.4 2.3.4.4-.1.5-.7.3-1.1z"/><path id="Path_1322" data-name="Path 1322" class="cls-16" d="M364.9 111c1.4-1.8 4.1-1.6 6.1-1.3 2.5.4 5.1.7 7 2.5a.42.42 0 0 1-.4.7c-1.8-.4-3.7-.7-5.6-1a16.167 16.167 0 0 0-3.8-.2c-1.1 0-2 .4-3 .4a.714.714 0 0 1-.3-1.1z"/></g></g></g><g id="Group_622" data-name="Group 622"><g id="Group_621" data-name="Group 621"><g id="Group_620" data-name="Group 620"><path id="Path_1323" data-name="Path 1323" class="cls-27" d="M313.8 181.5l-2.2-32.5 13.8.4c.2.6-.6 29.3-.6 32h-11z"/><path id="Path_1324" data-name="Path 1324" class="cls-28" d="M323.3 152l-.4 26.7-6.2.9-2.5-28z"/></g><path id="Path_1325" data-name="Path 1325" class="cls-7" d="M308.5 168.4a3.745 3.745 0 0 0 1.2 1.3.743.743 0 0 0-.4 1.1 4.269 4.269 0 0 0 1.4 1.3v.3c.7 2.4 3.6 2.6 5.7 2.3 3.8-.5 6.7.2 7.8 1 1.7 1.2 3.3 2.9 5.2 3.8 1.1.6 2.7.8 3.3-.6a2.335 2.335 0 0 0 0-2 .764.764 0 0 0-.2-.5c0-2.5-1.4-5.3-2.5-7.3-1.9-3.3-4.8-8-4.8-11.8a.641.641 0 0 0-.8-.6 3.246 3.246 0 0 0-2.2 3.1c-.2 1.9.6 3.2 1.3 4.9.5 1.1.6 2.2-.7 2.7-1.3-.1-2.6 0-3.9-.1a23.157 23.157 0 0 1-4.5-.6 15.294 15.294 0 0 0-2.9-.7.679.679 0 0 0-.5 1.1c1.2 1.5 3.8 1.6 5.5 1.8 1.3.1 2.5.1 3.8.1-1.2.2-2.3.2-3.5.3a13.946 13.946 0 0 1-4.1-.4 30.131 30.131 0 0 1-3.1-1.6.81.81 0 0 0-1.1 1.1z"/></g><path id="Path_1326" data-name="Path 1326" d="M395.9 164.6c.2-1.5-1.6-6-2.5-7.5-3.5-6-10.5 8.2-12.6 11.1-2.4 3.3-5.2 6.3-7.9 9.4-4.7 5.4-10 11.4-16.4 14.7-2.1 1.1-4.9 2.1-7.1.6-3.4-2.2-16.2-19.6-16.2-19.6l-7.4 5.1 20 26.3c7.5 4.2 16-.9 22.3-5 6.4-4.2 11.8-9.6 17-15.2 4.2-4.4 9.8-10.4 10.8-19.9z" fill="#db5599"/></g></g></g><g id="Group_648" data-name="Group 648"><g id="Group_645" data-name="Group 645"><g id="Group_625" data-name="Group 625"><path id="Path_1327" data-name="Path 1327" class="cls-7" d="M174 204.7a6.31 6.31 0 0 0-2.3-2.6c-1.7-3.6-6.7-4.7-10.4-4.4a28.251 28.251 0 0 0-7.6 1.9 19.833 19.833 0 0 1-11.3 1h-.1c-1.9.1-1.9 2.9-1.4 4.2a1.583 1.583 0 0 0 1.5 1c3 1.1 6 .7 9.2.7 2.9 0 5.8.2 8.7.4a8.752 8.752 0 0 0 1.6.2 18.021 18.021 0 0 0 4.6.5c.5-.1.9-.7.5-1.1a4.593 4.593 0 0 0-2.2-1.1 3.916 3.916 0 0 0-2.6-.9c3.1 0 5.8 1.8 8.8 2.3l.1.1a.854.854 0 0 0 .7 0h1.2a.619.619 0 0 0 .5-1c-.1-.1-.1-.2-.2-.3a.621.621 0 0 0 .7-.9zm-5-1.6a25.262 25.262 0 0 0-5.6-1.1c.2 0 .4-.1.6-.1a7.331 7.331 0 0 1 5.7 1.5l.1.1a1.234 1.234 0 0 0-.8-.4z"/><path id="Path_1328" data-name="Path 1328" d="M145.4 198.2c-14.7-2.1-35.8.4-39.8-3.5s-7.6-36.5-21.5-41.4-6.3 8.1-6.3 8.1 6.8 33.8 18.6 43.8c5.2 4.5 48.1 1.7 48.1 1.7 0-.7.9-8 .9-8.7z" fill="#676f36"/></g><g id="Group_629" data-name="Group 629"><g id="Group_627" data-name="Group 627"><path id="Path_1329" data-name="Path 1329" class="cls-31" d="M109.9 299l3.8 27-8.3.8-2.1-26.4z"/><g id="Group_626" data-name="Group 626"><path id="Path_1330" data-name="Path 1330" d="M105.3 335.2a5.686 5.686 0 0 0 .7 2.3c2.3 3.6 10.4 2.8 13.7 3 4.4.2 10.7.1 14.6-2.3.4-.2.3-.7.1-1.1-.1-.1-.1-.2-.2-.3-1.9-2.8-6.5-3.8-9.4-5.1-3.7-1.8-8.7-4.3-11.6-7.2-3.9 1-5 .4-8 .8a55.18 55.18 0 0 0 .1 9.9z" fill="#996044"/><path id="Path_1331" data-name="Path 1331" class="cls-33" d="M105.3 335.2a5.686 5.686 0 0 0 .7 2.3c2.3 3.6 10.4 2.8 13.7 3 4.4.2 10.7.1 14.6-2.3.4-.2.3-.7.1-1.1-.1-.1-.1-.2-.2-.3-7.7.6-18.7.8-28.9-1.6z"/><path id="Path_1332" data-name="Path 1332" class="cls-34" d="M120.9 331.9a.864.864 0 0 1 .3-.6 1.9 1.9 0 0 1 1.1-.7 6.162 6.162 0 0 1 2.7.1.523.523 0 0 1 .1 1c-.6.2-1.2.4-1.9.6-.2.1-.5.1-.7.3a.85.85 0 0 1-.5.3c-.1 0-.2 0-.2.1h-.1a.553.553 0 0 1-.8-.6z"/><path id="Path_1333" data-name="Path 1333" class="cls-34" d="M116.2 329.9a1.974 1.974 0 0 1 .6-1.2 3.956 3.956 0 0 1 1.5-1 1.973 1.973 0 0 1 2.4.5.5.5 0 0 1-.3.8c-.3 0-.4.2-.6.4a3.039 3.039 0 0 0-.7.5c-.3.2-.5.4-.8.6a2.7 2.7 0 0 1-1.1.5c-.6 0-1.2-.6-1-1.1z"/><path id="Path_1334" data-name="Path 1334" class="cls-34" d="M111.3 328c1.2-2.4 4-2.5 6.4-2.6a.808.808 0 0 1 .2 1.6c-1.7.4-3.6.6-4.8 2a.951.951 0 0 1-1 .4c-.2 0-.3-.1-.5-.2-.2-.3-.5-.8-.3-1.2z"/></g></g><g id="Group_628" data-name="Group 628"><path id="Path_1335" data-name="Path 1335" d="M96.9 322.3c4.5-1.5 22-1.1 22.3-1.3-5.5-22.2 9.9-65.1 0-73.5-19.8-16.7-70.5-13.7-70.8-13.1-.4.8-9.2 18.4 15.9 16.5 16.4-1.2 39.1.6 38.2 1.5-.8.8-10.9 37.6-5.6 69.9z" fill="#5d45a3"/></g></g><g id="Group_633" data-name="Group 633"><g id="Group_631" data-name="Group 631"><path id="Path_1336" data-name="Path 1336" class="cls-31" d="M124.2 300.5l11.6 24.7-7.6 3.2-9.9-24.6z"/><g id="Group_630" data-name="Group 630"><path id="Path_1337" data-name="Path 1337" d="M130.6 336.4a6.892 6.892 0 0 0 1.3 2c3.2 2.7 10.8-.4 14-1.3 4.2-1.2 10.3-3.1 13.2-6.6a.684.684 0 0 0-.2-1c-.1-.1-.2-.2-.3-.2-2.7-2.1-7.4-1.6-10.5-2.1-4-.6-9.6-1.5-13.3-3.4-3.4 2.1-4.6 1.8-7.4 3.2.6 2 1.8 6.7 3.2 9.4z" fill="#ac6b4c"/><path id="Path_1338" data-name="Path 1338" class="cls-33" d="M130.6 336.4a6.892 6.892 0 0 0 1.3 2c3.2 2.7 10.8-.4 14-1.3 4.2-1.2 10.3-3.1 13.2-6.6a.684.684 0 0 0-.2-1c-.1-.1-.2-.2-.3-.2-7.1 2.9-17.5 6.4-28 7.1z"/><path id="Path_1339" data-name="Path 1339" class="cls-34" d="M144.5 328.6c0-.2 0-.5.1-.6a2.189 2.189 0 0 1 .9-1 5.94 5.94 0 0 1 2.6-.7.513.513 0 0 1 .4.9 9.063 9.063 0 0 1-1.6 1.1 1.205 1.205 0 0 0-.5.5 1.756 1.756 0 0 1-.4.5c-.1 0-.1.1-.2.1-.3.1-.3.1-.1.1a.613.613 0 0 1-1-.4c0 .2-.2-.5-.2-.5z"/><path id="Path_1340" data-name="Path 1340" class="cls-34" d="M139.4 328.1a3.4 3.4 0 0 1 .2-1.4 7.551 7.551 0 0 1 1.1-1.4 1.853 1.853 0 0 1 2.5-.2.439.439 0 0 1-.1.8c-.3.1-.3.3-.5.5a4.233 4.233 0 0 0-.5.7 5.545 5.545 0 0 1-.6.8 3.24 3.24 0 0 1-.9.8.776.776 0 0 1-1.2-.6z"/><path id="Path_1341" data-name="Path 1341" class="cls-34" d="M134.2 327.7c.4-2.6 3.1-3.6 5.3-4.3a.784.784 0 0 1 .7 1.4c-1.5.9-3.3 1.6-4 3.4a1.143 1.143 0 0 1-.8.7h-.5c-.4-.3-.8-.7-.7-1.2z"/></g></g><g id="Group_632" data-name="Group 632"><path id="Path_1342" data-name="Path 1342" d="M123.8 325.1a79.854 79.854 0 0 0 13-5.9c.3-.2.6-.3.9-.5-5.5-22.2-17.7-67.6-27.7-76-19.8-16.7-67-3.7-67.3-3.1-.4.8-9.2 18.4 15.9 16.5 16.4-1.2 39.1.6 38.2 1.5-.8.8 19.5 50.2 27 67.5z" fill="#7962bd"/></g></g><g id="Group_644" data-name="Group 644"><path id="Path_1343" data-name="Path 1343" class="cls-7" d="M83.3 138.3l10.5 9.6 8.3-14.9-11.4-12.2c-.3.9-7.4 17.5-7.4 17.5z"/><path id="Path_1344" data-name="Path 1344" class="cls-38" d="M43.5 240.1s24 4.4 25.8-5.7c1.1-6.1 25.8-87.4 25.8-87.4l-8.8-9.9c-47.6 20.4-42.8 103-42.8 103z"/><path id="Path_1345" data-name="Path 1345" d="M78.9 139.6l16 14.1 2.6-8.9-12.5-14z" fill="#e2f6fd"/><g id="Group_643" data-name="Group 643"><path id="Path_1346" data-name="Path 1346" class="cls-9" d="M85 90.2c0 1.1 0 2.2.1 3.4.3 8.2 1 12 1.3 20.1.4 15.2 13.7 24.9 24.3 24.7 12.7-.3 10.5-5.3 9.8-13.3-.9-10.5.6-20.2 1.6-31.2.1-1.4.2-2.8.3-4.1.4-5.4.6-9.9.1-12.1-2-10.8-20.6-10.3-20.6-10.3-17.1 2.9-15.3 10.2-16.6 14.9-.5 1.6-.4 2.4-.3 7.9z"/><g id="Group_634" data-name="Group 634"><path id="Path_1347" data-name="Path 1347" class="cls-13" d="M104.4 118.1a56.75 56.75 0 0 0 3.5 7.8 4.348 4.348 0 0 0 .4.7c2.8 4.6 6.5 7.5 9.1-2.5 0-.1.1-.2.1-.4.4-1.8.8-3.9 1.2-6.5.1 0-8.2 6.9-14.3.9z"/><path id="Path_1348" data-name="Path 1348" d="M107.9 125.9a4.348 4.348 0 0 0 .4.7 12.223 12.223 0 0 0 3.3-.2 15.008 15.008 0 0 0 5.8-2.3c0-.1.1-.2.1-.4a13.817 13.817 0 0 1-6.8 2.3 8.968 8.968 0 0 1-2.8-.1z" fill="#c9876d"/></g><path id="Path_1349" data-name="Path 1349" class="cls-41" d="M115.7 84.9c2.3-1.9 7.7 1 6.9 6-.1.6-.6.7-.8.2-.8-2.5-2.4-3.9-4.2-4.2-.6-.1-1.6.5-2.1-.2a1.523 1.523 0 0 1 .2-1.8z"/><path id="Path_1350" data-name="Path 1350" class="cls-41" d="M105.2 85.2c-2.7-1.9-9 1-8.1 6 .1.6.7.7.9.2a6.242 6.242 0 0 1 4.9-4.2c.7-.1 1.9.5 2.5-.2a1.363 1.363 0 0 0-.2-1.8z"/><path id="Path_1351" data-name="Path 1351" class="cls-15" d="M116.1 139.4c5-.6 8.2-4.8 6.4-16.4-.5-3.4-.9-8.4-3.2-8.9-1.9-.4-5.4 1.2-5.4 1.3-2.7-1-9-2.4-11.8.9-2 2.4-3.2 4.3-2.2 8.7 3.3 14.6 11.4 14.9 16.2 14.4zm-2.7-21.7c.1 0 .1-.1.2-.1a8.049 8.049 0 0 0 3.4-.5c3.1-.8 3.6 3 3.3 8.2-.5 7-5 7.3-7.9 7.3-1.6-.1-17.3-21.2 1-14.9z"/><g id="Group_635" data-name="Group 635"><path id="Path_1352" data-name="Path 1352" class="cls-7" d="M90.9 103.7S84 91.6 81.2 102c-2.9 10.4 4 15.3 8.6 14.3 4.4-1 1.1-12.6 1.1-12.6z"/><path id="Path_1353" data-name="Path 1353" class="cls-11" d="M90.8 105.7s-4.8-7.6-6.4-4.6a13.055 13.055 0 0 0-1.2 7s1-4.3 4-1.8c0 0-3 6.9 3.1 4.9 0 0 2.5-2.1.5-5.5z"/></g><g id="Group_638" data-name="Group 638"><g id="Group_636" data-name="Group 636"><path id="Path_1354" data-name="Path 1354" class="cls-13" d="M107.3 99.1c0 4-2 7.3-4.4 7.3s-4.4-3.3-4.4-7.3 2-7.3 4.4-7.3c2.5 0 4.4 3.2 4.4 7.3z"/><path id="Path_1355" data-name="Path 1355" class="cls-42" d="M100.4 92.1c-2 1.5-3.2 5.3-2 7.7.1.1.3.1.2-.1a9.291 9.291 0 0 1 1.7-6.1 4.2 4.2 0 0 1 3.1-1.5c1.3-.1 1.9 1.4 2.9 1.9.2.1.5-.1.4-.3-.7-3.2-4.3-3.1-6.3-1.6z"/></g><g id="Group_637" data-name="Group 637"><path id="Path_1356" data-name="Path 1356" class="cls-14" d="M102 99.3c0 3 1.2 5.4 2.7 5.4s2.7-2.4 2.7-5.4-1.2-5.4-2.7-5.4-2.7 2.4-2.7 5.4z"/><path id="Path_1357" data-name="Path 1357" class="cls-15" d="M102.6 99.4c0 2.3.9 4.2 2 4.2s2-1.9 2-4.2-.9-4.2-2-4.2c-1.1-.1-2 1.8-2 4.2z"/><path id="Path_1358" data-name="Path 1358" class="cls-13" d="M102 95.4c0 .5.6.9 1.4.9s1.4-.4 1.4-.9-.6-.9-1.4-.9-1.4.4-1.4.9z"/></g></g><g id="Group_641" data-name="Group 641"><g id="Group_639" data-name="Group 639"><path id="Path_1359" data-name="Path 1359" class="cls-13" d="M122.2 99.1c0 4-2 7.3-4.4 7.3s-4.4-3.3-4.4-7.3 2-7.3 4.4-7.3 4.4 3.2 4.4 7.3z"/><path id="Path_1360" data-name="Path 1360" class="cls-42" d="M115.2 92.1c-2 1.5-3.2 5.3-2 7.7.1.1.3.1.2-.1a9.291 9.291 0 0 1 1.7-6.1 4.2 4.2 0 0 1 3.1-1.5c1.3-.1 1.9 1.4 2.9 1.9.2.1.5-.1.4-.3-.6-3.2-4.2-3.1-6.3-1.6z"/></g><g id="Group_640" data-name="Group 640"><path id="Path_1361" data-name="Path 1361" class="cls-14" d="M116.9 99.3c0 3 1 5.4 2.3 5.4s2.3-2.4 2.3-5.4-1-5.4-2.3-5.4c-1.2 0-2.3 2.4-2.3 5.4z"/><path id="Path_1362" data-name="Path 1362" class="cls-15" d="M117.4 99.4c0 2.3.8 4.2 1.8 4.2s1.8-1.9 1.8-4.2-.8-4.2-1.8-4.2c-1-.1-1.8 1.8-1.8 4.2z"/><path id="Path_1363" data-name="Path 1363" class="cls-13" d="M116.9 95.4c0 .5.5.9 1.2.9s1.2-.4 1.2-.9-.5-.9-1.2-.9c-.6 0-1.2.4-1.2.9z"/></g></g><path id="Path_1364" data-name="Path 1364" class="cls-7" d="M109.9 111c-1.2-3.8-1.4-10.7-1.1-13.6l.4-2.1c-.4-1.6.5-4.6 2.3-3.3 1.3.9.8 4 .9 5.5a139.5 139.5 0 0 0 2.4 13.9c.5-.5 1-1.5 1.9-1.6.3 1.5-.2 6.6-2.1 6.4-1.9.1-8.3-6-4.7-5.2z"/><g id="Group_642" data-name="Group 642"><path id="Path_1365" data-name="Path 1365" class="cls-5" d="M124.2 66.8a11.878 11.878 0 0 0-3.6-4.1 7.459 7.459 0 0 0-1.2-.7 5.023 5.023 0 0 0-1.3-.5 8.988 8.988 0 0 0-4-.4 7.994 7.994 0 0 0-2.2-1.3 1.421 1.421 0 0 0-.6-.2 13.79 13.79 0 0 0-2.9-.8 14.645 14.645 0 0 0-2.9-.2c-.4 0-.7.1-1.1.1-2.8 0-5.7 1.1-8.3 2.1a26.182 26.182 0 0 0-9.3 6.2c-.3.3-.5.6-.8.9a24.679 24.679 0 0 0-4.4 7.5 1.854 1.854 0 0 0-.2.7 5.775 5.775 0 0 1-.6 1.7 29.541 29.541 0 0 0 .1 12.9c.4 2.3.6 7.8 4.4 7.1 3-.5 5.2-3.9 5.8-6.4a21.308 21.308 0 0 0 .2-4.4 2.978 2.978 0 0 0 2.3.1c2.7-.8 4.3-4.2 5.3-6.4a21.7 21.7 0 0 0 1.5-3.5 4.447 4.447 0 0 0 1.7 3.9c2.2 1.6 5.3-.7 7-2a20.463 20.463 0 0 0 5.6-6.9c.2.4.4.9.6 1.3a33.868 33.868 0 0 0 3.4 5c1.6 2.1 2.2 4.2 3 6.7a.769.769 0 0 0 1.4 0c.8-1.9 1.6-3.5 2.2-5.2l.6-1.8a14.982 14.982 0 0 0 .4-2.4 17.27 17.27 0 0 0-2.1-9z"/><path id="Path_1366" data-name="Path 1366" class="cls-20" d="M111.9 59.8a50.294 50.294 0 0 1-5.5 5.8A51.07 51.07 0 0 1 95.9 73c-3.4 1.7-7.2 3.5-11.1 3.6a9.123 9.123 0 0 1-3.3-.5 1.854 1.854 0 0 1 .2-.7 1.884 1.884 0 0 0 .8.2 11.593 11.593 0 0 0 4.9-.2 37.863 37.863 0 0 0 10.2-4.2 56.718 56.718 0 0 0 9.7-7.2 34.8 34.8 0 0 0 4.2-4.4c0 .1.2.1.4.2z"/><path id="Path_1367" data-name="Path 1367" class="cls-20" d="M105.5 58.6A18.525 18.525 0 0 1 95.2 67c-2.9.9-6.1 1.7-9.2.7v.1c.3-.3.5-.6.8-.9a5.853 5.853 0 0 0 1.3.2 18.367 18.367 0 0 0 8.3-1.6 16.471 16.471 0 0 0 7.9-6.8 4.869 4.869 0 0 1 1.2-.1z"/><path id="Path_1368" data-name="Path 1368" class="cls-20" d="M125.9 78.4a6.356 6.356 0 0 1-.6 1.8c-1.6-3.2-3.4-6.3-4.3-9.7a69.287 69.287 0 0 1-1.7-8.4 7.458 7.458 0 0 1 1.2.7 40.1 40.1 0 0 0 2.7 10.3c.9 1.8 1.8 3.6 2.7 5.3z"/></g></g></g></g><g id="Group_647" data-name="Group 647"><path id="Path_1369" data-name="Path 1369" class="cls-4" d="M92.8 252.6c-17.9.3-67.2-5.7-65.1 8.1l79.7.9s3.3-9.3-14.6-9z"/><g id="Group_646" data-name="Group 646"><path id="Path_1370" data-name="Path 1370" class="cls-2" d="M28.7 278.6l-.9 61.9h3.8l5.2-61.6 1-12.8-8.9.3z"/><path id="Path_1371" data-name="Path 1371" class="cls-2" d="M98.1 266.4l-8.9-.3 1.2 14.7 5 59.7h3.8l-.8-59.5z"/><path id="Path_1372" data-name="Path 1372" class="cls-3" d="M28.7 278.6l8.1.3 1-12.8-8.9.3z"/><path id="Path_1373" data-name="Path 1373" class="cls-3" d="M89.2 266.1l1.2 14.7 8 .2-.3-14.6z"/></g><path id="Path_1374" data-name="Path 1374" class="cls-4" d="M3.9 184.2c-.9 28.2 22.5 75.6 22.5 75.6l4.8-4C40.2 250 21 212 16 196.7c-4.9-15.2-12.1-12.5-12.1-12.5z"/><path id="Path_1375" data-name="Path 1375" class="cls-2" d="M.5 173.7c-.1 0-.3.1-.4.1-.5 13.5 2.6 50.8 26.5 93.2l3.1-1.8 2.8-.7S6.1 224.3 4.8 173.8a30.517 30.517 0 0 1-4.3-.1z"/><path id="Rectangle_34" data-name="Rectangle 34" class="cls-2" transform="translate(26.5 259.8)" d="M0 0h83.6v7.2H0z"/></g></g><g id="Group_657" data-name="Group 657"><g id="Group_655" data-name="Group 655"><g id="Group_649" data-name="Group 649"><path id="Path_1376" data-name="Path 1376" class="cls-43" d="M159.9 192.1c-.9-.2-4 .1-4.3-.7-.1-.5-.2-1.3-.8-1.5-2.6-1.1-4.2.2-6.5 1-.4-2.3-1.1-5.9-3.7-5.9-2.7 0-3.1 3-4.2 5a4.873 4.873 0 0 0-2.1-2.4.952.952 0 0 0-1.3.3 10.921 10.921 0 0 0-1.6 4.9c-1.7-1.7-4.5-4-6-1.7-1.1 1.7.6 3.9 2.3 5.1 1.6 6.5 8.5 5.3 13.8 4.8 4-.3 8.1-.9 12.1-1a13.567 13.567 0 0 0 6.8-1.8c3.6-2.3-2.4-5.7-4.5-6.1z"/><path id="Path_1377" data-name="Path 1377" class="cls-13" d="M123.5 194.6h49.9s-24.8 32-49.9 0z"/></g><g id="Group_652" data-name="Group 652"><path id="Path_1378" data-name="Path 1378" class="cls-38" d="M222.7 184.6a2.246 2.246 0 0 0-2.6.4 2.544 2.544 0 0 0-2.8-2.1c-1.3.2-1.7 1.5-1.7 3-1.1-1-2.3-1.4-3.2.4-1.1 2.3 1.3 4.6 3.6 5.2a1.562 1.562 0 0 0 1.6 1.8c2.1.2 4.1-1.2 5.3-2.8.9-1.5 2-4.9-.2-5.9z"/><path id="Path_1379" data-name="Path 1379" class="cls-38" d="M236.3 185.1a3.453 3.453 0 0 0-2.4 3.3c-.1.1-.1.2-.1.4a2.3 2.3 0 0 0 1.4 3c2.1.7 3.8-1.9 4.2-3.6a2.551 2.551 0 0 0-3.1-3.1z"/><g id="Group_651" data-name="Group 651"><path id="Path_1380" data-name="Path 1380" class="cls-10" d="M241.5 190.7c-.6-4.3-5-3.5-7.8-1.9-1.5-2.6-2.5-5.7-6.4-4.6a9.279 9.279 0 0 0-6.1 6.5c-1.6-1.9-3.9-3.2-6.4-1.9a10.071 10.071 0 0 0-5.3 8.7.725.725 0 0 0 1.2.5c2.1 2 7.3 1.9 9.7 2.2a48.385 48.385 0 0 0 13.7-.2c5.1-1 8.1-3.9 7.4-9.3z"/><g id="Group_650" data-name="Group 650"><path id="Path_1381" data-name="Path 1381" class="cls-13" d="M201.5 194.6h49.9s-24.8 32-49.9 0z"/></g></g></g><g id="Group_654" data-name="Group 654"><path id="Path_1382" data-name="Path 1382" class="cls-38" d="M293.6 186a2.118 2.118 0 0 0-2.7.3 3.292 3.292 0 0 0-1.9-.6c-1.5.1-1.8 1.5-1.4 2.7a5.084 5.084 0 0 0 2.5 2.9 2.389 2.389 0 0 0 .7 1.3.959.959 0 0 0 1 .3c2.5-.7 4.4-5.1 1.8-6.9z"/><path id="Path_1383" data-name="Path 1383" class="cls-38" d="M313.5 188.1a2.581 2.581 0 0 0-3-2.9 4.283 4.283 0 0 0-3.7 4.1c-.3 0-.6-.1-.9-.1a1.011 1.011 0 0 0-1.2.5c-.7 1.7.9 2.4 2.2 3.2a5.427 5.427 0 0 0 4.8.4 1.933 1.933 0 0 0 1-2.6 7.861 7.861 0 0 0 .8-2.6z"/><g id="Group_653" data-name="Group 653"><path id="Path_1384" data-name="Path 1384" class="cls-43" d="M312.4 192.1c-.9-.2-4 .1-4.3-.7-.1-.5-.2-1.3-.8-1.5-2.6-1.1-4.2.2-6.5 1-.4-2.3-1.1-5.9-3.7-5.9-2.7 0-3.1 3-4.2 5a4.873 4.873 0 0 0-2.1-2.4.952.952 0 0 0-1.3.3 10.921 10.921 0 0 0-1.6 4.9c-1.7-1.7-4.5-4-6-1.7-1.1 1.7.6 3.9 2.3 5.1 1.6 6.5 8.5 5.3 13.8 4.8 4-.3 8.1-.9 12.1-1a13.567 13.567 0 0 0 6.8-1.8c3.5-2.3-2.4-5.7-4.5-6.1z"/><path id="Path_1385" data-name="Path 1385" class="cls-13" d="M276 194.6h49.9c-.1 0-24.9 32-49.9 0z"/></g></g></g><g id="Group_656" data-name="Group 656"><path id="Path_1386" data-name="Path 1386" class="cls-27" d="M188.8 206.7l2.3-33.4-14.2.4c-.2.6.6 30.2.7 33h11.2z"/><path id="Path_1387" data-name="Path 1387" class="cls-28" d="M179 176.3l.5 27.5 6.3.9 2.6-28.8z"/></g></g><g id="Group_660" data-name="Group 660"><g id="Group_659" data-name="Group 659"><g id="Group_658" data-name="Group 658"><path id="Path_1388" data-name="Path 1388" class="cls-27" d="M172.2 178.5l2.3-33.4-14.2.4c-.2.6.6 30.2.7 33z"/><path id="Path_1389" data-name="Path 1389" class="cls-28" d="M162.4 148.1l.5 27.6 6.3.8 2.6-28.8z"/></g><path id="Path_1390" data-name="Path 1390" class="cls-7" d="M176.1 160.8a17.035 17.035 0 0 1-3.5 1.9 12.345 12.345 0 0 1-4.7.4 18.884 18.884 0 0 1-4.1-.3c1.4 0 2.9 0 4.3-.1 2-.2 5-.3 6.4-2a.762.762 0 0 0-.5-1.3 13.977 13.977 0 0 0-3.4.8 44.618 44.618 0 0 1-5.1.7c-1.5.1-3 0-4.5.1-1.6-.5-1.4-1.8-.9-3.1.9-1.9 1.8-3.4 1.5-5.6-.2-1.5-.9-3.1-2.6-3.5a.783.783 0 0 0-1 .7c0 4.4-3.3 9.8-5.5 13.6-1.3 2.2-2.9 5.5-2.9 8.3a1.421 1.421 0 0 0-.2.6 3.051 3.051 0 0 0 0 2.3c.7 1.6 2.5 1.3 3.8.7 2.2-1.1 4-3 6-4.4 1.2-.8 4.6-1.7 8.9-1.1 2.5.3 5.8.1 6.6-2.6v-.4a6.122 6.122 0 0 0 1.7-1.5.917.917 0 0 0-.5-1.3 4.009 4.009 0 0 0 1.4-1.5.932.932 0 0 0-1.2-1.4z"/></g><path id="Path_1391" data-name="Path 1391" class="cls-38" d="M130.5 190.3c-1.9 1-5.4-11.2-15.7-21.4-12.7-12.7-32.4-24-32.1-21.6.6 4.2-6.6 17-6.6 17s37.3 51.4 58.5 39.7l23-30.3-8.5-5.9s-14.4 20.4-18.6 22.5z"/></g></g><g id="Group_663" data-name="Group 663"><g id="Group_662" data-name="Group 662"><path id="Path_1392" data-name="Path 1392" class="cls-2" d="M126 214.6l-1.4 15.2-9.9 110.8h-11.3l.9-109.1.1-16.9z"/><path id="Path_1393" data-name="Path 1393" class="cls-2" d="M369.6 340.6h-11.2l-10-111-1.3-15h21.6l.1 19z"/></g><path id="Path_1394" data-name="Path 1394" class="cls-3" d="M104.4 214.6H126l-1.4 15.1c-7.9.6-14.7 1.3-20.4 1.8z"/><path id="Path_1395" data-name="Path 1395" class="cls-3" d="M368.8 233.5c-6.3-1.5-13.1-2.7-20.4-3.9l-1.4-15h21.6z"/><path id="Rectangle_35" data-name="Rectangle 35" class="cls-2" transform="translate(78.4 206.6)" d="M0 0h317v11H0z"/></g></g></g></svg>