<svg xmlns="http://www.w3.org/2000/svg" xmlns:xlink="http://www.w3.org/1999/xlink" viewBox="0 0 450.591 405.007"><defs><style>.cls-1,.cls-10{fill:#008da7}.cls-1{opacity:.3}.cls-2,.cls-3,.cls-30{fill:none;stroke-miterlimit:10}.cls-2,.cls-3{stroke-width:.556px}.cls-2{opacity:.4;stroke:#008da7}.cls-3{stroke:#fafafa}.cls-4{fill:#005077;opacity:.2}.cls-5{fill:#9e9d98}.cls-6{fill:#d6d5ca}.cls-15{fill:#fafafa}.cls-24{fill:#cccbc4}.cls-26{fill:#eeebd4}.cls-29{fill:#002856}.cls-30{stroke:#959a8f;stroke-linecap:round;stroke-width:1.015px}.cls-31{fill:#62afbd}.cls-32{fill:#7ac8d6}.cls-33{fill:#5e5050}.cls-34{fill:#efebe9}</style><linearGradient id="linear-gradient" x1=".5" y1=".534" x2=".5" y2="1.035" gradientUnits="objectBoundingBox"><stop offset="0" stop-color="#008da7"/><stop offset="1" stop-color="#00425a"/></linearGradient><linearGradient id="linear-gradient-2" x1=".5" y1=".219" x2=".5" y2="1.007" gradientUnits="objectBoundingBox"><stop offset=".054" stop-color="#005077"/><stop offset="1" stop-color="#002856"/></linearGradient><linearGradient id="linear-gradient-3" x1=".5" y1=".199" x2=".5" y2=".564" xlink:href="#linear-gradient-2"/><linearGradient id="linear-gradient-4" x1=".5" y1=".164" x2=".5" y2=".015" xlink:href="#linear-gradient-2"/><linearGradient id="linear-gradient-5" x1=".501" y1=".045" x2=".501" y2="1.465" xlink:href="#linear-gradient-2"/><linearGradient id="linear-gradient-6" x1=".007" y1=".499" x2="1" y2=".499" gradientUnits="objectBoundingBox"><stop offset="0" stop-color="#d81b60"/><stop offset="1" stop-color="#002856" stop-opacity=".969"/></linearGradient><linearGradient id="linear-gradient-7" x1="-.003" y1=".501" x2="1.001" y2=".501" gradientUnits="objectBoundingBox"><stop offset="0" stop-color="#fae8dc"/><stop offset="1" stop-color="#fab9ab" stop-opacity=".969"/></linearGradient><linearGradient id="linear-gradient-8" x1=".454" y1=".072" x2=".697" y2="1.598" xlink:href="#linear-gradient-6"/><linearGradient id="linear-gradient-9" x1=".501" y1=".033" x2=".501" y2=".839" xlink:href="#linear-gradient-6"/><linearGradient id="linear-gradient-10" x1=".001" y1=".501" x2=".998" y2=".501" xlink:href="#linear-gradient-7"/><linearGradient id="linear-gradient-11" y1=".499" x2="1.007" y2=".499" xlink:href="#linear-gradient-7"/><linearGradient id="linear-gradient-12" x1=".011" y1=".508" x2=".975" y2=".508" xlink:href="#linear-gradient-7"/><linearGradient id="linear-gradient-13" x1="-.03" y1=".493" x2=".971" y2=".493" xlink:href="#linear-gradient-7"/><linearGradient id="linear-gradient-14" x1="-.011" y1=".501" x2=".995" y2=".501" xlink:href="#linear-gradient-7"/><linearGradient id="linear-gradient-15" x1=".016" y1=".498" x2="1.022" y2=".498" xlink:href="#linear-gradient-7"/><radialGradient id="radial-gradient" cx="172.656" cy="234.149" r="237.192" gradientTransform="matrix(.722 0 0 .722 29.718 54.414)" gradientUnits="userSpaceOnUse"><stop offset=".011" stop-color="#eeebd4"/><stop offset="1" stop-color="#ffd8ad" stop-opacity="0"/></radialGradient><linearGradient id="linear-gradient-16" x1="-.001" y1=".5" x2=".996" y2=".5" xlink:href="#linear-gradient-7"/></defs><g id="Group_555" data-name="Group 555" transform="translate(0 -27.1)"><g id="Group_524" data-name="Group 524" transform="translate(38.526 27.1)"><g id="Group_523" data-name="Group 523"><g id="Group_519" data-name="Group 519" transform="translate(14.657)"><path id="Rectangle_3" data-name="Rectangle 3" class="cls-1" transform="translate(0 68.677)" d="M0 0h116.417v58.627H0z"/><path id="Rectangle_4" data-name="Rectangle 4" class="cls-1" transform="translate(89.406)" d="M0 0h181.116v115.37H0z"/><path id="Rectangle_5" data-name="Rectangle 5" class="cls-1" transform="translate(217.548 146.568)" d="M0 0h74.959v56.324H0z"/></g><g id="Group_522" data-name="Group 522" transform="translate(0 7.538)"><g id="Group_520" data-name="Group 520" transform="translate(0 16.332)"><path id="Rectangle_6" data-name="Rectangle 6" class="cls-2" d="M0 0h76.215v33.501H0z"/><path id="Rectangle_7" data-name="Rectangle 7" class="cls-2" transform="translate(188.025 102.388)" d="M0 0h74.959v57.371H0z"/></g><g id="Group_521" data-name="Group 521" transform="translate(113.695)"><path id="Rectangle_8" data-name="Rectangle 8" class="cls-3" d="M0 0h161.225v33.082H0z"/><path id="Rectangle_9" data-name="Rectangle 9" class="cls-3" transform="translate(0 39.783)" d="M0 0h75.378v33.501H0z"/><path id="Rectangle_10" data-name="Rectangle 10" class="cls-3" transform="translate(84.591 39.783)" d="M0 0h76.843v33.501H0z"/><path id="Rectangle_11" data-name="Rectangle 11" class="cls-3" transform="translate(0 79.565)" d="M0 0h161.225v16.96H0z"/></g></g></g></g><g id="Group_544" data-name="Group 544" transform="translate(0 50.96)"><path id="Path_1097" data-name="Path 1097" class="cls-4" d="M364.326 214.4c0 2.094-59.465 12.354-79.356 12.354s-24.707 8.585-57.58 6.7c-11.935-.837-40.411-13.4-45.227-13.4C81.45 220.052 0 217.54 0 214.4s81.659-5.653 182.163-5.653c36.223 0 80.193-.628 108.46 0 50.461 1.046 73.703 3.768 73.703 5.653z" transform="translate(0 147.424)"/><g id="Group_543" data-name="Group 543" transform="translate(8.375)"><g id="Group_532" data-name="Group 532" transform="translate(0 156)"><g id="Group_527" data-name="Group 527" transform="translate(4.606 170.019)"><g id="Group_525" data-name="Group 525" transform="translate(54.439 4.816)"><path id="Path_1098" data-name="Path 1098" class="cls-5" d="M42.669 196.5L32.2 231.676h3.978L48.113 196.5z" transform="translate(-32.2 -196.5)"/><path id="Path_1099" data-name="Path 1099" class="cls-6" d="M54.41 196.5h-8.375L34.1 231.676h5.025z" transform="translate(-30.122 -196.5)"/></g><g id="Group_526" data-name="Group 526"><path id="Path_1100" data-name="Path 1100" class="cls-5" d="M16.669 194.2L6.2 229.586h3.978L22.113 194.2z" transform="translate(-6.2 -194.2)"/><path id="Path_1101" data-name="Path 1101" class="cls-6" d="M28.41 194.2h-8.375L8.1 229.586h5.025z" transform="translate(-4.122 -194.2)"/></g></g><g id="Group_530" data-name="Group 530" transform="translate(262.147 164.993)"><g id="Group_528" data-name="Group 528"><path id="Path_1102" data-name="Path 1102" class="cls-5" d="M138.644 191.8l10.469 35.176h-3.978L133.2 191.8z" transform="translate(-124.825 -191.8)"/><path id="Path_1103" data-name="Path 1103" class="cls-6" d="M129.2 191.8h8.375l11.935 35.176h-5.025z" transform="translate(-129.2 -191.8)"/></g><g id="Group_529" data-name="Group 529" transform="translate(54.439 5.025)"><path id="Path_1104" data-name="Path 1104" class="cls-5" d="M164.644 194.2l10.469 35.386h-3.978L159.2 194.2z" transform="translate(-150.825 -194.2)"/><path id="Path_1105" data-name="Path 1105" class="cls-6" d="M155.2 194.2h8.375l11.935 35.386h-5.025z" transform="translate(-155.2 -194.2)"/></g></g><g id="Group_531" data-name="Group 531" transform="translate(22.613)"><path id="Path_1106" data-name="Path 1106" d="M231.092 113H14.8l29.523 131.911h223.2v-95.478A36.459 36.459 0 0 0 231.092 113z" transform="translate(-14.8 -113)" fill="url(#linear-gradient)"/><path id="Path_1107" data-name="Path 1107" d="M14.8 113v131.911h29.523V142.523A29.489 29.489 0 0 0 14.8 113z" transform="translate(-14.8 -113)" fill="url(#linear-gradient-2)"/></g><path id="Path_1108" data-name="Path 1108" d="M218.085 245.778V150.3H151.92a27.166 27.166 0 0 0-27.22 27.22v76.843h84.59z" transform="translate(128.025 -72.2)" fill="url(#linear-gradient-3)"/><path id="Path_1109" data-name="Path 1109" class="cls-10" d="M187.13 150.3v95.478a8.491 8.491 0 0 1-8.585 8.585H153v-69.934a33.87 33.87 0 0 1 34.13-34.129z" transform="translate(158.979 -72.2)"/><path id="Rectangle_12" data-name="Rectangle 12" transform="translate(93.594 132.12)" fill="url(#linear-gradient-4)" d="M0 0h223.202v42.714H0z"/><path id="Rectangle_13" data-name="Rectangle 13" class="cls-10" transform="translate(93.594 139.449)" d="M0 0h223.202v42.714H0z"/><path id="Path_1110" data-name="Path 1110" class="cls-10" d="M33 150.3a34.359 34.359 0 0 1 34.339 34.339v69.724H33z" transform="translate(27.721 -72.2)"/><path id="Path_1111" data-name="Path 1111" d="M28.917 254.472h35.8V150.2H25.148A21.089 21.089 0 0 0 4 171.348v58.208a24.976 24.976 0 0 0 24.917 24.916z" transform="translate(-4 -72.31)" fill="url(#linear-gradient-5)"/></g><g id="Group_542" data-name="Group 542" transform="translate(79.356)"><g id="Group_537" data-name="Group 537" transform="translate(0 126.896)"><g id="Group_534" data-name="Group 534" transform="translate(54.33 22.149)"><path id="Path_1112" data-name="Path 1112" d="M87.43 175.051a38.778 38.778 0 0 1 10.888-11.725c-2.094-1.884-7.538-7.119-7.957-7.747-.209-.838-.209-30.151-.209-36.223 0-3.559-1.047-7.538-4.188-9-2.3-1.256-5.444-.628-7.747.838-4.816 2.931-7.119 8.375-8.794 13.61-4.816 14.238 2.931 38.526 3.141 39.573a108.093 108.093 0 0 0 14.866 10.674z" transform="translate(-67.848 -109.678)" fill="url(#linear-gradient-6)"/><path id="Path_1113" data-name="Path 1113" d="M87.981 135.3l20.938 17.379-2.094 4.188-29.525-9.842c-.207 0 6.493-11.725 10.681-11.725z" transform="translate(-57.512 -81.653)" fill="url(#linear-gradient-7)"/><g id="Group_533" data-name="Group 533" transform="translate(47.639 71.026)"><path id="Path_1114" data-name="Path 1114" class="cls-15" d="M94.041 143.6l6.7 15.076-1.256 1.675-8.585-7.119 1.047-5.444z" transform="translate(-90.272 -143.6)"/><path id="Path_1115" data-name="Path 1115" class="cls-15" d="M95.835 150.756l-1.466 4.4-3.769 2.51v-.838l2.513-2.722 1.466-4.606z" transform="translate(-90.6 -137.146)"/><path id="Path_1116" data-name="Path 1116" class="cls-15" d="M95.978 150.838l-.419 4.816-3.14 3.346-.419-.834 1.884-3.35.629-4.816z" transform="translate(-89.069 -136.6)"/><path id="Path_1117" data-name="Path 1117" class="cls-15" d="M96.013 150.919l.419 4.816-2.513 3.765-.419-.628 1.256-3.56-.419-4.816z" transform="translate(-87.428 -136.053)"/><path id="Path_1118" data-name="Path 1118" class="cls-15" d="M96.913 151.019l.419 4.816-2.513 3.765-.419-.628 1.256-3.56-.419-4.816z" transform="translate(-86.443 -135.943)"/></g></g><path id="Path_1119" data-name="Path 1119" d="M82.155 99.1a13.691 13.691 0 0 0-4.816 1.256c-8.585 3.559-17.169 6.91-25.754 10.469a8.009 8.009 0 0 0-3.769 2.513c-.838 1.047-.838 2.513-.838 3.978-1.466 36.223 7.957 82.287 20.729 116 17.169.209 34.757-7.119 52.136-10.26-8.585-23.451-13.191-62.4-3.978-85.637 1.675-4.188 1.047-11.516-.628-15.7-.838-1.884-17.588-16.541-28.057-21.148a10.081 10.081 0 0 0-5.025-1.471z" transform="translate(-36.509 -99.1)" fill="url(#linear-gradient-8)"/><g id="Group_536" data-name="Group 536" transform="translate(0 13.546)"><path id="Path_1120" data-name="Path 1120" d="M69.538 192.527a43.208 43.208 0 0 1 7.962-17.588c-3.141-1.466-11.307-5.235-11.935-6.072s.419-47.32-1.884-54.439c-1.256-3.978-4.188-8.166-8.375-8.794-3.141-.419-6.491 1.256-8.585 3.769-4.4 5.025-4.816 12.354-4.816 19.054 0 18.007 5.863 56.115 6.491 56.952 1.042 1.256 15.28 6.281 21.142 7.118z" transform="translate(-41.9 -105.569)" fill="url(#linear-gradient-9)"/><path id="Path_1121" data-name="Path 1121" d="M63.057 138.7l30.779 11.935-1.047 5.444H55.1c0 .209 2.931-15.913 7.957-17.379z" transform="translate(-27.462 -69.33)" fill="url(#linear-gradient-10)"/><g id="Group_535" data-name="Group 535" transform="translate(65.327 81.304)"><path id="Path_1122" data-name="Path 1122" d="M74.147 144.4l13.191 14.866-.838 2.3-12.354-5.025-1.046-6.488z" transform="translate(-73.1 -144.4)" fill="url(#linear-gradient-11)"/><path id="Path_1123" data-name="Path 1123" d="M78.978 151.938v5.862l-3.35 4.188-.628-.838 1.884-4.188V151.1z" transform="translate(-71.022 -137.071)" fill="url(#linear-gradient-12)"/><path id="Path_1124" data-name="Path 1124" d="M78.994 151.709l1.256 5.653-2.3 5.025-.838-.838 1.047-4.4L76.9 151.5z" transform="translate(-68.943 -136.634)" fill="url(#linear-gradient-13)"/><path id="Path_1125" data-name="Path 1125" d="M79.994 151.7l2.3 5.235-1.256 5.235-.838-.628v-4.4l-2.3-5.442z" transform="translate(-67.85 -136.415)" fill="url(#linear-gradient-14)"/><path id="Path_1126" data-name="Path 1126" d="M80.994 151.5l2.3 5.235-1.256 5.235-.838-.628.209-4.606L78.9 151.5z" transform="translate(-66.756 -136.634)" fill="url(#linear-gradient-15)"/></g></g></g><path id="Path_1127" data-name="Path 1127" class="cls-15" d="M93.428 150l-.628 6.281h1.047l1.675-4.188z" transform="translate(13.776 83.472)"/><g id="Group_538" data-name="Group 538" transform="translate(31.617 251.269)"><path id="Path_1128" data-name="Path 1128" class="cls-5" d="M165.86 173.347l-16.751-7.747L70.8 188.841l62.605 2.722v10.05l7.538 20.52 23.241-34.548z" transform="translate(-41.905 -150.734)"/><path id="Path_1129" data-name="Path 1129" class="cls-24" d="M121.163 255.456l9-79.356-28.263 21.148 9.213 58.418z" transform="translate(-7.887 -139.249)"/><path id="Path_1130" data-name="Path 1130" class="cls-6" d="M181.562 209.789c-.209-.419-49.2-42.714-49.2-42.714l-16.337-8.375L111 182.988l60.721 29.942c.209 0 9.841-3.141 9.841-3.141z" transform="translate(2.067 -158.281)"/><path id="Path_1131" data-name="Path 1131" class="cls-6" d="M57 168.341l5.863 17.169c4.4 12.982 18.635 20.729 32.873 17.8l78.728-19.891a12.9 12.9 0 0 0 10.679-12.354c0-6.91-6.072-12.563-13.4-12.563l-71.4.419z" transform="translate(-57 -158.5)"/></g><path id="Path_1132" data-name="Path 1132" d="M198.548 239.094l148.033-61.349-40.62-75.8c-38.317-50.042-116-68.259-185.722-62.4L65.8 50.44l65.327 190.747z" transform="translate(-15.758 -38.495)" opacity=".32" fill="url(#radial-gradient)"/><g id="Group_539" data-name="Group 539" transform="translate(69.515 197.876)"><path id="Path_1133" data-name="Path 1133" class="cls-26" d="M90.4 182.933h69.1l10.26-42.3a6.074 6.074 0 0 0-6.072-7.538H107.36a6.238 6.238 0 0 0-6.072 4.816z" transform="translate(-58.364 -132.891)"/><path id="Path_1134" data-name="Path 1134" class="cls-6" d="M91.8 183.042l11.1-45.227a6.285 6.285 0 0 1 6.069-4.815h56.324a6.558 6.558 0 0 1 5.025 2.513L123 182.833H91.8z" transform="translate(-56.833 -133)"/><path id="Path_1135" data-name="Path 1135" class="cls-24" d="M153.92 134.3a6.061 6.061 0 0 1 1.047 5.025l-10.26 42.3H106.6z" transform="translate(-40.645 -131.578)"/><path id="Path_1136" data-name="Path 1136" class="cls-5" d="M78.66 156.9h59.465l-3.56 3.559H75.1a3.669 3.669 0 0 1 3.56-3.559z" transform="translate(-75.1 -106.858)"/><path id="Path_1137" data-name="Path 1137" class="cls-5" d="M147.989 156.9a3.529 3.529 0 0 1-3.56 3.559H103.6l3.559-3.559z" transform="translate(-43.926 -106.858)"/><path id="Path_1138" data-name="Path 1138" class="cls-26" d="M75.1 160.459h31.407a3.529 3.529 0 0 0 3.56-3.559H78.659a3.669 3.669 0 0 0-3.559 3.559z" transform="translate(-75.1 -106.858)"/></g><g id="Group_541" data-name="Group 541" transform="translate(25.986 56.852)"><path id="Path_1139" data-name="Path 1139" d="M108.728 117.475a7.672 7.672 0 0 0 8.166.209 7.59 7.59 0 0 0 2.931-7.538c4.606 1.675 9.632-3.978 7.747-8.375a6.664 6.664 0 0 0 5.653-5.863 6.5 6.5 0 0 0-5.025-6.491 9.807 9.807 0 0 0-2.513-10.679 9.94 9.94 0 0 0-10.887-1.674 11.747 11.747 0 0 0-20.31-7.747c-7.119-4.816-18.426-1.256-21.566 6.91-5.863-.419-11.307 5.653-10.26 11.516a8.37 8.37 0 0 0-7.957 5.657 8.25 8.25 0 0 0 2.931 9.213c-3.769 4.4-.838 12.563 5.025 13.4a4.83 4.83 0 0 0-1.047 6.072 4.7 4.7 0 0 0 5.863 1.675 7.771 7.771 0 0 0 3.978 7.747 8.349 8.349 0 0 0 8.794-.628z" transform="translate(-54.311 -65.647)" fill="#ff7a58"/><g id="Group_540" data-name="Group 540" transform="translate(14.006 34.147)"><path id="Path_1140" data-name="Path 1140" d="M102.458 82.258c2.3 1.256 2.931 4.188 2.722 6.7-.419 2.513-1.466 4.816-1.884 7.328s-.209 5.444 1.884 6.91c1.047.838 2.3 1.466 2.3 2.722 0 1.675-2.3 1.884-3.769 2.722-2.3 1.256-2.513 4.188-2.722 6.7s-.628 5.444-2.931 6.491c-2.931 1.256-5.863-1.466-9-2.3-2.931-.838-6.072.419-8.375 2.3s-8.166 12.982-9.841 15.494C65.606 136.7 61 129.16 61 121.413l15.285-18.426a4.7 4.7 0 0 1-4.4-2.513 4.412 4.412 0 0 1 .628-5.025c1.256-1.256 6.491-2.931 6.491 3.141a20.856 20.856 0 0 0 5.025-8.166c2.934-10.888 18.429-8.166 18.429-8.166z" transform="translate(-61 -81.956)" fill="url(#linear-gradient-16)"/></g></g><path id="Path_1141" data-name="Path 1141" class="cls-29" d="M108.16 214.209l10.05-.209 12.982 6.281 16.122 1.466 2.513 3.56L104.6 227.4z" transform="translate(26.683 153.476)"/><path id="Path_1142" data-name="Path 1142" class="cls-29" d="M140 186.569l9.841-3.141 14.029 2.513 15.913-3.141 3.35 2.722-42.714 14.447z" transform="translate(65.404 119.349)"/></g></g></g><g id="Group_554" data-name="Group 554" transform="translate(386.52 280.872)"><ellipse id="Ellipse_31" data-name="Ellipse 31" class="cls-4" cx="30.57" cy="2.722" rx="30.57" ry="2.722" transform="translate(2.931 121.442)"/><g id="Group_553" data-name="Group 553"><g id="Group_545" data-name="Group 545" transform="translate(24.288 30.989)"><path id="Path_1143" data-name="Path 1143" class="cls-30" d="M206.972 163.1l-6.072 20.729.628 21.566" transform="translate(-191.059 -163.1)"/><path id="Line_4" data-name="Line 4" class="cls-30" transform="translate(0 .209)" d="M0 0l9.841 20.519"/></g><g id="Group_552" data-name="Group 552"><g id="Group_551" data-name="Group 551"><g id="Group_546" data-name="Group 546" transform="translate(2.882)"><path id="Path_1144" data-name="Path 1144" class="cls-31" d="M191.679 172.888c6.281 9.422 13.4 12.563 17.588 10.05L186.026 148.6c-.21 2.931 0 15.7 5.653 24.288z" transform="translate(-185.976 -147.972)"/><path id="Path_1145" data-name="Path 1145" class="cls-32" d="M186 148.3v.628l23.451 34.339.209-.209c4.188-2.931 3.978-10.678-2.722-20.31C200.447 153.325 186 148.3 186 148.3z" transform="translate(-185.95 -148.3)"/><path id="Path_1146" data-name="Path 1146" class="cls-33" d="M202.357 172.029c-1.675-2.3-3.141-4.606-4.816-6.91-3.141-4.606-6.281-9.213-9.632-13.819h-.209l6.281 9.422a27.434 27.434 0 0 0-5.863 0s-.209.209 0 .209a56.839 56.839 0 0 0 6.072.209c1.047 1.466 1.884 2.931 2.931 4.188 1.466 2.3 3.141 4.606 4.606 6.91a51.119 51.119 0 0 0 4.816 6.91c.209.209.419 0 .419-.209a66 66 0 0 0-4.605-6.91z" transform="translate(-184.091 -145.019)"/><path id="Path_1147" data-name="Path 1147" class="cls-33" d="M198.89 160.081a51.172 51.172 0 0 0-9.841-.209s-.209.209 0 .209a77.147 77.147 0 0 0 9.841 0z" transform="translate(-182.718 -135.793)"/><path id="Path_1148" data-name="Path 1148" class="cls-33" d="M194.813 154.582a27.956 27.956 0 0 0-1.466 3.769 20.585 20.585 0 0 0-1.047 3.35h.209a10.947 10.947 0 0 0 1.256-3.35 25.326 25.326 0 0 0 1.047-3.769c.21-.209.001-.209.001 0z" transform="translate(-179.059 -141.6)"/><path id="Path_1149" data-name="Path 1149" class="cls-33" d="M197.5 158.7a34.116 34.116 0 0 0-2.3 6.491c0 .209.209.209.209 0 .837-2.094 1.466-4.4 2.094-6.491z" transform="translate(-175.887 -136.924)"/><path id="Path_1150" data-name="Path 1150" class="cls-33" d="M200.515 163.337a52.521 52.521 0 0 0-8.166-.209s-.209.209 0 .209a53.079 53.079 0 0 0 8.166 0z" transform="translate(-179.108 -132.139)"/></g><g id="Group_547" data-name="Group 547" transform="translate(0 36.642)"><path id="Path_1151" data-name="Path 1151" class="cls-31" d="M195.069 192.692c8.794 9.632 17.169 12.144 21.566 8.585L184.6 166.1c.419 3.35 2.513 18.007 10.469 26.592z" transform="translate(-184.6 -165.472)"/><path id="Path_1152" data-name="Path 1152" class="cls-32" d="M184.6 165.8v.628l32.036 35.172.209-.209c4.4-3.978 2.722-12.772-6.281-22.613-8.795-9.837-25.964-12.978-25.964-12.978z" transform="translate(-184.6 -165.8)"/><path id="Path_1153" data-name="Path 1153" class="cls-33" d="M206.882 190.048c-2.094-2.3-4.4-4.816-6.491-7.119-4.4-4.816-8.585-9.422-12.982-14.029h-.209c2.931 3.35 5.653 6.491 8.585 9.632a25.531 25.531 0 0 0-6.7.837c-.209 0-.209.209 0 .209a41.391 41.391 0 0 0 6.91-.838c1.256 1.466 2.513 2.931 3.978 4.4 2.094 2.3 4.4 4.816 6.491 7.119s4.188 5.025 6.491 7.119c.209.209.419-.209.419-.419-1.886-2.305-4.398-4.399-6.492-6.911z" transform="translate(-181.756 -162.409)"/><path id="Path_1154" data-name="Path 1154" class="cls-33" d="M201.155 177.7a109.8 109.8 0 0 0-11.307 1.256s-.209.209 0 .209a52.321 52.321 0 0 0 11.307-1.466c.21.21.21.001 0 .001z" transform="translate(-178.961 -152.783)"/><path id="Path_1155" data-name="Path 1155" class="cls-33" d="M195.184 171.682a33.468 33.468 0 0 0-1.047 4.4 26.922 26.922 0 0 0-.838 3.978h.209c.628-1.256.628-2.722 1.047-3.978l.628-4.4z" transform="translate(-175.084 -159.538)"/><path id="Path_1156" data-name="Path 1156" class="cls-33" d="M198.875 176.082a51.236 51.236 0 0 0-1.675 7.747c0 .209.209.209.209 0a55.658 55.658 0 0 0 1.466-7.747z" transform="translate(-170.818 -154.725)"/><path id="Path_1157" data-name="Path 1157" class="cls-33" d="M203.361 181a47.812 47.812 0 0 0-9.213 1.047s-.209.209 0 .209a47.81 47.81 0 0 0 9.213-1.047c.21 0 .21-.209 0-.209z" transform="translate(-174.257 -149.174)"/></g><g id="Group_548" data-name="Group 548" transform="translate(34.343 26.173)"><path id="Path_1158" data-name="Path 1158" class="cls-31" d="M223.7 193.236c-6.072 13.4-14.029 18.844-20.1 16.751l21.985-48.787c.838 3.559 3.56 19.891-1.885 32.036z" transform="translate(-198.16 -160.362)"/><path id="Path_1159" data-name="Path 1159" class="cls-32" d="M228.427 160.8a3.3 3.3 0 0 0 .209.838l-21.985 48.786c-.209 0-.209 0-.419-.209-6.072-2.722-7.328-12.563-1.256-26.173 6.072-13.82 23.451-23.242 23.451-23.242z" transform="translate(-201.002 -160.8)"/><path id="Path_1160" data-name="Path 1160" class="cls-33" d="M208.017 194.523c1.466-3.35 2.931-6.491 4.4-9.841 2.931-6.491 6.072-13.191 9-19.682h.209c-1.884 4.4-3.769 9-5.863 13.4a40.082 40.082 0 0 1 7.538-1.466.205.205 0 0 1 .209.209 42.124 42.124 0 0 1-7.747 1.675 77.42 77.42 0 0 1-2.722 6.072c-1.466 3.35-2.931 6.491-4.4 9.841s-2.722 6.7-4.4 9.841c-.209.209-.628 0-.419-.209a99 99 0 0 1 4.195-9.84z" transform="translate(-197.971 -156.206)"/><path id="Path_1161" data-name="Path 1161" class="cls-33" d="M206.8 178.513A78.486 78.486 0 0 1 219.363 176c.209 0 .209.209 0 .209a74.449 74.449 0 0 1-12.563 2.3z" transform="translate(-194.66 -144.174)"/><path id="Path_1162" data-name="Path 1162" class="cls-33" d="M205.8 170.3a50.089 50.089 0 0 1 2.722 4.4 18.231 18.231 0 0 1 2.094 3.978c0 .209-.209.209-.209 0a25.6 25.6 0 0 1-2.513-3.978c-.628-1.466-1.466-2.931-2.094-4.4z" transform="translate(-195.754 -150.409)"/><path id="Path_1163" data-name="Path 1163" class="cls-33" d="M203.382 176.3c1.466 2.513 3.35 5.025 4.4 7.538 0 .209-.209.209-.209 0-1.884-2.3-2.931-5.025-4.188-7.538z" transform="translate(-198.57 -143.846)"/><path id="Path_1164" data-name="Path 1164" class="cls-33" d="M204.4 182.994a52.38 52.38 0 0 1 10.26-2.094c.209 0 .209.209 0 .209a74.027 74.027 0 0 1-10.26 2.091z" transform="translate(-197.285 -138.814)"/></g><g id="Group_549" data-name="Group 549" transform="translate(36.791 6.072)"><path id="Path_1165" data-name="Path 1165" class="cls-31" d="M216.691 170.873c-4.4 7.747-9.841 10.678-13.191 8.794l16.332-28.267c.209 2.3.837 12.354-3.141 19.473z" transform="translate(-200.717 -150.981)"/><path id="Path_1166" data-name="Path 1166" class="cls-32" d="M221.285 151.2v.419l-16.332 28.267a.205.205 0 0 1-.209-.209c-3.56-2.094-3.56-8.166.838-15.913 4.606-7.958 15.703-12.564 15.703-12.564z" transform="translate(-202.171 -151.2)"/><path id="Path_1167" data-name="Path 1167" class="cls-24" d="M207.09 170.66c1.047-1.884 2.3-3.769 3.35-5.653 2.3-3.769 4.4-7.538 6.7-11.307-1.466 2.513-2.931 5.235-4.4 7.747a34.234 34.234 0 0 1 4.606-.419s.209.209 0 .209a17.963 17.963 0 0 1-4.816.419 31.518 31.518 0 0 1-2.094 3.56c-1.047 1.884-2.3 3.769-3.35 5.653a50.235 50.235 0 0 1-3.35 5.653c0 .209-.419 0-.209-.209 1.051-1.884 2.307-3.769 3.563-5.653z" transform="translate(-200.748 -148.465)"/><path id="Path_1168" data-name="Path 1168" class="cls-33" d="M205.949 161.138c2.513-.419 5.025-.628 7.747-.838a31.4 31.4 0 0 1-7.747.838c0 .209-.21 0 0 0z" transform="translate(-198.141 -141.246)"/><path id="Path_1169" data-name="Path 1169" class="cls-33" d="M205.7 156.4a17.307 17.307 0 0 0 1.466 2.722 12.808 12.808 0 0 1 1.047 2.513H208a14.075 14.075 0 0 1-1.256-2.513 8.212 8.212 0 0 1-1.044-2.722z" transform="translate(-198.311 -145.512)"/><path id="Path_1170" data-name="Path 1170" class="cls-33" d="M203.849 159.9c.837 1.675 1.675 3.35 2.3 4.816 0 0-.209.209-.209 0a19.748 19.748 0 0 1-2.094-4.816z" transform="translate(-200.438 -141.684)"/><path id="Path_1171" data-name="Path 1171" class="cls-33" d="M204.1 163.728a31.957 31.957 0 0 1 6.281-.628 20.014 20.014 0 0 1-6.281.628z" transform="translate(-200.061 -138.183)"/></g><g id="Group_550" data-name="Group 550" transform="translate(9.422 69.515)"><path id="Rectangle_14" data-name="Rectangle 14" class="cls-34" d="M0 0h50.252v7.957H0z"/><path id="Rectangle_15" data-name="Rectangle 15" class="cls-5" transform="translate(0 7.957)" d="M0 0h50.252v3.56H0z"/><path id="Path_1172" data-name="Path 1172" class="cls-34" d="M239.142 227.411V187H189.1v20.519l21.148 19.891z" transform="translate(-189.1 -175.484)"/><path id="Path_1173" data-name="Path 1173" d="M227.417 223.911L189.1 190.2v33.711z" transform="translate(-189.1 -171.984)" fill="#b0bec5"/><path id="Path_1174" data-name="Path 1174" d="M189.1 206.3v3.35h23.66l-3.769-3.35z" transform="translate(-189.1 -154.373)" fill="#959a8f"/><path id="Path_1175" data-name="Path 1175" class="cls-5" d="M228.751 206.3H198.6l3.769 3.35h26.382z" transform="translate(-178.709 -154.373)"/></g></g></g></g></g></g></svg>