<svg xmlns="http://www.w3.org/2000/svg" viewBox="0 0 117.369 28.229"><path d="M44.513 24.051h-3.454V11.259h3.454zm-3.87-16.978a2.1 2.1 0 0 1 .624-1.522 2.034 2.034 0 0 1 1.508-.637 2.055 2.055 0 0 1 1.508.624 2.085 2.085 0 0 1 .624 1.534 2.025 2.025 0 0 1-.624 1.479 2.055 2.055 0 0 1-1.508.624 2.055 2.055 0 0 1-1.508-.624 2.025 2.025 0 0 1-.624-1.478zm11 13.26a3.155 3.155 0 0 0 2.314.962 3.112 3.112 0 0 0 2.3-.962 3.649 3.649 0 0 0 .948-2.682 3.649 3.649 0 0 0-.949-2.678 3.112 3.112 0 0 0-2.3-.962 3.112 3.112 0 0 0-2.3.962 3.649 3.649 0 0 0-.951 2.678 3.679 3.679 0 0 0 .936 2.682zm-2.5-7.54a6.526 6.526 0 0 1 4.81-1.924 6.483 6.483 0 0 1 4.8 1.924 6.614 6.614 0 0 1 1.91 4.858 6.614 6.614 0 0 1-1.911 4.862 6.483 6.483 0 0 1-4.797 1.928 6.483 6.483 0 0 1-4.8-1.924 6.614 6.614 0 0 1-1.908-4.866 6.638 6.638 0 0 1 1.898-4.858zm13.156 7.7l2.964-.65a1.986 1.986 0 0 0 .663 1.391 2.391 2.391 0 0 0 1.677.559 1.913 1.913 0 0 0 1.248-.364 1.132 1.132 0 0 0 .442-.91q0-.962-1.378-1.248l-1.69-.39a4.847 4.847 0 0 1-2.691-1.4 3.527 3.527 0 0 1-.895-2.43 3.835 3.835 0 0 1 1.365-2.964 4.935 4.935 0 0 1 3.419-1.222 6.4 6.4 0 0 1 2.288.377 4.019 4.019 0 0 1 1.534.962 4.767 4.767 0 0 1 .832 1.183 3.952 3.952 0 0 1 .364 1.17l-2.886.65a2.151 2.151 0 0 0-.611-1.2 2 2 0 0 0-1.495-.52 1.862 1.862 0 0 0-1.157.364 1.1 1.1 0 0 0-.481.91q0 .936 1.17 1.144l1.82.39a5.23 5.23 0 0 1 2.821 1.43 3.521 3.521 0 0 1 .975 2.5 3.971 3.971 0 0 1-1.3 2.964 5.08 5.08 0 0 1-3.666 1.252 6.8 6.8 0 0 1-2.418-.403 4.225 4.225 0 0 1-1.651-1.04 5.132 5.132 0 0 1-.884-1.274 4.187 4.187 0 0 1-.377-1.235zm16.458-.156a3.155 3.155 0 0 0 2.314.962 3.112 3.112 0 0 0 2.3-.962 3.649 3.649 0 0 0 .952-2.686 3.649 3.649 0 0 0-.949-2.678 3.112 3.112 0 0 0-2.3-.962 3.112 3.112 0 0 0-2.3.962 3.649 3.649 0 0 0-.951 2.678 3.679 3.679 0 0 0 .936 2.682zm-2.5-7.54a6.526 6.526 0 0 1 4.81-1.924 6.483 6.483 0 0 1 4.8 1.924 6.614 6.614 0 0 1 1.914 4.854 6.614 6.614 0 0 1-1.911 4.862 6.483 6.483 0 0 1-4.797 1.928 6.483 6.483 0 0 1-4.8-1.924 6.614 6.614 0 0 1-1.908-4.866 6.638 6.638 0 0 1 1.898-4.858zm17.68 7.54a3.155 3.155 0 0 0 2.314.962 3.112 3.112 0 0 0 2.3-.962 3.649 3.649 0 0 0 .956-2.686 3.649 3.649 0 0 0-.949-2.678 3.112 3.112 0 0 0-2.3-.962 3.112 3.112 0 0 0-2.3.962 3.649 3.649 0 0 0-.951 2.678 3.679 3.679 0 0 0 .936 2.682zm-2.5-7.54a6.526 6.526 0 0 1 4.81-1.924 6.483 6.483 0 0 1 4.8 1.924 6.614 6.614 0 0 1 1.918 4.854 6.614 6.614 0 0 1-1.911 4.862 6.483 6.483 0 0 1-4.797 1.928 6.483 6.483 0 0 1-4.8-1.924 6.614 6.614 0 0 1-1.908-4.866 6.638 6.638 0 0 1 1.898-4.858zm17.706 3.9v7.354h-3.448V11.259h3.354v1.586a3.567 3.567 0 0 1 1.56-1.43 4.808 4.808 0 0 1 2.132-.494 4.233 4.233 0 0 1 3.445 1.417 5.508 5.508 0 0 1 1.183 3.653v8.06h-3.456v-7.462a2.789 2.789 0 0 0-.585-1.846 2.186 2.186 0 0 0-1.781-.7 2.184 2.184 0 0 0-1.742.754 2.8 2.8 0 0 0-.652 1.896z"/><path data-name="Path 868" d="M28.229 13.439h-5.387a1.351 1.351 0 0 0 0 2.7h5.368a1.357 1.357 0 0 0 1.351-1.351 1.341 1.341 0 0 0-1.332-1.349z"/><path data-name="Path 869" d="M6.719 13.439H1.351a1.351 1.351 0 1 0 0 2.7h5.368a1.351 1.351 0 1 0 0-2.7z"/><path data-name="Path 870" d="M23.337 4.321L19.53 8.129a1.346 1.346 0 1 0 1.9 1.9l3.807-3.807a1.333 1.333 0 0 0 0-1.9 1.368 1.368 0 0 0-1.9-.001z"/><g data-name="Group 462"><path data-name="Path 871" d="M14.791 22.843a1.357 1.357 0 0 0-1.352 1.351v2.684a1.351 1.351 0 1 0 2.7 0v-2.684a1.369 1.369 0 0 0-1.348-1.351z"/><path data-name="Path 872" d="M8.128 19.53l-3.807 3.808a1.346 1.346 0 1 0 1.9 1.9l3.807-3.807a1.333 1.333 0 0 0 0-1.9 1.368 1.368 0 0 0-1.9-.001z"/></g><path data-name="Path 873" d="M14.791 0a1.357 1.357 0 0 0-1.352 1.351v5.368a1.351 1.351 0 1 0 2.7 0V1.351A1.369 1.369 0 0 0 14.791 0z"/><path data-name="Path 874" d="M6.221 4.321a1.346 1.346 0 0 0-1.9 1.9l3.807 3.807a1.346 1.346 0 0 0 1.9-1.9z"/></svg>